<svg id="Layer_1" data-name="Layer 1" xmlns="http://www.w3.org/2000/svg" viewBox="0 0 347.37 369.28"><defs><style>.cls-1{fill:#939598;}</style></defs><title>Artboard 9 copy 7</title><path class="cls-1" d="M156.9,138.66a2.5,2.5,0,0,0-1.78-1.62,49.68,49.68,0,0,0-7.32,0c-.65,0-1.76.84-1.79,1.34-.16,3.12-.08,6.26-.08,9.5h11C157,144.59,157.08,141.61,156.9,138.66Z"/><path class="cls-1" d="M203,192.55c.14-2.7.12-5.42,0-8.13a1.9,1.9,0,0,0-1.26-1.33c-3.13-.11-6.27-.06-9.54-.06v11c3.3,0,6.35.07,9.4-.07A2,2,0,0,0,203,192.55Z"/><path class="cls-1" d="M157,263c0-3.24.08-6.29-.08-9.34,0-.54-1.06-1.42-1.67-1.46a56.54,56.54,0,0,0-7.59,0,2.29,2.29,0,0,0-1.64,1.49c-.16,3-.08,6.09-.08,9.3Z"/><path class="cls-1" d="M155.62,298.27c-3.12-.17-6.24-.08-9.45-.08v11c3.13,0,6,0,8.89,0,1.36,0,2-.46,1.94-1.88-.06-2.43.08-4.87-.08-7.29C156.88,299.42,156.11,298.3,155.62,298.27Z"/><path class="cls-1" d="M201.64,298.26c-3.12-.17-6.26-.08-9.5-.08v11c3.28,0,6.26.1,9.22-.08a2.5,2.5,0,0,0,1.62-1.77,49.55,49.55,0,0,0,0-7.31C202.94,299.4,202.14,298.29,201.64,298.26Z"/><path class="cls-1" d="M147.2,240c2.8.13,5.6.13,8.4,0a1.9,1.9,0,0,0,1.31-1.28c.12-3.13.06-6.27.06-9.54H145.92c0,3.32,0,6.38.06,9.43A1.91,1.91,0,0,0,147.2,240Z"/><path class="cls-1" d="M155.57,183.11c-3.11-.14-6.24-.07-9.5-.07v11c3.24,0,6.28.08,9.31-.07a2.26,2.26,0,0,0,1.53-1.57,65.81,65.81,0,0,0,0-7.82A2.08,2.08,0,0,0,155.57,183.11Z"/><path class="cls-1" d="M179.78,252.13c-3.35,0-6.4,0-9.45.05-.47,0-1.32.63-1.33,1-.11,3.27-.06,6.55-.06,9.8h10.85C179.78,259.37,179.78,256,179.78,252.13Z"/><path class="cls-1" d="M179.79,137c-3.25,0-6.39-.06-9.52.06a1.9,1.9,0,0,0-1.33,1.28c-.12,3.13-.06,6.26-.06,9.46h10.91Z"/><path class="cls-1" d="M203,138.34a1.89,1.89,0,0,0-1.32-1.29c-3.13-.12-6.26-.06-9.41-.06v10.87H203C203,144.6,203.07,141.47,203,138.34Z"/><path class="cls-1" d="M192.15,229.32v10.79c3.26,0,6.39.06,9.52-.06a1.87,1.87,0,0,0,1.29-1.31c.12-3.13.06-6.26.06-9.42Z"/><path class="cls-1" d="M201.86,252.22c-3.21-.1-6.42-.05-9.7-.05V263H203c0-3.29,0-6.42-.05-9.55A1.75,1.75,0,0,0,201.86,252.22Z"/><path class="cls-1" d="M170.45,240.06a70.89,70.89,0,0,0,7.85,0c.56,0,1.53-.83,1.55-1.31.14-3.12.07-6.25.07-9.51h-11c0,3.33-.07,6.38.07,9.43C169,239.18,169.9,240,170.45,240.06Z"/><path class="cls-1" d="M170.24,309.15c3.13.12,6.26.06,9.55.06v-11c-3.33,0-6.39-.05-9.44.05a1.9,1.9,0,0,0-1.37,1.21c-.13,2.8-.13,5.6,0,8.4A1.84,1.84,0,0,0,170.24,309.15Z"/><path class="cls-1" d="M168.93,192.83c.3.46.77,1.15,1.18,1.17,3.21.1,6.42.05,9.65.05v-10.8c-10.83-1.19-11.37-.75-10.92,8.51C168.86,192.13,168.76,192.57,168.93,192.83Z"/><path class="cls-1" d="M178.35,160.17c-3-.16-6.07-.07-9.47-.07,0,3.34-.09,6.38.08,9.41,0,.51,1.12,1.34,1.76,1.38a45.37,45.37,0,0,0,7.28,0,2.67,2.67,0,0,0,1.83-1.83,45.37,45.37,0,0,0,0-7.28A2.2,2.2,0,0,0,178.35,160.17Z"/><path class="cls-1" d="M193.84,170.86a39.23,39.23,0,0,0,7.27,0A2.7,2.7,0,0,0,203,169a46.43,46.43,0,0,0,0-7.27c0-.57-.8-1.56-1.26-1.58-3.12-.14-6.24-.07-9.71-.07,0,3.3-.12,6.09.08,8.86A2.73,2.73,0,0,0,193.84,170.86Z"/><path class="cls-1" d="M128.4,194.08c5.47,0,5.47,0,5.47-5.42,0-5.64,0-5.64-5.52-5.64s-5.48,0-5.48,5.42C122.88,194.08,122.88,194.08,128.4,194.08Z"/><path class="cls-1" d="M146.94,216.9c3.29.12,6.58.07,10,.07,0-3.37.07-6.26-.06-9.13,0-.57-.8-1.56-1.26-1.58-3.13-.14-6.27-.07-9.74-.07,0,3.42,0,6.31.05,9.19C146,215.91,146.58,216.89,146.94,216.9Z"/><path class="cls-1" d="M174.26,217c5.67,0,5.67,0,5.67-5.15,0-5.75,0-5.79-5.66-5.73-6.16,0-5.38-.9-5.43,5.45C168.81,217,168.84,217,174.26,217Z"/><path class="cls-1" d="M128.39,240.13c6.37,0,5.42.75,5.48-5.41,0-5.62,0-5.62-5.5-5.62s-5.49,0-5.49,5.37C123,240.92,121.93,240.13,128.39,240.13Z"/><path class="cls-1" d="M128.29,263.15c5.59,0,5.59,0,5.59-5.54s0-5.51-5.41-5.51c-5.59,0-5.59,0-5.59,5.6S122.88,263.15,128.29,263.15Z"/><path class="cls-1" d="M179.86,277c0-.61-.9-1.63-1.43-1.65-3-.16-6.09-.08-9.24-.08v10.37l7.68.5c.45,0,1,.17,1.32-.05.66-.5,1.61-1.15,1.66-1.8A50.68,50.68,0,0,0,179.86,277Z"/><path class="cls-1" d="M147.46,286a76.13,76.13,0,0,0,7.85,0c.55,0,1.54-.64,1.55-1,.12-3.2.07-6.41.07-9.66h-11c0,3.24-.08,6.13.07,9A2.23,2.23,0,0,0,147.46,286Z"/><path class="cls-1" d="M201.5,206.23c-2.69-.14-5.39-.12-8.09,0a1.83,1.83,0,0,0-1.31,1.24c-.11,3.1-.06,6.21-.06,9.4h11c0-3.17.07-6.21-.07-9.23A2.08,2.08,0,0,0,201.5,206.23Z"/><path class="cls-1" d="M193.62,286c3,0,6-.2,9.06-.34.12-2.85.24-5.71.37-8.56.06-1.36-.54-1.93-1.93-1.9-2.87.06-5.74,0-9.1,0,0,3.33-.08,6.28.07,9.22A2.26,2.26,0,0,0,193.62,286Z"/><path class="cls-1" d="M128.47,298.17c-5.59,0-5.59,0-5.59,5.57s0,5.49,5.41,5.49c5.58,0,5.58,0,5.58-5.58S133.87,298.17,128.47,298.17Z"/><path class="cls-1" d="M128.26,148c5.61,0,5.61,0,5.61-5.52v-.27c-.1-5.94.85-5.22-5.38-5.26-5.61,0-5.61,0-5.61,5.56S122.88,148,128.26,148Z"/><path class="cls-1" d="M146.07,160.34v10.58c3.28,0,6.41.06,9.54-.06a1.88,1.88,0,0,0,1.3-1.28c.12-3,.06-6.09.06-9.25Z"/><path class="cls-1" d="M155.31,321.38a64.25,64.25,0,0,0-7.85,0,2,2,0,0,0-1.45,1.37c-.14,3-.07,6.08-.07,9.28H157c0-3.2.09-6.16-.08-9.12A2.28,2.28,0,0,0,155.31,321.38Z"/><path class="cls-1" d="M171.71,321.29a3.42,3.42,0,0,0-1.33.06c-.55.29-1.4.78-1.41,1.21-.12,3.12-.07,6.24-.07,9.6,3.35,0,6.32.1,9.27-.08a2.48,2.48,0,0,0,1.69-1.68C180.87,321.23,180.77,321.15,171.71,321.29Z"/><path class="cls-1" d="M201.37,321.38a58.16,58.16,0,0,0-7.81,0,2.29,2.29,0,0,0-1.47,1.63c-.15,2.86-.07,5.74-.07,8.93h10.49l.54-8.48c0-.18.06-.43,0-.53C202.49,322.38,202,321.42,201.37,321.38Z"/><path class="cls-1" d="M128.46,321.28h-.27c-6.06.08-5.26-.72-5.3,5.38,0,5.51,0,5.51,5.4,5.51,5.58,0,5.58,0,5.58-5.6C133.79,320.52,134.59,321.37,128.46,321.28Z"/><path class="cls-1" d="M128.57,275.22c-5.69,0-5.73,0-5.68,5.22.06,6.49-.86,5.64,5.56,5.65,6.21,0,5.4.82,5.4-5.52S134.62,275.33,128.57,275.22Z"/><path class="cls-1" d="M122.89,211.42c0,5.61,0,5.61,5.57,5.61,5.41,0,5.45,0,5.4-5.51-.05-6.11.76-5.31-5.3-5.38C122.12,206.23,122.94,205.32,122.89,211.42Z"/><path class="cls-1" d="M128.29,160.07c-5.41,0-5.44,0-5.4,5.5,0,6.11-.76,5.31,5.3,5.39,6.44-.1,5.63.82,5.67-5.28C133.91,160.07,133.87,160.07,128.29,160.07Z"/><path class="cls-1" d="M296.78,342.64c-3.06,0-3.06,0-3.06-3.1v-154h-2.46c-4.55,0-9.09-.07-13.63,0-1.65,0-2.13-.56-2.1-2.11.06-4.27,0-8.55.05-12.82,0-1.74-.43-2.33-2.27-2.31-12.35.08-24.69,0-37,0-.66,0-1.32.07-2.21.12v2.31c0,4.14-.1,8.28.05,12.41.07,1.89-.62,2.41-2.33,2.33h-5.21s-.09-71.22-.15-72.14c-4.84,0-9.36-.15-13.88,0-2.7.12-3.4-.89-3.33-3.44.16-5.52-.1-11,.11-16.56.1-2.72-.86-3.41-3.4-3.28-3.7.19-7.42-.06-11.13.09-2.13.09-2.88-.62-2.84-2.75.1-5.79-.06-11.59.07-17.38.06-2.3-.74-2.93-3-2.88-6,.13-11.95-.09-17.92.1-2.67.09-3.4-.79-3.3-3.37.19-4.76.06-9.53.06-14.59-2.78,0-5.21.1-7.62,0-1.83-.1-2.36.66-2.33,2.37.07,4.25-.06,8.51.06,12.76.06,2.07-.52,3-2.73,2.84-2.7-.16-5.43,0-8.14,0H133.85V82.79c0,7.43,0,7.43-7.31,7.43h-10v19.34c0,3.82,0,3.82-3.88,3.82H99.11v124H53.23V338.42h0v1.29c0,2.89,0,2.89-2.89,2.9H39.51c0,7,7.24,7.49,10.26,7.49H99.11v.37H226.59v-.37h54.64c5.43,0,10.86.08,16.28-.05,2-.05,9.84-.51,9.84-7.44C303.69,342.64,300.24,342.64,296.78,342.64ZM143.64,79.52c0-1.55.46-2.26,2.18-2.25q17.09.09,34.18,0c1.62,0,2.29.54,2.24,2.19-.08,2.89-.09,5.79,0,8.68.06,1.73-.75,2.13-2.3,2.12-5.61-.06-11.21,0-16.82,0s-11.39,0-17.09,0c-1.76,0-2.45-.59-2.4-2.34C143.71,85.13,143.7,82.32,143.64,79.52Zm-17.2,23.72c-.18-2.37.61-3.12,3-3.09,11.22.12,22.45,0,33.67,0s22.26.06,33.39,0c2.43,0,3.22.8,3.07,3.14a52,52,0,0,0,0,7.06c.17,2.38-.71,3.13-3.09,3.11-12.67-.1-25.34,0-38,0-9.6,0-19.19-.06-28.78,0-2.39,0-3.52-.53-3.28-3.16A43.79,43.79,0,0,0,126.44,103.24Zm90.2,131.48V342.26c0,3.68,0,3.68-3.67,3.68H112.76c-3.56,0-3.57,0-3.57-3.54V126.78c0-3.59,0-3.61,3.56-3.61,33.49,0,67,0,100.48-.06,2.76,0,3.47.8,3.46,3.53Q216.56,180.68,216.64,234.72Z"/></svg>