<svg id="Group_18285" data-name="Group 18285" xmlns="http://www.w3.org/2000/svg" width="77.917" height="99.554" viewBox="0 0 77.917 99.554">
  <path id="Path_3393" data-name="Path 3393" d="M3229.142-507.705c3.139,0,51.691,0,54.831,0,1.963,0,2.824.858,2.824,2.808q0,17.45.013,34.9a3.368,3.368,0,0,0,.342,1.421c.28.57.829.571,1.158.03q1.418-2.334,2.775-4.7a1.852,1.852,0,0,0,.167-.885q.012-15.6,0-31.2a6.711,6.711,0,0,0-6.743-6.822c-3.56-.037-52.533-.025-56.093,0m6.187,9.152-4.538-9.166c-3.14,0-6.282.079-9.418-.019a6.978,6.978,0,0,0-7.248,7.2c.1,13.763.037,27.527.037,41.291q0,20.814,0,41.628a6.643,6.643,0,0,0,5.538,6.806,7.28,7.28,0,0,0,1.339.09q31.956.006,63.913,0c4.168,0,6.892-2.87,7.072-7.03a10.07,10.07,0,0,0-1.936-6.9c-.388-.508-.652-1.11-.991-1.657-.406-.655-.9-.674-1.256-.008a2.667,2.667,0,0,0-.31,1.181c-.028,2.438-.011,4.877-.015,7.316a2.352,2.352,0,0,1-2.632,2.65q-31.872.006-63.745,0a2.278,2.278,0,0,1-2.519-2.568q0-41.46,0-82.919a2.315,2.315,0,0,1,2.583-2.6c3.476-.007,6.953.016,10.428-.017m25.9-7,1.273.85" transform="translate(-3213.402 514.719)" fill="#4c1cd5"/>
  <path id="Path_3394" data-name="Path 3394" d="M3315-353.566q-11.811,0-23.621.008a4.535,4.535,0,0,0-1.481.2,1.766,1.766,0,0,0-1.254,1.8,1.8,1.8,0,0,0,1.225,1.741,3.321,3.321,0,0,0,1.227.208q23.873.015,47.745,0a3.458,3.458,0,0,0,.909-.115,1.9,1.9,0,0,0,1.533-2.019,2.015,2.015,0,0,0-1.826-1.791,9.246,9.246,0,0,0-1.091-.028Q3326.689-353.567,3315-353.566Z" transform="translate(-3276.036 380.672)" fill="#4c1cd5"/>
  <path id="Path_3395" data-name="Path 3395" d="M3314.978-406.384q11.852,0,23.706-.01a4.086,4.086,0,0,0,1.469-.238,1.747,1.747,0,0,0,1.16-1.775,1.739,1.739,0,0,0-1.189-1.671,3.874,3.874,0,0,0-1.387-.251q-23.748-.019-47.5-.005a4.292,4.292,0,0,0-1.077.128,1.916,1.916,0,0,0-1.506,1.96,1.972,1.972,0,0,0,1.694,1.817,6.778,6.778,0,0,0,1.089.044Q3303.21-406.383,3314.978-406.384Z" transform="translate(-3276.053 427.896)" fill="#4c1cd5"/>
  <path id="Path_3396" data-name="Path 3396" d="M3564.542-92.677v-18h-1.3c-1.566,0-3.134.016-4.7-.007-.5-.007-.7.157-.695.67.011,5.541,0,11.082.028,16.623,0,.238.3.678.46.682C3560.372-92.66,3562.41-92.677,3564.542-92.677Z" transform="translate(-3544.559 178.639)" fill="#4c1cd5"/>
  <path id="Path_3397" data-name="Path 3397" d="M3303.445-296.8q-6.007,0-12.013,0a7.385,7.385,0,0,0-1.089.048,1.927,1.927,0,0,0-1.69,1.8,1.888,1.888,0,0,0,1.573,1.982,6.325,6.325,0,0,0,1.253.089q12.014.008,24.027,0a6.363,6.363,0,0,0,1-.065,1.942,1.942,0,0,0,1.7-1.882,1.952,1.952,0,0,0-1.667-1.92,6.307,6.307,0,0,0-1.088-.055Q3309.452-296.805,3303.445-296.8Z" transform="translate(-3252.953 333.455)" fill="#4c1cd5"/>
  <path id="Path_3398" data-name="Path 3398" d="M3451.6-98.245c-.021.314-.053.586-.053.859,0,4.707.012,9.415-.018,14.122,0,.726.186.983.937.96,1.679-.051,3.362-.018,5.043-.015.418,0,.765-.006.763-.6-.018-5.016-.017-10.031-.025-15.047a1.191,1.191,0,0,0-.083-.278Z" transform="translate(-3420.405 168.294)" fill="#4c1cd5"/>
  <path id="Path_3399" data-name="Path 3399" d="M3415.073-174.446l-8.923,7.345L3395-177.788l-1.608,1.527,12.646,12.131,8.923-7.345,11.467,11c.533-.519,1.046-1.017,1.589-1.548Z" transform="translate(-3380.368 234.458)" fill="#4c1cd5"/>
  <path id="Path_3400" data-name="Path 3400" d="M3511.469-65.385V-77.8c-.425-.023-.832-.061-1.236-.063-1.513-.007-3.024.024-4.535-.015-.664-.017-.937.144-.931.876.034,3.61.013,7.221.016,10.832,0,.35-.087.779.486.779Z" transform="translate(-3482.558 151.349)" fill="#4c1cd5"/>
  <path id="Path_3401" data-name="Path 3401" d="M3398.508-46.193c2.112,0,4.123.014,6.134-.024a.758.758,0,0,0,.508-.539c.033-2.655.023-5.311.023-8.046h-6.665Z" transform="translate(-3358.391 132.158)" fill="#4c1cd5"/>
  <path id="Path_3402" data-name="Path 3402" d="M3455.782-195.02l2.935-5.082h-5.875Z" transform="translate(-3421.073 253.019)" fill="#4c1cd5"/>
  <path id="Path_3403" data-name="Path 3403" d="M3572.586-220.578c.139.265.234.463.344.652.826,1.428,1.654,2.854,2.556,4.408l2.925-5.061Z" transform="translate(-3560.907 270.051)" fill="#4c1cd5"/>
  <path id="Path_3404" data-name="Path 3404" d="M3213.5-278.675l-.009,51.872,4.508.069v-53h-4.5" transform="translate(-3140.098 319.254)" fill="#4c1cd5"/>
</svg>
