<svg id="Layer_1" data-name="Layer 1" xmlns="http://www.w3.org/2000/svg" viewBox="0 0 347.37 369.28"><defs><style>.cls-1{fill:#f6b800;}</style></defs><title>Artboard 9</title><path class="cls-1" d="M182.72,198.44a10.48,10.48,0,0,1-10.45,10.45H161.82a10.48,10.48,0,0,1-10.45-10.45v-5.23H62.56v73.18A10.48,10.48,0,0,0,73,276.84H261.08a10.48,10.48,0,0,0,10.45-10.45V193.21H182.72Z"/><path class="cls-1" d="M261.09,130.49H208.85v-17a18.18,18.18,0,0,0-18.28-18.29h-47a18.17,18.17,0,0,0-18.28,18.29v17H73a10.48,10.48,0,0,0-10.45,10.45v41.82h88.81v-5.23h31.34v5.23h88.81V140.94A10.5,10.5,0,0,0,261.09,130.49Zm-67.92,0H140.93v-17a2.46,2.46,0,0,1,2.61-2.61h47a2.47,2.47,0,0,1,2.61,2.61Z"/></svg>