<svg id="Layer_1" data-name="Layer 1" xmlns="http://www.w3.org/2000/svg" viewBox="0 0 347.37 369.28"><defs><style>.cls-1{fill:#4bb051;}</style></defs><title>Artboard 9 copy 2</title><path class="cls-1" d="M281.09,263.25c0,4.11-4.74,7.9-12.64,10.75V262.62a74.73,74.73,0,0,0,12.64-5.06v5.69Zm-25.28-20.86V231A74.73,74.73,0,0,0,268.45,226v5.69c0,4.11-4.74,7.9-12.64,10.75Zm0,35.4c-3.79.95-8.21,1.58-12.64,2.21V267.67c4.11-.63,8.53-1.26,12.64-1.9v12Zm-25.27-41.72c4.11-.63,8.53-1.26,12.64-1.9v12c-3.79.95-8.21,1.58-12.64,2.21V236.07Zm0,45.51c-4.11.32-8.21.63-12.64.63V269.57c3.79,0,8.21-.32,12.64-.63v12.64Zm-25.27-31V238c3.79,0,8.21-.32,12.64-.63V250c-4.11.31-8.22.31-12.64.63Zm0,31.6c-4.42,0-8.53-.32-12.64-.63v-12h12.64v12.64ZM180,237.33c4.11.32,8.21.63,12.64.63V250.6c-4.42,0-8.53-.32-12.64-.63V237.33ZM180,280c-4.42-.63-8.85-1.26-12.64-2.21V267.68c4.11.63,8.21.95,12.64,1.26V280Zm-25.28-33.82V233.85c4.11.63,8.21,1.58,12.64,1.9v12.64c-4.42-.63-8.85-1.26-12.64-2.21Zm0,27.82c-7.9-3.16-12.64-6.95-12.64-10.75v-.63h.32a7.35,7.35,0,0,0,2.53.63,88.31,88.31,0,0,0,9.79,2.21V274Zm-50.54-43c2.21,0,4.11.32,6.32.32v.32A23.16,23.16,0,0,0,113.66,244c-3.16,0-6.32-.32-9.48-.63V231ZM91.54,193.08c4.11.63,8.21,1.58,12.64,1.9v12.64c-4.42-.63-8.85-1.26-12.64-2.21V193.08Zm0,49c-4.42-.63-8.85-1.26-12.64-2.21V227.53c4.11.63,8.21,1.58,12.64,1.9v12.64ZM66.27,190.55v-5.69a65.21,65.21,0,0,0,12.64,4.74v11.7c-7.9-2.85-12.64-6.64-12.64-10.75Zm0,45.52c-7.9-3.16-12.64-6.95-12.64-10.75v-5.69a65.21,65.21,0,0,0,12.64,4.74v11.7ZM53.63,137.45a65.21,65.21,0,0,0,12.64,4.74v11.7c-7.9-3.16-12.64-6.95-12.64-10.75v-5.69Zm37.91,10.11V160.2c-4.42-.63-8.85-1.26-12.64-2.21V145.66c4.11.64,8.22,1.27,12.64,1.9Zm31.59-55c38.54,0,69.5,8.53,69.5,19s-31,19-69.5,19-69.5-8.53-69.5-19,31-19,69.5-19Zm19,149.83c-7.9-3.16-12.64-6.95-12.64-10.75V226a65.21,65.21,0,0,0,12.64,4.74v11.7ZM180,153.88V142.5a74.73,74.73,0,0,0,12.64-5.06v5.69c0,4.12-4.75,7.91-12.64,10.75Zm-25.28,6V147.56c4.11-.63,8.53-1.26,12.64-1.9v12c-3.79,1-8.21,1.59-12.64,2.22Zm-25.27,2.21V149.46c3.79,0,8.21-.32,12.64-.63v12.64c-4.11.32-8.22.32-12.64.63Zm-25.27-.63V148.83c4.11.32,8.21.63,12.64.63V162.1c-4.43-.31-8.53-.31-12.64-.63ZM268.45,200c0,10.43-31,19-69.5,19s-69.5-8.53-69.5-19,31-19,69.5-19,69.5,8.53,69.5,19Zm19,9.48V200c0-14.86-11.69-25.6-34.43-31.61a177,177,0,0,0-29.38-5.06,19.19,19.19,0,0,0,.32-4.43c0-8.85-4.11-16.44-12.64-22.13V111.51c0-14.86-11.69-25.6-34.43-31.61-14.85-4.11-33.8-6.32-54-6.32-26.54,0-88.45,3.79-88.45,37.93v31.61c0,8.85,4.11,16.44,12.64,22.13v6c-7.58,5.37-12.64,12.64-12.64,22.44v31.61c0,14.86,11.69,25.6,34.43,31.61,14.85,4.11,33.8,6.32,54,6.32,0,14.86,11.69,25.6,34.43,31.61,14.85,4.11,33.8,6.32,54,6.32,26.54,0,88.45-3.79,88.45-37.93V231.63c.31-8.84-3.8-16.43-12.32-22.12Z"/></svg>