<svg id="Layer_1" data-name="Layer 1" xmlns="http://www.w3.org/2000/svg" viewBox="0 0 825 713"><defs><style>.cls-1{opacity:0.79;}.cls-2{fill:#18aee8;}</style></defs><title>Artboard 2</title><g class="cls-1"><path class="cls-2" d="M177,184.56c9.41,8.65,78.36,65.79,88.37,73.78a.48.48,0,0,0,.64-.71c-9-9.12-54.75-53.81-54.75-53.81-9.22-8.87-18.28-17.91-27.86-26.37s-19.18-16.91-29.3-24.77a3.6,3.6,0,0,0-4.8,5.33C158.18,167.26,167.59,175.91,177,184.56Z"/><path class="cls-2" d="M199.91,309.28a.48.48,0,0,0,.57-.29.49.49,0,0,0-.27-.62c-11.23-4.45-67.76-25.54-67.76-25.54-11.33-4.13-22.6-8.48-34.1-12.08s-23-7.2-34.77-10a3.6,3.6,0,0,0-2.22,6.82c11.18,4.62,22.61,8.47,34,12.32s23.1,6.94,34.69,10.26C130.08,290.11,188.21,306.28,199.91,309.28Z"/><path class="cls-2" d="M653,516.56c-11.55-6.82-94.68-50.56-106.67-56.62a.48.48,0,0,0-.48.83c11.23,7.37,68,43.13,68,43.13,11.4,7.07,22.69,14.35,34.36,20.94s23.36,13.18,35.44,19.08a3.6,3.6,0,0,0,3.59-6.22C676.05,530.19,664.51,523.37,653,516.56Z"/><path class="cls-2" d="M729,402.8c-10-2-20-3.18-30.09-4.36s-20.2-1.59-30.32-2.23c0,0-50.63-2.72-60.78-3a.48.48,0,0,0-.1.95c10,1.82,60.08,9.68,60.08,9.68,10,1.49,20,3.2,30.12,4.13s20.17,1.86,30.34,2a3.6,3.6,0,0,0,.75-7.14Z"/><path class="cls-2" d="M608.32,300.74a.47.47,0,0,0,.58.34c10.24-2.59,61.07-16.76,61.07-16.76,10.13-2.92,20.34-5.62,30.3-9.07s19.92-6.9,29.63-11.1a3.6,3.6,0,0,0-2.26-6.81c-10.3,2.43-20.34,5.63-30.39,8.83s-19.83,7.15-29.7,10.88c0,0-49.19,19.08-58.95,23.12A.48.48,0,0,0,608.32,300.74Z"/><path class="cls-2" d="M609.84,180.39c9.93-9.11,19.85-18.23,29.24-27.94a3.59,3.59,0,0,0-4.8-5.33c-10.64,8.32-20.74,17.24-30.84,26.16s-77.73,74.77-87.25,84.35a.48.48,0,0,0,.64.71c10.53-8.45,62.33-51.61,62.33-51.61C589.46,198,599.91,189.5,609.84,180.39Z"/><path class="cls-2" d="M505.65,125.38c5.23-12,10.45-24.1,14.93-36.47A3.59,3.59,0,0,0,514,86c-6.19,11.62-11.66,23.56-17.12,35.5S457.43,218.9,452.78,231.2a.49.49,0,0,0,.23.6.47.47,0,0,0,.64-.21c6-11.69,35.11-70.61,35.11-70.61C494.49,149.16,500.43,137.43,505.65,125.38Z"/><path class="cls-2" d="M379.79,169.94a.48.48,0,0,0,.55-.47c1.25-9.78,6.32-58.87,6.32-58.87.92-9.83,2.07-19.63,2.44-29.53s.73-19.79.29-29.79a4.5,4.5,0,0,0-3-4.27c-2-.53-3.85,1-4.2,3.38-1.43,9.76-2.06,19.63-2.68,29.49s-.46,19.83-.53,29.77L379,139.47c.15,10,.16,19.91.43,29.88A.61.61,0,0,0,379.79,169.94Z"/><path class="cls-2" d="M269.89,126.34c3.63,7.26,8,14.16,12.08,21.17l12.5,21c4.32,6.9,8.51,13.87,12.93,20.73a.48.48,0,0,0,.85-.44c-3.07-7.56-19.49-44.77-19.49-44.77-3.36-7.4-6.53-14.9-10.38-22s-7.72-14.28-12.29-21.06a3.61,3.61,0,0,0-6.37,3.31C262.64,111.81,266.26,119.08,269.89,126.34Z"/><path class="cls-2" d="M142.21,351.32c7.21.13,14.43.25,21.65.19s14.44-.07,21.68-.29a.49.49,0,0,0,.46-.39.47.47,0,0,0-.39-.56c-7.12-1.31-14.25-2.39-21.39-3.53s-14.29-2.1-21.43-3.05-14.28-2.11-21.47-2.57a197.38,197.38,0,0,0-21.63-.43,3.62,3.62,0,0,0-.53,7.16,194.72,194.72,0,0,0,21.44,2.81C127.78,351.28,135,351.2,142.21,351.32Z"/><path class="cls-2" d="M167.65,449.75c6.58-3,13.17-5.93,19.69-9.08a.49.49,0,0,0,.26-.55.48.48,0,0,0-.58-.35c-7,1.71-14,3.62-21,5.48s-13.9,3.89-20.82,5.93-13.91,3.88-20.66,6.38A196.11,196.11,0,0,0,104.63,466a3.62,3.62,0,0,0,2.42,6.76,196.21,196.21,0,0,0,20.74-6.16c6.81-2.35,13.37-5.37,20-8.18S161.08,452.74,167.65,449.75Z"/><path class="cls-2" d="M396.86,611.14S393,568.28,392,559.72a.48.48,0,0,0-1,0c-.51,8.61-1.82,51.62-1.82,51.62-.17,8.6-.57,17.21-.19,25.79s.78,17.17,2,25.73a3.61,3.61,0,0,0,7.17-.22c.68-8.61.56-17.2.43-25.79S397.55,619.72,396.86,611.14Z"/><path class="cls-2" d="M507.49,612.47c-3.05-6.52-6.74-12.73-10.23-19s-7-12.62-10.66-18.84-7.28-12.48-11.1-18.63a.48.48,0,0,0-.86.41c2.44,6.82,5.06,13.54,7.65,20.29s5.32,13.42,8.07,20.09,5.31,13.42,8.51,19.87a195.31,195.31,0,0,0,10.44,19,3.62,3.62,0,0,0,6.47-3.11A198.74,198.74,0,0,0,507.49,612.47Z"/><path class="cls-2" d="M295.87,486.76a.48.48,0,0,0-.67.06c-9.44,11.33-55.62,68.7-55.62,68.7-9.16,11.53-18.51,22.93-27.23,34.79S194.91,614,186.84,626.38a3.59,3.59,0,0,0,5.74,4.3c9.57-11.23,18.5-22.93,27.43-34.64S287.78,499.65,296,487.39A.47.47,0,0,0,295.87,486.76Z"/></g><path class="cls-2" d="M363,484a15.61,15.61,0,0,1-11.7-5.29l-75.82-86.17a15.58,15.58,0,1,1,23.4-20.59l62.78,71.34L474.36,283.61a15.59,15.59,0,1,1,25.47,18L375.75,477.37a15.6,15.6,0,0,1-11.9,6.58Z"/></svg>