<svg id="Layer_1" data-name="Layer 1" xmlns="http://www.w3.org/2000/svg" viewBox="0 0 347.37 369.28"><defs><style>.cls-1{fill:#4c1cd5;}</style></defs><title>Artboard 9 copy 4</title><path class="cls-1" d="M149.39,292.72l-2-.16a102.08,102.08,0,0,1-83.27-101c0-2.13.12-4.26.27-6.39l1.31,2.27a12.7,12.7,0,1,0,22-12.69L70.13,144.42a12.53,12.53,0,0,0-7.68-5.9,12.66,12.66,0,0,0-9.65,1.26l-30.46,17.6a12.69,12.69,0,0,0,2.18,23.31,12.52,12.52,0,0,0,9.67-.87c.29-.15.57-.31.85-.48l4.55-2.63A127.88,127.88,0,0,0,145.59,318l.37.06h1.6c.28,0,.57,0,.85,0a12.71,12.71,0,0,0,12.64-11.71A12.74,12.74,0,0,0,149.39,292.72Z"/><path class="cls-1" d="M220.57,104.39a12.69,12.69,0,0,0,0,25.38h35a12.14,12.14,0,0,0,6.71-2.07l.58-.38,1.09-.83.35-.31a12.81,12.81,0,0,0,3.94-9.11v-35a12.69,12.69,0,1,0-25.38,0V88A128.18,128.18,0,0,0,69.45,108.19l-.59.7a12.7,12.7,0,1,0,19.42,16.36c33.32-39.72,90.87-47.86,133.64-20.89Z"/><path class="cls-1" d="M295.18,191.52a128.45,128.45,0,0,0-8-44.78,12.69,12.69,0,1,0-23.78,8.87,103.09,103.09,0,0,1-49.74,127.62l.91-1.59A12.73,12.73,0,0,0,200.23,263a12.62,12.62,0,0,0-7.71,6l-17.33,30.41a12.71,12.71,0,0,0,4.7,17.33l30.41,17.38A12.72,12.72,0,1,0,223,312l-4.77-2.7A127.73,127.73,0,0,0,295.18,191.52Z"/></svg>