<svg xmlns="http://www.w3.org/2000/svg" width="31.74" height="23.151" viewBox="0 0 31.74 23.151">
  <g id="Group_18275" data-name="Group 18275" transform="translate(-622.457 -274.138)">
    <g id="Group_18213" data-name="Group 18213" transform="translate(629.94 276.521)">
      <path id="Path_18597" data-name="Path 18597" d="M648.243,291.195a.259.259,0,0,1-.13-.035l-4.571-2.642a.261.261,0,0,1-.095-.356l4.167-7.222a.26.26,0,0,1,.356-.1l4.571,2.642a.262.262,0,0,1,.1.356l-4.167,7.222a.262.262,0,0,1-.158.122A.257.257,0,0,1,648.243,291.195Zm-4.215-3,4.119,2.382,3.906-6.771-4.12-2.382Z" transform="translate(-643.412 -280.81)" fill="#1c335b"/>
    </g>
    <g id="Group_18214" data-name="Group 18214" transform="translate(627.741 283.028)">
      <path id="Path_18598" data-name="Path 18598" d="M644.558,305.293a.258.258,0,0,1-.13-.035l-7.044-4.071a.26.26,0,0,1-.1-.355l.961-1.668a.264.264,0,0,1,.158-.121.259.259,0,0,1,.2.026l7.045,4.071a.26.26,0,0,1,.1.356l-.963,1.668a.261.261,0,0,1-.158.121A.276.276,0,0,1,644.558,305.293Zm-6.688-4.427,6.593,3.811.7-1.217-6.595-3.811Z" transform="translate(-637.254 -299.033)" fill="#1c335b"/>
    </g>
    <g id="Group_18215" data-name="Group 18215" transform="translate(632.869 274.138)">
      <path id="Path_18599" data-name="Path 18599" d="M658.92,280.4a.262.262,0,0,1-.13-.035l-7.045-4.071a.261.261,0,0,1-.1-.356l.964-1.668a.257.257,0,0,1,.158-.121.261.261,0,0,1,.2.026l7.044,4.071a.261.261,0,0,1,.095.356l-.962,1.668a.259.259,0,0,1-.226.131Zm-6.689-4.427,6.594,3.811.7-1.217-6.593-3.811Z" transform="translate(-651.615 -274.138)" fill="#1c335b"/>
    </g>
    <g id="Group_18216" data-name="Group 18216" transform="translate(635.572 281.002)">
      <path id="Path_18600" data-name="Path 18600" d="M661.111,298.385a.259.259,0,0,1-.13-.035l-1.665-.961a.261.261,0,0,1-.1-.356l2.043-3.545a.26.26,0,0,1,.356-.1l1.666.963a.26.26,0,0,1,.1.356l-2.044,3.542a.259.259,0,0,1-.158.121A.253.253,0,0,1,661.111,298.385Zm-1.31-1.317,1.215.7,1.784-3.092-1.216-.7Z" transform="translate(-659.185 -293.358)" fill="#1c335b"/>
    </g>
    <g id="Group_18217" data-name="Group 18217" transform="translate(637.631 282.647)">
      <path id="Path_18601" data-name="Path 18601" d="M678.817,309.532h0a2.323,2.323,0,0,1-1.318-.4l-12.435-8.509a.26.26,0,0,1-.079-.345l1.258-2.179a.261.261,0,0,1,.339-.1l13.576,6.525a2.374,2.374,0,0,1,1.236,1.466,2.738,2.738,0,0,1-2.578,3.55Zm-13.26-9.206,12.236,8.373a1.805,1.805,0,0,0,1.023.312A2.217,2.217,0,0,0,680.7,307.9a2.259,2.259,0,0,0,.2-1.768,1.856,1.856,0,0,0-.964-1.15l-13.359-6.42Z" transform="translate(-664.951 -297.966)" fill="#1c335b"/>
    </g>
    <g id="Group_18218" data-name="Group 18218" transform="translate(645.943 287.008)">
      <path id="Path_18602" data-name="Path 18602" d="M691.017,315.934a.257.257,0,0,1-.147-.045l-2.531-1.732a.261.261,0,0,1-.078-.345l2.023-3.5a.261.261,0,0,1,.338-.105l2.761,1.328a.26.26,0,0,1,.113.365l-2.253,3.908a.257.257,0,0,1-.225.13Zm-2.185-2.071,2.1,1.437,1.972-3.422-2.291-1.1Z" transform="translate(-688.226 -310.177)" fill="#1c335b"/>
    </g>
    <g id="Group_18219" data-name="Group 18219" transform="translate(624.519 290.253)">
      <path id="Path_18603" data-name="Path 18603" d="M641.19,323.043h-12.7a.261.261,0,0,1-.261-.26v-3.257a.261.261,0,0,1,.261-.26h12.7a.26.26,0,0,1,.261.26v3.257A.26.26,0,0,1,641.19,323.043Zm-12.437-.521H640.93v-2.737H628.753Z" transform="translate(-628.232 -319.265)" fill="#1c335b"/>
    </g>
    <g id="Group_18220" data-name="Group 18220" transform="translate(622.457 293.51)">
      <path id="Path_18604" data-name="Path 18604" d="M639.541,332.165H622.717a.26.26,0,0,1-.26-.261v-3.257a.26.26,0,0,1,.26-.26h16.824a.261.261,0,0,1,.26.26V331.9A.261.261,0,0,1,639.541,332.165Zm-16.563-.521h16.3v-2.737h-16.3Z" transform="translate(-622.457 -328.387)" fill="#1c335b"/>
    </g>
  </g>
</svg>
