<svg xmlns="http://www.w3.org/2000/svg" width="22.117" height="28.516" viewBox="0 0 22.117 28.516">
  <g id="Group_18290" data-name="Group 18290" transform="translate(-875.362 -1029.638)">
    <path id="Path_9798" data-name="Path 9798" d="M881.342,1095.633v2.327h-.278c-.727,0-.454,0-1.182,0a2.128,2.128,0,0,0-2.188,2.188q-.005,6.544,0,13.089a2.123,2.123,0,0,0,2.167,2.177q6.559.005,13.118,0a2.126,2.126,0,0,0,2.167-2.178q0-6.544,0-13.089a2.128,2.128,0,0,0-2.188-2.186c-.9,0,.2,0-.7,0h-.343v-2.31c.094-.006.177-.017.26-.017.95,0-.1,0,.85,0a4.452,4.452,0,0,1,4.45,4.436q.016,6.631,0,13.263a4.447,4.447,0,0,1-4.392,4.406q-6.646.017-13.292,0a4.443,4.443,0,0,1-4.42-4.435q-.012-6.617,0-13.234a4.451,4.451,0,0,1,4.421-4.435C880.631,1095.628,880.473,1095.633,881.342,1095.633Z" transform="translate(0 -59.594)" fill="#25b0e5"/>
    <path id="Path_9799" data-name="Path 9799" d="M946.369,1044.764h1.894l-4.671,4.948-4.487-4.934h1.961v-.425q0-4.828,0-9.655a5.1,5.1,0,0,1,8.729-3.522,4.549,4.549,0,0,1,1.15,2.043c-.089-.119-.161-.22-.239-.315a2.53,2.53,0,0,0-2.773-.827,2.442,2.442,0,0,0-1.564,2.364c-.006,2.365,0,4.73,0,7.1Z" transform="translate(-57.561)" fill="#25b0e5"/>
  </g>
</svg>
