<svg xmlns="http://www.w3.org/2000/svg" xmlns:xlink="http://www.w3.org/1999/xlink" width="56.44" height="56.439" viewBox="0 0 56.44 56.439">
  <defs>
    <filter id="Path_1" x="0" y="0" width="56.44" height="56.439" filterUnits="userSpaceOnUse">
      <feOffset dy="3" input="SourceAlpha"/>
      <feGaussianBlur stdDeviation="3" result="blur"/>
      <feFlood flood-opacity="0.161"/>
      <feComposite operator="in" in2="blur"/>
      <feComposite in="SourceGraphic"/>
    </filter>
  </defs>
  <g id="Group_18291" data-name="Group 18291" transform="translate(9 6)">
    <g transform="matrix(1, 0, 0, 1, -9, -6)" filter="url(#Path_1)">
      <path id="Path_1-2" data-name="Path 1" d="M7.271,3h29.9A4.284,4.284,0,0,1,41.44,7.271v29.9a4.284,4.284,0,0,1-4.271,4.271H7.271A4.284,4.284,0,0,1,3,37.169V7.271A4.284,4.284,0,0,1,7.271,3ZM30.762,32.9A2.142,2.142,0,0,0,32.9,30.762V20.084a2.136,2.136,0,0,0-4.271,0V30.762A2.142,2.142,0,0,0,30.762,32.9Zm-8.542,0a2.142,2.142,0,0,0,2.136-2.136V13.678a2.136,2.136,0,1,0-4.271,0V30.762A2.142,2.142,0,0,0,22.22,32.9Zm-8.542,0a2.142,2.142,0,0,0,2.136-2.136V26.491a2.136,2.136,0,0,0-4.271,0v4.271A2.142,2.142,0,0,0,13.678,32.9Z" transform="translate(6 3)" fill="#25b0e5"/>
    </g>
  </g>
</svg>
