<svg xmlns="http://www.w3.org/2000/svg" xmlns:xlink="http://www.w3.org/1999/xlink" width="290.893" height="243.275" viewBox="0 0 290.893 243.275">
  <defs>
    <clipPath id="clip-path">
      <path id="Path_15448" data-name="Path 15448" d="M.121,7.016A4.244,4.244,0,0,1,3.244,1.889l.3-.075L10.227.192l.307-.073a4.183,4.183,0,0,1,2.04,8.112L5.319,10.12l-.069.019a4.3,4.3,0,0,1-1.006.12A4.247,4.247,0,0,1,.121,7.016" fill="#989898"/>
    </clipPath>
    <clipPath id="clip-path-2">
      <path id="Path_15449" data-name="Path 15449" d="M.408,9.105A4.072,4.072,0,0,1,2.3,3.663l.268-.131,6.2-3L9.039.4a4.012,4.012,0,0,1,3.552,7.2L5.91,10.966,5.85,11A4.07,4.07,0,0,1,.408,9.105" fill="#989898"/>
    </clipPath>
    <clipPath id="clip-path-3">
      <path id="Path_15474" data-name="Path 15474" d="M8.352,11.8,1.991,7.83A4.237,4.237,0,0,1,6.423.609l.268.165,5.885,3.55.288.173.036.022A4.294,4.294,0,1,1,8.352,11.8" fill="none"/>
    </clipPath>
    <linearGradient id="linear-gradient" x1="-86.262" y1="-14.239" x2="-86.165" y2="-14.239" gradientUnits="objectBoundingBox">
      <stop offset="0" stop-color="#008aed"/>
      <stop offset="0.082" stop-color="#0e7eee"/>
      <stop offset="0.718" stop-color="#7d23fa"/>
      <stop offset="1" stop-color="#a0f"/>
    </linearGradient>
    <clipPath id="clip-path-4">
      <path id="Path_15475" data-name="Path 15475" d="M9.967,11.075,2.9,8.528A4.394,4.394,0,0,1,5.823.239l.309.108,6.484,2.227.331.115a.22.22,0,0,1,.041.016,4.449,4.449,0,1,1-3.02,8.37" fill="none"/>
    </clipPath>
    <linearGradient id="linear-gradient-2" x1="-82.628" y1="-16.429" x2="-82.537" y2="-16.429" xlink:href="#linear-gradient"/>
    <clipPath id="clip-path-5">
      <path id="Path_15476" data-name="Path 15476" d="M11.365,9.882Q7.634,9.447,3.91,8.951A4.495,4.495,0,0,1,5.043.034l.331.041q3.4.419,6.8.888l.336.048a4.473,4.473,0,0,1-.619,8.9,4.256,4.256,0,0,1-.524-.031" fill="none"/>
    </clipPath>
    <linearGradient id="linear-gradient-3" x1="-84.617" y1="-19.744" x2="-84.524" y2="-19.744" xlink:href="#linear-gradient"/>
    <clipPath id="clip-path-6">
      <path id="Path_15444" data-name="Path 15444" d="M0,82.9a82.9,82.9,0,1,1,82.9,82.9A82.9,82.9,0,0,1,0,82.9" transform="translate(0 0)" fill="none"/>
    </clipPath>
    <linearGradient id="linear-gradient-4" x1="-5.675" y1="0.031" x2="-5.668" y2="0.031" gradientUnits="objectBoundingBox">
      <stop offset="0" stop-color="#e2e1e6"/>
      <stop offset="0.845" stop-color="#fff"/>
      <stop offset="1" stop-color="#fff"/>
    </linearGradient>
    <clipPath id="clip-path-7">
      <path id="Path_15445" data-name="Path 15445" d="M2.694,84.252A81.557,81.557,0,1,0,84.251,2.7,81.65,81.65,0,0,0,2.694,84.252M0,84.252A84.251,84.251,0,1,1,84.252,168.5,84.348,84.348,0,0,1,0,84.252" transform="translate(0 0)" fill="none"/>
    </clipPath>
    <linearGradient id="linear-gradient-5" x1="-5.576" y1="0.039" x2="-5.57" y2="0.039" gradientUnits="objectBoundingBox">
      <stop offset="0" stop-color="#fff"/>
      <stop offset="1" stop-color="#e6e6e6"/>
    </linearGradient>
    <clipPath id="clip-path-8">
      <path id="Path_15446" data-name="Path 15446" d="M0,102.416A102.531,102.531,0,0,1,102.416,0a4.492,4.492,0,0,1,0,8.984,93.432,93.432,0,1,0,0,186.863,4.491,4.491,0,1,1,0,8.983A102.532,102.532,0,0,1,0,102.416" fill="#989898"/>
    </clipPath>
    <clipPath id="clip-path-9">
      <path id="Path_15450" data-name="Path 15450" d="M.824,10.874A3.9,3.9,0,0,1,1.5,5.4l.223-.172L7.172.985,7.4.808A3.84,3.84,0,0,1,12.164,6.83L6.352,11.517c-.012.009-.041.03-.052.039a3.9,3.9,0,0,1-5.476-.682" fill="#989898"/>
    </clipPath>
    <clipPath id="clip-path-10">
      <path id="Path_15451" data-name="Path 15451" d="M1.321,12.231A3.719,3.719,0,0,1,.878,6.989l.175-.2L5.51,1.5l.176-.209A3.646,3.646,0,0,1,11.3,5.944l-4.69,5.788-.047.056a3.72,3.72,0,0,1-5.244.443" fill="#989898"/>
    </clipPath>
    <clipPath id="clip-path-11">
      <path id="Path_15452" data-name="Path 15452" d="M1.859,13.144A3.517,3.517,0,0,1,.415,8.386l.118-.225L3.8,2.046l.123-.228A3.441,3.441,0,0,1,10.021,5L6.649,11.635c-.008.016-.023.047-.033.062a3.518,3.518,0,0,1-4.757,1.446" transform="translate(0 0)" fill="#989898"/>
    </clipPath>
    <clipPath id="clip-path-12">
      <path id="Path_15453" data-name="Path 15453" d="M2.4,13.582A3.31,3.31,0,0,1,.128,9.491L.2,9.259,2.1,2.581l.067-.234A3.236,3.236,0,0,1,8.406,4.065l-1.893,7.18c-.006.016-.013.048-.017.064A3.308,3.308,0,0,1,2.4,13.582" fill="#989898"/>
    </clipPath>
    <clipPath id="clip-path-13">
      <path id="Path_15454" data-name="Path 15454" d="M2.914,13.557A3.113,3.113,0,0,1,.006,10.251l.015-.225L.47,3.08l.014-.226a3.055,3.055,0,0,1,6.1.349L6.22,10.6v.047a3.113,3.113,0,0,1-3.1,2.912c-.069,0-.136,0-.2-.006" fill="#989898"/>
    </clipPath>
    <clipPath id="clip-path-14">
      <path id="Path_15455" data-name="Path 15455" d="M1.1,10.636l-.031-.212-1-6.9L.03,3.308a2.895,2.895,0,0,1,5.723-.875L6.934,9.741l.006.044a2.954,2.954,0,0,1-2.5,3.349,3.063,3.063,0,0,1-.427.031A2.954,2.954,0,0,1,1.1,10.636" transform="translate(0 0)" fill="#989898"/>
    </clipPath>
    <clipPath id="clip-path-15">
      <path id="Path_15456" data-name="Path 15456" d="M2.754,10.617l-.07-.193L.243,3.882.171,3.689A2.735,2.735,0,0,1,5.283,1.741L7.973,8.625l.015.039a2.793,2.793,0,1,1-5.234,1.953" fill="#989898"/>
    </clipPath>
    <clipPath id="clip-path-16">
      <path id="Path_15457" data-name="Path 15457" d="M4.423,10.224l-.106-.161L.522,4.189l-.1-.161A2.612,2.612,0,0,1,4.8,1.182L8.835,7.354l.011.012a2.633,2.633,0,0,1-4.423,2.857" transform="translate(0 0)" fill="#989898"/>
    </clipPath>
    <clipPath id="clip-path-17">
      <path id="Path_15458" data-name="Path 15458" d="M5.951,9.583,5.819,9.45.879,4.5.746,4.364A2.558,2.558,0,0,1,4.36.744L9.59,5.935l.013.009A2.578,2.578,0,0,1,5.951,9.583" fill="#989898"/>
    </clipPath>
    <clipPath id="clip-path-18">
      <path id="Path_15459" data-name="Path 15459" d="M7.316,8.624l-.153-.1L1.294,4.7l-.156-.1A2.505,2.505,0,0,1,3.86.4l6.2,3.988.011.006A2.524,2.524,0,0,1,7.316,8.624" fill="#989898"/>
    </clipPath>
    <clipPath id="clip-path-19">
      <path id="Path_15460" data-name="Path 15460" d="M8.456,7.367,8.286,7.3,1.747,4.8,1.576,4.74A2.451,2.451,0,0,1,3.315.158l6.893,2.591.013.006a2.47,2.47,0,0,1-.881,4.777,2.444,2.444,0,0,1-.883-.165" transform="translate(0)" fill="#989898"/>
    </clipPath>
    <clipPath id="clip-path-20">
      <path id="Path_15461" data-name="Path 15461" d="M9.392,5.989l-.179-.026L2.285,4.935,2.107,4.91l-.014,0A2.467,2.467,0,1,1,2.843.029l7.279,1.12a2.447,2.447,0,0,1-.37,4.866,2.366,2.366,0,0,1-.36-.026" fill="#989898"/>
    </clipPath>
    <clipPath id="clip-path-21">
      <path id="Path_15487" data-name="Path 15487" d="M41.192,71.347,0,65.048,26.05,32.525,52.1,0s-.036,26.163,5.855,42.988c6.977,19.925,24.429,34.658,24.429,34.658Z" transform="translate(0 0)" fill="#fff"/>
    </clipPath>
  </defs>
  <g id="Group_18272" data-name="Group 18272" transform="matrix(0.052, -0.999, 0.999, 0.052, -4.608, 231.097)">
    <g id="Group_11464" data-name="Group 11464" transform="translate(0 51.52)">
      <g id="Group_11080" data-name="Group 11080" transform="translate(17.281 116.155) rotate(109)">
        <g id="Group_11079" data-name="Group 11079" transform="translate(0 0)" clip-path="url(#clip-path)">
          <rect id="Rectangle_13090" data-name="Rectangle 13090" width="16.583" height="10.677" transform="translate(-0.434 -0.418)" fill="#989898"/>
        </g>
      </g>
      <g id="Group_11082" data-name="Group 11082" transform="translate(18.115 137.376) rotate(109)">
        <g id="Group_11081" data-name="Group 11081" transform="translate(0 0)" clip-path="url(#clip-path-2)">
          <rect id="Rectangle_13091" data-name="Rectangle 13091" width="15.936" height="11.954" transform="translate(-0.573 -0.55)" fill="#989898"/>
        </g>
      </g>
      <g id="Group_11132" data-name="Group 11132" transform="translate(53.445 49.66) rotate(109)">
        <g id="Group_11131" data-name="Group 11131" transform="translate(0 0)" clip-path="url(#clip-path-3)">
          <rect id="Rectangle_13116" data-name="Rectangle 13116" width="16.112" height="13.054" transform="translate(-0.589 -0.599)" fill="url(#linear-gradient)"/>
        </g>
      </g>
      <g id="Group_11134" data-name="Group 11134" transform="translate(38.643 63.705) rotate(109)">
        <g id="Group_11133" data-name="Group 11133" transform="translate(0 0)" clip-path="url(#clip-path-4)">
          <rect id="Rectangle_13117" data-name="Rectangle 13117" width="17.04" height="11.89" transform="translate(-0.543 -0.548)" fill="url(#linear-gradient-2)"/>
        </g>
      </g>
      <g id="Group_11136" data-name="Group 11136" transform="translate(27.091 80.613) rotate(109)">
        <g id="Group_11135" data-name="Group 11135" transform="translate(0 0)" clip-path="url(#clip-path-5)">
          <rect id="Rectangle_13118" data-name="Rectangle 13118" width="16.877" height="10.182" transform="translate(-0.266 -0.269)" fill="url(#linear-gradient-3)"/>
        </g>
      </g>
      <g id="Group_11072" data-name="Group 11072" transform="translate(212.466 77.551) rotate(109)">
        <g id="Group_11071" data-name="Group 11071" transform="translate(0 0)" clip-path="url(#clip-path-6)">
          <rect id="Rectangle_13086" data-name="Rectangle 13086" width="234.486" height="234.485" transform="translate(82.902 -82.902) rotate(45)" fill="url(#linear-gradient-4)"/>
        </g>
      </g>
      <g id="Group_11074" data-name="Group 11074" transform="translate(214.18 76.716) rotate(109)">
        <g id="Group_11073" data-name="Group 11073" transform="translate(0 0)" clip-path="url(#clip-path-7)">
          <rect id="Rectangle_13087" data-name="Rectangle 13087" width="238.298" height="238.297" transform="translate(84.25 -84.251) rotate(45)" fill="url(#linear-gradient-5)"/>
        </g>
      </g>
      <g id="Group_11076" data-name="Group 11076" transform="translate(237.609 66.686) rotate(109)">
        <g id="Group_11075" data-name="Group 11075" transform="translate(0 0)" clip-path="url(#clip-path-8)">
          <rect id="Rectangle_13088" data-name="Rectangle 13088" width="106.909" height="204.83" transform="translate(0 0)" fill="#989898"/>
        </g>
      </g>
      <g id="Group_11084" data-name="Group 11084" transform="translate(23.144 158.154) rotate(109)">
        <g id="Group_11083" data-name="Group 11083" transform="translate(0 0)" clip-path="url(#clip-path-9)">
          <rect id="Rectangle_13092" data-name="Rectangle 13092" width="14.576" height="12.854" transform="translate(-0.5 -0.475)" fill="#989898"/>
        </g>
      </g>
      <g id="Group_11086" data-name="Group 11086" transform="translate(32.08 177.578) rotate(109)">
        <g id="Group_11085" data-name="Group 11085" transform="translate(0 0)" clip-path="url(#clip-path-10)">
          <rect id="Rectangle_13093" data-name="Rectangle 13093" width="13.018" height="13.547" transform="translate(-0.448 -0.437)" fill="#989898"/>
        </g>
      </g>
      <g id="Group_11088" data-name="Group 11088" transform="translate(44.54 194.831) rotate(109)">
        <g id="Group_11087" data-name="Group 11087" transform="translate(0 0)" clip-path="url(#clip-path-11)">
          <rect id="Rectangle_13094" data-name="Rectangle 13094" width="11.382" height="14.033" transform="translate(-0.499 -0.476)" fill="#989898"/>
        </g>
      </g>
      <g id="Group_11090" data-name="Group 11090" transform="translate(59.995 209.116) rotate(109)">
        <g id="Group_11089" data-name="Group 11089" transform="translate(0 0)" clip-path="url(#clip-path-12)">
          <rect id="Rectangle_13095" data-name="Rectangle 13095" width="9.237" height="14.052" transform="translate(-0.374 -0.342)" fill="#989898"/>
        </g>
      </g>
      <g id="Group_11092" data-name="Group 11092" transform="translate(77.771 219.781) rotate(109)">
        <g id="Group_11091" data-name="Group 11091" transform="translate(0 0)" clip-path="url(#clip-path-13)">
          <rect id="Rectangle_13096" data-name="Rectangle 13096" width="6.768" height="13.642" transform="translate(-0.103 -0.079)" fill="#989898"/>
        </g>
      </g>
      <g id="Group_11094" data-name="Group 11094" transform="translate(97.414 225.367) rotate(109)">
        <g id="Group_11093" data-name="Group 11093" transform="translate(0 0)" clip-path="url(#clip-path-14)">
          <rect id="Rectangle_13097" data-name="Rectangle 13097" width="7.371" height="13.383" transform="translate(-0.196 -0.218)" fill="#989898"/>
        </g>
      </g>
      <g id="Group_11096" data-name="Group 11096" transform="translate(117.822 226.191) rotate(109)">
        <g id="Group_11095" data-name="Group 11095" transform="translate(0 0)" clip-path="url(#clip-path-15)">
          <rect id="Rectangle_13098" data-name="Rectangle 13098" width="8.873" height="12.796" transform="translate(-0.346 -0.362)" fill="#989898"/>
        </g>
      </g>
      <g id="Group_11098" data-name="Group 11098" transform="translate(137.973 222.635) rotate(109)">
        <g id="Group_11097" data-name="Group 11097" transform="translate(0 0)" clip-path="url(#clip-path-16)">
          <rect id="Rectangle_13099" data-name="Rectangle 13099" width="9.995" height="11.792" transform="translate(-0.361 -0.364)" fill="#989898"/>
        </g>
      </g>
      <g id="Group_11100" data-name="Group 11100" transform="translate(156.998 214.874) rotate(109)">
        <g id="Group_11099" data-name="Group 11099" transform="translate(0 0)" clip-path="url(#clip-path-17)">
          <rect id="Rectangle_13100" data-name="Rectangle 13100" width="10.856" height="10.594" transform="translate(-0.251 -0.253)" fill="#989898"/>
        </g>
      </g>
      <g id="Group_11102" data-name="Group 11102" transform="translate(173.982 203.306) rotate(109)">
        <g id="Group_11101" data-name="Group 11101" transform="translate(0 0)" clip-path="url(#clip-path-18)">
          <rect id="Rectangle_13101" data-name="Rectangle 13101" width="11.918" height="9.38" transform="translate(-0.348 -0.35)" fill="#989898"/>
        </g>
      </g>
      <g id="Group_11104" data-name="Group 11104" transform="translate(188.155 188.422) rotate(109)">
        <g id="Group_11103" data-name="Group 11103" transform="translate(0 0)" clip-path="url(#clip-path-19)">
          <rect id="Rectangle_13102" data-name="Rectangle 13102" width="12.45" height="7.852" transform="translate(-0.318 -0.319)" fill="#989898"/>
        </g>
      </g>
      <g id="Group_11106" data-name="Group 11106" transform="translate(198.958 170.82) rotate(109)">
        <g id="Group_11105" data-name="Group 11105" transform="translate(0 0)" clip-path="url(#clip-path-20)">
          <rect id="Rectangle_13103" data-name="Rectangle 13103" width="12.548" height="6.195" transform="translate(-0.178 -0.18)" fill="#989898"/>
        </g>
      </g>
    </g>
    <g id="Group_11161" data-name="Group 11161" transform="translate(161.468 25.279) rotate(109)">
      <g id="Group_11160" data-name="Group 11160" transform="translate(0 0)" opacity="0.22" clip-path="url(#clip-path-21)">
        <rect id="Rectangle_13130" data-name="Rectangle 13130" width="82.383" height="77.646" transform="translate(0 0)" fill="#fff"/>
      </g>
    </g>
  </g>
</svg>
