<svg xmlns="http://www.w3.org/2000/svg" width="73.396" height="65.367" viewBox="0 0 73.396 65.367">
  <g id="Group_18266" data-name="Group 18266" transform="translate(-88.664 -400.423)">
    <g id="Group_18131" data-name="Group 18131" transform="translate(93.616 447.838)">
      <path id="Path_18273" data-name="Path 18273" d="M104.725,475.792H95.264a.6.6,0,0,1-.6-.6v-16.75a.6.6,0,0,1,.6-.6h9.461a.6.6,0,0,1,.6.6v16.75A.6.6,0,0,1,104.725,475.792Zm-8.859-1.2h8.256V459.044H95.866Z" transform="translate(-94.661 -457.84)" fill="#4bb051"/>
    </g>
    <g id="Group_18132" data-name="Group 18132" transform="translate(111.223 424.045)">
      <path id="Path_18274" data-name="Path 18274" d="M126.049,470.773h-9.465a.6.6,0,0,1-.6-.6V429.63a.6.6,0,0,1,.6-.6h9.465a.6.6,0,0,1,.6.6v40.542A.6.6,0,0,1,126.049,470.773Zm-8.862-1.2h8.26V430.232h-8.26Z" transform="translate(-115.982 -429.028)" fill="#4bb051"/>
    </g>
    <g id="Group_18133" data-name="Group 18133" transform="translate(128.831 428.896)">
      <path id="Path_18275" data-name="Path 18275" d="M147.372,471.8h-9.465a.6.6,0,0,1-.6-.6V435.5a.6.6,0,0,1,.6-.6h9.465a.6.6,0,0,1,.6.6v35.69A.6.6,0,0,1,147.372,471.8Zm-8.862-1.2h8.26V436.106h-8.26Z" transform="translate(-137.304 -434.902)" fill="#4bb051"/>
    </g>
    <g id="Group_18134" data-name="Group 18134" transform="translate(146.439 417.659)">
      <path id="Path_18276" data-name="Path 18276" d="M168.693,469.426h-9.465a.6.6,0,0,1-.6-.6V421.9a.6.6,0,0,1,.6-.6h9.465a.6.6,0,0,1,.6.6v46.928A.6.6,0,0,1,168.693,469.426Zm-8.863-1.2h8.261V422.5H159.83Z" transform="translate(-158.627 -421.295)" fill="#4bb051"/>
    </g>
    <g id="Group_18135" data-name="Group 18135" transform="translate(136.847 405.016)">
      <path id="Path_18277" data-name="Path 18277" d="M147.616,419.255a.6.6,0,0,1-.348-1.095l17.117-12.066a.6.6,0,1,1,.694.983l-17.117,12.067A.6.6,0,0,1,147.616,419.255Z" transform="translate(-147.012 -405.985)" fill="#4bb051"/>
    </g>
    <g id="Group_18136" data-name="Group 18136" transform="translate(117.428 410.555)">
      <path id="Path_18278" data-name="Path 18278" d="M138.512,420.836a.6.6,0,0,1-.261-.06l-14.415-6.939a.6.6,0,0,1,.523-1.085l14.414,6.938a.6.6,0,0,1-.261,1.146Z" transform="translate(-123.495 -412.692)" fill="#4bb051"/>
    </g>
    <g id="Group_18137" data-name="Group 18137" transform="translate(95.455 411.102)">
      <path id="Path_18279" data-name="Path 18279" d="M97.49,428.114a.6.6,0,0,1-.375-1.075l17.068-13.554a.6.6,0,0,1,.749.943L97.865,427.982A.6.6,0,0,1,97.49,428.114Z" transform="translate(-96.888 -413.354)" fill="#4bb051"/>
    </g>
    <g id="Group_18138" data-name="Group 18138" transform="translate(90.263 423.556)">
      <path id="Path_18280" data-name="Path 18280" d="M94.115,435.469a3.517,3.517,0,1,1,3.514-3.515A3.518,3.518,0,0,1,94.115,435.469Zm0-5.828a2.312,2.312,0,1,0,2.309,2.314A2.315,2.315,0,0,0,94.115,429.641Z" transform="translate(-90.6 -428.436)" fill="#4bb051"/>
    </g>
    <g id="Group_18139" data-name="Group 18139" transform="translate(111.894 406.373)">
      <path id="Path_18281" data-name="Path 18281" d="M120.308,414.661a3.517,3.517,0,1,1,3.513-3.519A3.521,3.521,0,0,1,120.308,414.661Zm0-5.828a2.312,2.312,0,1,0,2.308,2.31A2.312,2.312,0,0,0,120.308,408.833Z" transform="translate(-116.794 -407.628)" fill="#4bb051"/>
    </g>
    <g id="Group_18140" data-name="Group 18140" transform="translate(131.557 415.847)">
      <path id="Path_18282" data-name="Path 18282" d="M144.119,426.133a3.516,3.516,0,1,1,3.513-3.52A3.521,3.521,0,0,1,144.119,426.133Zm0-5.827a2.311,2.311,0,1,0,2.309,2.307A2.311,2.311,0,0,0,144.119,420.306Z" transform="translate(-140.605 -419.101)" fill="#4bb051"/>
    </g>
    <g id="Group_18141" data-name="Group 18141" transform="translate(153.43 400.423)">
      <path id="Path_18283" data-name="Path 18283" d="M170.609,407.46a3.518,3.518,0,1,1,3.513-3.518A3.52,3.52,0,0,1,170.609,407.46Zm0-5.833a2.314,2.314,0,1,0,2.309,2.315A2.316,2.316,0,0,0,170.609,401.627Z" transform="translate(-167.093 -400.423)" fill="#4bb051"/>
    </g>
    <g id="Group_18142" data-name="Group 18142" transform="translate(88.664 464.586)">
      <path id="Path_18284" data-name="Path 18284" d="M161.459,479.325H89.266a.6.6,0,1,1,0-1.2h72.193a.6.6,0,1,1,0,1.2Z" transform="translate(-88.664 -478.121)" fill="#4bb051"/>
    </g>
  </g>
</svg>
