<svg xmlns="http://www.w3.org/2000/svg" width="78.931" height="80.388" viewBox="0 0 78.931 80.388">
  <g id="Group_18265" data-name="Group 18265" transform="translate(-46.953 -147.016)">
    <path id="Path_18264" data-name="Path 18264" d="M70.541,185.937l-.115-.027q-.068-4-.062-7.994a4.94,4.94,0,0,1,3.06,1.8.923.923,0,0,0,.779.417,1.031,1.031,0,0,0,.9-.523.8.8,0,0,0-.075-.858,7.138,7.138,0,0,0-4.664-2.672l0-1.994a.879.879,0,0,0-.247-.64.966.966,0,0,0-.685-.271.9.9,0,0,0-.943.908l0,1.812-.257,0a11.712,11.712,0,0,0-1.815.139l0-1.8a.869.869,0,0,0-.25-.638.965.965,0,0,0-.685-.272.9.9,0,0,0-.938.91l0,2.252c-2.417.844-3.968,2.423-4.376,4.452-.517,2.578,1.579,4.644,3.887,5.547a4.909,4.909,0,0,0,.47.151l-.016,7.546a5.19,5.19,0,0,1-3.372-3.513.933.933,0,0,0-.905-.64.992.992,0,0,0-.807.39.824.824,0,0,0-.087.766c1.008,2.895,2.606,4.444,5.168,5l-.009,4.544a.874.874,0,0,0,.25.638.965.965,0,0,0,.685.272.9.9,0,0,0,.938-.91l.008-4.335.042.037c.179.006.364.008.551.008a15.75,15.75,0,0,0,1.88-.109l.023.593c.048,1.222.1,2.444.154,3.666a.942.942,0,0,0,.975.9.927.927,0,0,0,.676-.271.849.849,0,0,0,.222-.644c-.07-1.451-.126-2.9-.183-4.355l-.009-.253c2.481-.691,4.012-2.1,4.429-4.074C75.776,188.876,73.289,186.728,70.541,185.937Zm3.071,5.32c-.111,1.333-1.99,2.217-2.988,2.6q-.1-3.008-.167-6.019a.827.827,0,0,1,.075.037C72.663,189.057,73.7,190.2,73.612,191.257Zm-5.249-5.738c-.56-.081-1.12-.164-1.684-.29l-.276-.064.012-7.242a9.759,9.759,0,0,1,2.021-.209l.055,0q0,3.916.058,7.832ZM66.4,186.983l.61.07c.527.059,1.053.119,1.565.2q.07,3.563.2,7.125a7.589,7.589,0,0,1-1.12.148c-.151.006-.3.009-.448.009-.281,0-.554-.011-.822-.028Zm-1.855-8.428-.012,6.055c-1.426-.542-2.277-1.236-2.528-2.063a3.007,3.007,0,0,1,.766-2.609A4.75,4.75,0,0,1,64.542,178.555Z" transform="translate(6.911 14.659)" fill="#2c3e51"/>
    <path id="Path_18265" data-name="Path 18265" d="M66.859,209.307a29.2,29.2,0,0,0,6.927.889h0a19.1,19.1,0,0,0,16.07-8.024c5.214-7,4.962-17.182-.623-25.345a21.237,21.237,0,0,0-17.395-8.945,20.6,20.6,0,0,0-4.564.509c-9.414,2.152-16.753,11.983-16.361,21.926C51.991,199.173,58.846,207.336,66.859,209.307Zm8.061-.755c-3.57-.033-10.212-.669-14.587-4.564-3.946-3.509-6.98-9.019-7.55-13.695-.4-10.124,7.773-19.7,17.487-20.484.543-.045,1.083-.066,1.615-.066,9.444,0,17.432,6.911,19.422,16.808a19.791,19.791,0,0,1-4.145,16.02,15.588,15.588,0,0,1-12.24,5.981Z" transform="translate(2.211 11.695)" fill="#2c3e51"/>
    <path id="Path_18266" data-name="Path 18266" d="M125.758,212.849c-.05-.78-.1-1.545-.112-2.27-.076-4.241-.064-7.988.037-11.452.076-2.628-.02-5.293-.114-7.871-.067-1.835-.133-3.667-.158-5.432a.918.918,0,0,0,.023-.8l0-.654c0-.52,0-1.039.02-1.557.239-5.613.261-11.682.069-19.1-.023-.913.03-2,.086-3.143.2-3.968.438-8.906-2.266-11.365-2.118-1.922-5.551-2.146-7.951-2.146-1.406,0-2.846.091-4.117.17-.982.061-1.9.119-2.712.13q-1.365.021-2.731.02c-2.824,0-5.646-.058-8.469-.116s-5.647-.114-8.473-.114c-.648,0-2.118.011-2.118.011-.593,0-1.3-.028-2.068-.059-.938-.037-1.976-.078-3.04-.078-3.55,0-8.373.434-9.255,4.2a24.448,24.448,0,0,0-.24,6.476c.045.961.09,1.9.086,2.768l-.009,1.468c-.025,3.779-.05,7.687.151,11.532-9.53.836-18.3,6.2-22.366,13.684-5.224,9.616-3.717,21.421,3.845,30.073A29.577,29.577,0,0,0,76.127,227.4a28.275,28.275,0,0,0,5.162-.476,24.84,24.84,0,0,0,11.551-5.563.978.978,0,0,0,.287.045c2.946.041,5.889.12,8.831.2,4.045.109,8.228.222,12.35.226.665,0,1.443.061,2.277.126.986.076,2.007.156,3.026.156h0c2.208,0,5.229-.346,5.961-3.325A20.072,20.072,0,0,0,125.758,212.849Zm-7.369,7.337c-.685,0-1.389-.056-2.085-.112s-1.356-.109-2-.111c-4.135,0-8.334-.115-12.395-.223-2.391-.064-4.783-.128-7.177-.17a24.816,24.816,0,0,0,4.269-6.083l.016.023q1.06-.026,2.119-.025c2.963,0,5.975.137,8.887.268s5.925.27,8.892.27c1.784,0,3.4-.048,4.95-.148l.017.811c.058,3.3-1.173,4.911-4.118,5.4A8.489,8.489,0,0,1,118.39,220.186ZM99.826,211.63a23.113,23.113,0,0,0,1.564-6.524c5.549-.02,11.182-.187,16.633-.346q2.867-.084,5.736-.162l-.034.044c-.006,2.4.047,4.787.1,7.18l0,.184c-1.543.1-3.163.147-4.947.147-2.952,0-5.955-.136-8.857-.265s-5.916-.265-8.878-.265Q100.486,211.621,99.826,211.63Zm.991-15.2c1.679.084,3.467.126,5.457.126,2.845,0,5.749-.087,8.556-.169s5.7-.169,8.525-.169h.415q-.021,3.254-.034,6.5-2.86.075-5.716.162c-5.426.159-11.034.323-16.555.345l0-.173c.008-.175.014-.348.009-.524A37.93,37.93,0,0,0,100.817,196.431Zm22.964-2.082-.418,0c-2.84,0-5.744.086-8.553.17s-5.719.17-8.567.17c-2.135,0-4.045-.048-5.831-.147a30.865,30.865,0,0,0-2.97-7.628q1.84.03,3.678.028h0c5.984,0,12.066-.211,17.944-.415l4.764-.162Q123.811,190.358,123.781,194.35Zm.052-9.857-5.033.173c-5.816.2-11.83.415-17.749.415q-2.324,0-4.649-.047h-.009a.508.508,0,0,0-.108.012,26.19,26.19,0,0,0-7.456-7.412q3.024.012,6.048.034c3.227.019,6.456.041,9.683.041l1.4,0c2.411,0,4.875-.09,7.256-.175,2.447-.086,4.978-.175,7.457-.175q1.585,0,3.163.055Q123.849,180.951,123.832,184.492Zm-.011-8.952c-1.049-.037-2.1-.053-3.154-.053-2.484,0-5.017.087-7.467.173-2.378.084-4.836.17-7.241.173l-1.266,0c-3.21,0-6.42-.022-9.63-.044-3.1-.022-6.2-.042-9.308-.044-.091,0-.164.022-.15.059a30.008,30.008,0,0,0-5.1-1.891,26.094,26.094,0,0,0-5.571-.585c-.222,0-.443,0-.666.008-.08-1.576-.128-3.236-.145-5.067,2.647-.245,5.473-.36,8.876-.36,2.795,0,5.644.08,8.4.156,2.74.076,5.572.154,8.331.154l1.615-.006c2.684,0,5.443.154,8.111.3,2.686.151,5.463.307,8.183.307a51.772,51.772,0,0,0,6.112-.326l.009.512c.036,2.163.047,4.326.059,6.487Zm-6.424-8.528c-2.773,0-5.615-.169-8.361-.332s-5.565-.329-8.316-.329c-.368,0-.733,0-1.1.009-.665.011-1.333.016-2,.016-2.57,0-5.2-.076-7.745-.15s-5.195-.151-7.787-.151c-3.043,0-5.583.1-7.976.323q0-2.224.012-4.449c0-.768-.041-1.637-.094-2.544,1.659-.061,3.461-.092,5.505-.092,2,0,4.006.028,6.008.056s4.006.055,6.008.055h0c3.408,0,6.192-.083,8.762-.261,1.456-.1,3.01-.15,4.755-.15,2.178,0,4.4.076,6.541.151s4.362.151,6.54.151c2,0,3.776-.066,5.419-.2.028,1.687.144,7.529.144,7.529A49.249,49.249,0,0,1,117.4,167.012Zm.79-9.57c-2.174,0-4.388-.078-6.529-.151s-4.363-.154-6.546-.154c-1.765,0-3.341.051-4.814.156-2.561.179-5.337.264-8.735.264-2.016,0-4.035-.028-6.053-.058s-4.042-.056-6.062-.056c-2.046,0-3.851.03-5.513.092a17.951,17.951,0,0,1,.27-5.014c.811-3.154,3-3.2,5.54-3.254.446-.008.9-.019,1.351-.045,1.788-.109,3.706-.173,5.863-.2l1.42-.008c2.951,0,5.867.09,8.581.189,1.125.041,2.255.058,3.385.058,1.891,0,3.786-.045,5.682-.089s3.787-.087,5.679-.087c2.444,0,4.469.073,6.375.231,4.845.4,5.365,3.815,5.463,7.927C121.918,157.378,120.164,157.441,118.187,157.441ZM80.016,175.724c13.782,3.725,22.316,17.9,19.024,31.606a23.418,23.418,0,0,1-23.121,18.225,26.493,26.493,0,0,1-7.437-1.08c-10.961-3.2-21.508-14.611-19.434-27.464,1.217-7.535,4.322-12.566,10.388-16.823a26.022,26.022,0,0,1,15.1-5.068A25.687,25.687,0,0,1,80.016,175.724Z" transform="translate(0 0)" fill="#2c3e51"/>
    <path id="Path_18267" data-name="Path 18267" d="M59.394,174.3a.948.948,0,0,0-.612.226,14.484,14.484,0,0,0-5.15,9.246.973.973,0,0,0,.233.785,1.1,1.1,0,0,0,.8.373.753.753,0,0,0,.777-.7,12.912,12.912,0,0,1,4.638-8.358.779.779,0,0,0,.27-.9A1.044,1.044,0,0,0,59.394,174.3Z" transform="translate(3.738 15.291)" fill="#2c3e51"/>
    <path id="Path_18268" data-name="Path 18268" d="M59.166,173.138a.873.873,0,0,0-.683.3.977.977,0,0,0-.226.638.893.893,0,0,0,.91.935.868.868,0,0,0,.683-.3.972.972,0,0,0,.226-.638A.9.9,0,0,0,59.166,173.138Z" transform="translate(6.335 14.641)" fill="#2c3e51"/>
    <path id="Path_18269" data-name="Path 18269" d="M69.3,149.426H69.28a6.128,6.128,0,0,0-3.363,1.425,4.3,4.3,0,0,0-1.033,3.506.974.974,0,0,0,1.646.63.851.851,0,0,0,.226-.646c-.034-.869-.072-1.768.662-2.311a5.15,5.15,0,0,1,2.319-.791.758.758,0,0,0,.7-.843A1.059,1.059,0,0,0,69.3,149.426Z" transform="translate(10.044 1.351)" fill="#2c3e51"/>
    <path id="Path_18270" data-name="Path 18270" d="M70,148.83a.872.872,0,0,0-.683.3.972.972,0,0,0-.226.638.9.9,0,0,0,.91.936.871.871,0,0,0,.683-.3.972.972,0,0,0,.226-.638A.893.893,0,0,0,70,148.83Z" transform="translate(12.409 1.017)" fill="#2c3e51"/>
  </g>
</svg>
