<svg id="Group_18277" data-name="Group 18277" xmlns="http://www.w3.org/2000/svg" width="35.747" height="30.172" viewBox="0 0 35.747 30.172">
  <path id="Path_9471" data-name="Path 9471" d="M-826.6,1626.659c-.565-.553-1.086-1.074-1.619-1.583a1.109,1.109,0,0,1-.391-1.281,1.162,1.162,0,0,1,1.164-.741l5.343-.248c.331-.015.663-.05.994-.051a1.157,1.157,0,0,1,1.268,1.383c-.1,1.755-.179,3.512-.269,5.268-.017.331-.034.663-.065.994a1.2,1.2,0,0,1-.834,1.073,1.034,1.034,0,0,1-1.161-.346c-.536-.558-1.081-1.107-1.643-1.681-.132.125-.229.214-.323.307l-13.7,13.7a1.835,1.835,0,0,1-2.923,0q-2.583-2.583-5.164-5.168a3.429,3.429,0,0,1-.27-.359c-.165.155-.271.249-.371.349-1.81,1.808-3.639,3.6-5.418,5.436a1.9,1.9,0,0,1-2.88-.013,1.874,1.874,0,0,1-.665-1.835,2.214,2.214,0,0,1,.51-.914q3.687-3.748,7.411-7.461a1.782,1.782,0,0,1,2.63.006q2.684,2.665,5.35,5.347a2.915,2.915,0,0,1,.242.328Z" transform="translate(855.582 -1622.755)" fill="#fdfdfd"/>
  <path id="Path_9472" data-name="Path 9472" d="M-582.085,1721.948a.738.738,0,0,1,.414.773q-.015,9.355-.006,18.711c0,.739-.18.925-.9.924q-2.011,0-4.023,0c-.566,0-.786-.212-.787-.772q0-7.067.006-14.135a.6.6,0,0,1,.133-.392q2.541-2.547,5.1-5.076A.21.21,0,0,1-582.085,1721.948Z" transform="translate(613.786 -1712.185)" fill="#fdfdfd"/>
  <path id="Path_9473" data-name="Path 9473" d="M-663.171,1799.065q0,.38,0,.76,0,5.552,0,11.1c0,.766-.163.929-.927.929q-1.992,0-3.984,0c-.638,0-.847-.208-.847-.833q0-3.062.005-6.124a.6.6,0,0,1,.127-.388c.591-.59,1.209-1.153,1.8-1.741,1.248-1.238,2.486-2.487,3.727-3.731Z" transform="translate(687.304 -1781.689)" fill="#fdfdfd"/>
  <path id="Path_9474" data-name="Path 9474" d="M-825.233,1819.784c0,2.034,0,3.962,0,5.89q0,1.991,0,3.982c0,.722-.186.9-.921.9l-3.945,0c-.655,0-.867-.208-.867-.852q0-2.562,0-5.124v-.423a4.459,4.459,0,0,0,2.988-1.619C-827.111,1821.628-826.2,1820.752-825.233,1819.784Z" transform="translate(833.39 -1800.392)" fill="#fdfdfd"/>
  <path id="Path_9475" data-name="Path 9475" d="M-749.391,1819.377c.774.779,1.5,1.48,2.19,2.212a4.756,4.756,0,0,0,3.465,1.933c.01.158.024.266.024.374q0,2.728,0,5.456c0,.646-.194.84-.829.841q-2.083,0-4.166,0a.621.621,0,0,1-.708-.7q-.005-4.922,0-9.844C-749.416,1819.592-749.406,1819.534-749.391,1819.377Z" transform="translate(759.866 -1800.025)" fill="#fdfdfd"/>
</svg>
