<svg xmlns="http://www.w3.org/2000/svg" width="26.134" height="23.275" viewBox="0 0 26.134 23.275">
  <g id="Group_18273" data-name="Group 18273" transform="translate(-88.664 -400.423)">
    <g id="Group_18185" data-name="Group 18185" transform="translate(90.427 417.306)">
      <path id="Path_18571" data-name="Path 18571" d="M98.244,464.232H94.876a.214.214,0,0,1-.215-.214v-5.964a.214.214,0,0,1,.215-.214h3.369a.215.215,0,0,1,.214.214v5.964A.214.214,0,0,1,98.244,464.232ZM95.09,463.8h2.94v-5.535H95.09Z" transform="translate(-94.661 -457.84)" fill="#1c335b"/>
    </g>
    <g id="Group_18186" data-name="Group 18186" transform="translate(96.696 408.834)">
      <path id="Path_18572" data-name="Path 18572" d="M119.567,443.892H116.2a.215.215,0,0,1-.214-.214V429.242a.214.214,0,0,1,.214-.214h3.37a.214.214,0,0,1,.215.214v14.435A.214.214,0,0,1,119.567,443.892Zm-3.156-.429h2.941V429.457h-2.941Z" transform="translate(-115.982 -429.028)" fill="#1c335b"/>
    </g>
    <g id="Group_18187" data-name="Group 18187" transform="translate(102.966 410.561)">
      <path id="Path_18573" data-name="Path 18573" d="M140.889,448.039h-3.37a.214.214,0,0,1-.215-.214V435.117a.215.215,0,0,1,.215-.215h3.37a.215.215,0,0,1,.214.215v12.708A.214.214,0,0,1,140.889,448.039Zm-3.156-.429h2.941V435.331h-2.941Z" transform="translate(-137.304 -434.902)" fill="#1c335b"/>
    </g>
    <g id="Group_18188" data-name="Group 18188" transform="translate(109.236 406.56)">
      <path id="Path_18574" data-name="Path 18574" d="M162.211,438.433h-3.37a.214.214,0,0,1-.214-.214V421.509a.214.214,0,0,1,.214-.214h3.37a.214.214,0,0,1,.214.214v16.709A.214.214,0,0,1,162.211,438.433ZM159.055,438H162v-16.28h-2.942Z" transform="translate(-158.627 -421.295)" fill="#1c335b"/>
    </g>
    <g id="Group_18189" data-name="Group 18189" transform="translate(105.82 402.058)">
      <path id="Path_18575" data-name="Path 18575" d="M147.227,410.71a.215.215,0,0,1-.124-.39l6.095-4.3a.214.214,0,0,1,.247.35l-6.095,4.3A.214.214,0,0,1,147.227,410.71Z" transform="translate(-147.012 -405.985)" fill="#1c335b"/>
    </g>
    <g id="Group_18190" data-name="Group 18190" transform="translate(98.906 404.031)">
      <path id="Path_18576" data-name="Path 18576" d="M128.842,415.592a.213.213,0,0,1-.093-.021l-5.133-2.471a.214.214,0,0,1,.186-.386l5.132,2.47a.215.215,0,0,1-.093.408Z" transform="translate(-123.495 -412.692)" fill="#1c335b"/>
    </g>
    <g id="Group_18191" data-name="Group 18191" transform="translate(91.082 404.225)">
      <path id="Path_18577" data-name="Path 18577" d="M97.1,418.61a.215.215,0,0,1-.133-.383l6.077-4.826a.214.214,0,0,1,.267.336l-6.077,4.826A.214.214,0,0,1,97.1,418.61Z" transform="translate(-96.888 -413.354)" fill="#1c335b"/>
    </g>
    <g id="Group_18192" data-name="Group 18192" transform="translate(89.233 408.66)">
      <path id="Path_18578" data-name="Path 18578" d="M91.851,430.94a1.252,1.252,0,1,1,1.251-1.251A1.253,1.253,0,0,1,91.851,430.94Zm0-2.075a.823.823,0,1,0,.822.824A.824.824,0,0,0,91.851,428.865Z" transform="translate(-90.6 -428.436)" fill="#1c335b"/>
    </g>
    <g id="Group_18193" data-name="Group 18193" transform="translate(96.935 402.542)">
      <path id="Path_18579" data-name="Path 18579" d="M118.045,410.132a1.252,1.252,0,1,1,1.251-1.253A1.254,1.254,0,0,1,118.045,410.132Zm0-2.075a.823.823,0,1,0,.822.822A.823.823,0,0,0,118.045,408.057Z" transform="translate(-116.794 -407.628)" fill="#1c335b"/>
    </g>
    <g id="Group_18194" data-name="Group 18194" transform="translate(103.936 405.915)">
      <path id="Path_18580" data-name="Path 18580" d="M141.856,421.6a1.252,1.252,0,1,1,1.251-1.253A1.254,1.254,0,0,1,141.856,421.6Zm0-2.075a.823.823,0,1,0,.822.822A.823.823,0,0,0,141.856,419.53Z" transform="translate(-140.605 -419.101)" fill="#1c335b"/>
    </g>
    <g id="Group_18195" data-name="Group 18195" transform="translate(111.725 400.423)">
      <path id="Path_18581" data-name="Path 18581" d="M168.345,402.928a1.253,1.253,0,1,1,1.251-1.253A1.253,1.253,0,0,1,168.345,402.928Zm0-2.077a.824.824,0,1,0,.822.824A.825.825,0,0,0,168.345,400.852Z" transform="translate(-167.093 -400.423)" fill="#1c335b"/>
    </g>
    <g id="Group_18196" data-name="Group 18196" transform="translate(88.664 423.269)">
      <path id="Path_18582" data-name="Path 18582" d="M114.583,478.55H88.878a.214.214,0,0,1,0-.429h25.705a.214.214,0,1,1,0,.429Z" transform="translate(-88.664 -478.121)" fill="#1c335b"/>
    </g>
  </g>
</svg>
