<svg xmlns="http://www.w3.org/2000/svg" width="75.677" height="49.329" viewBox="0 0 75.677 49.329">
  <g id="Group_5056" data-name="Group 5056" opacity="0.108">
    <path id="Path_8162" data-name="Path 8162" d="M950.939,126.377v4.191c-3.938,2.154-7.751,3.842-11.074,6.217-1.759,1.257-2.665,3.708-4.134,5.884,1.365.517,2.208.857,3.065,1.158a16.261,16.261,0,0,1,10.767,18.735c-1.7,7.872-9.258,13.585-17.05,12.881a16.47,16.47,0,0,1-15.155-15.84c-.7-16.867,15.243-33.476,32.1-33.428A12.177,12.177,0,0,1,950.939,126.377Z" transform="translate(-875.262 -126.177)" fill="#787878"/>
    <path id="Path_8163" data-name="Path 8163" d="M1010.531,126.226v5.313c-7.082.842-12.284,4.157-14.882,11.25,1.12.357,2.009.617,2.883.922a16.219,16.219,0,0,1,10.612,18.8,16.466,16.466,0,0,1-16.752,12.809,16.252,16.252,0,0,1-15.237-14.912C975.66,142.756,992.735,125.075,1010.531,126.226Z" transform="translate(-977.063 -126.027)" fill="#787878"/>
  </g>
</svg>
