<svg xmlns="http://www.w3.org/2000/svg" width="38.802" height="43.441" viewBox="0 0 38.802 43.441">
  <g id="Group_18269" data-name="Group 18269" transform="translate(-6513 15049.339)">
    <g id="Group_18175" data-name="Group 18175" transform="translate(6522.407 -15049.339)">
      <path id="Path_18560" data-name="Path 18560" d="M671.344,163.28a10,10,0,1,1,9.991-10A10.008,10.008,0,0,1,671.344,163.28Zm0-17.378a7.375,7.375,0,1,0,7.361,7.375A7.379,7.379,0,0,0,671.344,145.9Z" transform="translate(-661.352 -143.274)" fill="#fff"/>
    </g>
    <g id="Group_18176" data-name="Group 18176" transform="translate(6513 -15026.536)">
      <path id="Path_18561" data-name="Path 18561" d="M693.62,176.565H657.445a1.315,1.315,0,0,1-1.312-1.316c0-5.95,2.109-10.962,6.094-14.491a20.729,20.729,0,0,1,26.607,0c3.956,3.5,6.063,8.464,6.092,14.356a1.142,1.142,0,0,1,.009.135A1.316,1.316,0,0,1,693.62,176.565Zm-34.82-2.63h33.461c-.64-10.558-8.97-15.38-16.733-15.38S659.44,163.377,658.8,173.935Z" transform="translate(-656.133 -155.926)" fill="#fff"/>
    </g>
  </g>
</svg>
