<svg xmlns="http://www.w3.org/2000/svg" width="25.018" height="28.315" viewBox="0 0 25.018 28.315">
  <g id="Group_18274" data-name="Group 18274" transform="translate(-629.855 -662.416)">
    <g id="Group_18198" data-name="Group 18198" transform="translate(629.855 662.416)">
      <path id="Path_18583" data-name="Path 18583" d="M652.629,690.731H632.1a2.248,2.248,0,0,1-2.244-2.247V664.662a2.248,2.248,0,0,1,2.244-2.246h20.53a2.247,2.247,0,0,1,2.244,2.246v23.823A2.248,2.248,0,0,1,652.629,690.731ZM632.1,662.908a1.755,1.755,0,0,0-1.751,1.753v23.823a1.755,1.755,0,0,0,1.751,1.755h20.53a1.755,1.755,0,0,0,1.751-1.755V664.662a1.755,1.755,0,0,0-1.751-1.753Z" transform="translate(-629.855 -662.416)" fill="#1c335b"/>
    </g>
    <g id="Group_18199" data-name="Group 18199" transform="translate(632.08 665.69)">
      <path id="Path_18584" data-name="Path 18584" d="M656.764,679.877H636.69a.247.247,0,0,1-.247-.247v-7.273a.247.247,0,0,1,.247-.247h20.075a.246.246,0,0,1,.246.247v7.273A.246.246,0,0,1,656.764,679.877Zm-19.828-.493h19.583V672.6H636.936Z" transform="translate(-636.443 -672.111)" fill="#1c335b"/>
    </g>
    <g id="Group_18200" data-name="Group 18200" transform="translate(632.852 675.327)">
      <path id="Path_18585" data-name="Path 18585" d="M642.882,703.5h-3.905a.246.246,0,0,1-.246-.246v-2.364a.247.247,0,0,1,.246-.247h3.905a.246.246,0,0,1,.246.247v2.364A.246.246,0,0,1,642.882,703.5Zm-3.659-.492h3.413v-1.872h-3.413Z" transform="translate(-638.731 -700.648)" fill="#1c335b"/>
    </g>
    <g id="Group_18201" data-name="Group 18201" transform="translate(640.165 675.327)">
      <path id="Path_18586" data-name="Path 18586" d="M664.537,703.5H660.63a.246.246,0,0,1-.246-.246v-2.364a.247.247,0,0,1,.246-.247h3.907a.247.247,0,0,1,.246.247v2.364A.246.246,0,0,1,664.537,703.5Zm-3.66-.492h3.414v-1.872h-3.414Z" transform="translate(-660.384 -700.648)" fill="#1c335b"/>
    </g>
    <g id="Group_18202" data-name="Group 18202" transform="translate(647.477 675.327)">
      <path id="Path_18587" data-name="Path 18587" d="M686.188,703.5h-3.906a.246.246,0,0,1-.247-.246v-2.364a.247.247,0,0,1,.247-.247h3.906a.247.247,0,0,1,.247.247v2.364A.246.246,0,0,1,686.188,703.5Zm-3.66-.492h3.414v-1.872h-3.414Z" transform="translate(-682.035 -700.648)" fill="#1c335b"/>
    </g>
    <g id="Group_18203" data-name="Group 18203" transform="translate(632.852 679.966)">
      <path id="Path_18588" data-name="Path 18588" d="M642.882,717.24h-3.905a.247.247,0,0,1-.246-.247v-2.364a.246.246,0,0,1,.246-.246h3.905a.246.246,0,0,1,.246.246v2.364A.246.246,0,0,1,642.882,717.24Zm-3.659-.493h3.413v-1.872h-3.413Z" transform="translate(-638.731 -714.383)" fill="#1c335b"/>
    </g>
    <g id="Group_18204" data-name="Group 18204" transform="translate(640.165 679.966)">
      <path id="Path_18589" data-name="Path 18589" d="M664.537,717.24H660.63a.247.247,0,0,1-.246-.247v-2.364a.246.246,0,0,1,.246-.246h3.907a.246.246,0,0,1,.246.246v2.364A.246.246,0,0,1,664.537,717.24Zm-3.66-.493h3.414v-1.872h-3.414Z" transform="translate(-660.384 -714.383)" fill="#1c335b"/>
    </g>
    <g id="Group_18205" data-name="Group 18205" transform="translate(647.477 679.966)">
      <path id="Path_18590" data-name="Path 18590" d="M686.188,721.876h-3.906a.246.246,0,0,1-.247-.246v-7a.246.246,0,0,1,.247-.246h3.906a.246.246,0,0,1,.247.246v7A.246.246,0,0,1,686.188,721.876Zm-3.66-.492h3.414v-6.508h-3.414Z" transform="translate(-682.035 -714.383)" fill="#1c335b"/>
    </g>
    <g id="Group_18206" data-name="Group 18206" transform="translate(632.852 684.602)">
      <path id="Path_18591" data-name="Path 18591" d="M642.882,730.968h-3.905a.246.246,0,0,1-.246-.246v-2.364a.247.247,0,0,1,.246-.247h3.905a.246.246,0,0,1,.246.247v2.364A.246.246,0,0,1,642.882,730.968Zm-3.659-.492h3.413V728.6h-3.413Z" transform="translate(-638.731 -728.111)" fill="#1c335b"/>
    </g>
    <g id="Group_18207" data-name="Group 18207" transform="translate(640.165 684.602)">
      <path id="Path_18592" data-name="Path 18592" d="M664.537,730.968H660.63a.246.246,0,0,1-.246-.246v-2.364a.247.247,0,0,1,.246-.247h3.907a.247.247,0,0,1,.246.247v2.364A.246.246,0,0,1,664.537,730.968Zm-3.66-.492h3.414V728.6h-3.414Z" transform="translate(-660.384 -728.111)" fill="#1c335b"/>
    </g>
    <g id="Group_18209" data-name="Group 18209" transform="translate(634.169 666.871)">
      <path id="Path_18594" data-name="Path 18594" d="M643.965,681.01c-.762,0-1.336-1.161-1.336-2.7s.574-2.7,1.336-2.7,1.337,1.162,1.337,2.7S644.728,681.01,643.965,681.01Zm0-4.911c-.352,0-.843.841-.843,2.209s.491,2.209.843,2.209c.4,0,.844-.945.844-2.209S644.364,676.1,643.965,676.1Z" transform="translate(-642.629 -675.607)" fill="#1c335b"/>
    </g>
    <g id="Group_18210" data-name="Group 18210" transform="translate(638.394 666.871)">
      <path id="Path_18595" data-name="Path 18595" d="M656.477,681.01c-.762,0-1.336-1.161-1.336-2.7s.574-2.7,1.336-2.7,1.336,1.162,1.336,2.7S657.239,681.01,656.477,681.01Zm0-4.911c-.4,0-.843.945-.843,2.209s.445,2.209.843,2.209.843-.945.843-2.209S656.875,676.1,656.477,676.1Z" transform="translate(-655.141 -675.607)" fill="#1c335b"/>
    </g>
    <g id="Group_18211" data-name="Group 18211" transform="translate(642.618 666.871)">
      <path id="Path_18596" data-name="Path 18596" d="M668.984,681.01c-.762,0-1.336-1.161-1.336-2.7s.574-2.7,1.336-2.7,1.336,1.162,1.336,2.7S669.745,681.01,668.984,681.01Zm0-4.911c-.4,0-.844.945-.844,2.209s.445,2.209.844,2.209.843-.945.843-2.209S669.381,676.1,668.984,676.1Z" transform="translate(-667.648 -675.607)" fill="#1c335b"/>
    </g>
  </g>
</svg>
