<svg xmlns="http://www.w3.org/2000/svg" width="44.854" height="44.854" viewBox="0 0 44.854 44.854">
  <g id="Group_15" data-name="Group 15" transform="translate(0 44.854) rotate(-90)">
    <g id="Rectangle_4" data-name="Rectangle 4" transform="translate(0 0)" fill="none" stroke="#c2c2c2" stroke-width="0.8">
      <rect width="44.854" height="44.854" rx="22.427" stroke="none"/>
      <rect x="0.4" y="0.4" width="44.054" height="44.054" rx="22.027" fill="none"/>
    </g>
    <g id="Group_12" data-name="Group 12" transform="translate(13.618 12.693)">
      <path id="Path_11" data-name="Path 11" d="M238.9,619.873Z" transform="translate(-221.26 -617.694)" fill="#a7a7a7"/>
      <path id="Path_12" data-name="Path 12" d="M18.759,2.324a2.708,2.708,0,0,1-.785.1l.014-.083a6.439,6.439,0,0,0,1.576-1.8c.059-.2-.011-.273-.011-.28L18.236.821l-1.1.5h0A4.4,4.4,0,0,0,13.933,0,3.914,3.914,0,0,0,9.784,3.626a5.4,5.4,0,0,0,.169,1.368c0,.1,0-.105,0,0A12.944,12.944,0,0,1,4.9,3.495C1.581,1.812,1.373.647,1.373.647a4.532,4.532,0,0,0-.262,3.827,4.77,4.77,0,0,0,1.5,1.747h0a3.517,3.517,0,0,1-1.066-.174A2.356,2.356,0,0,1,.8,5.679c-.325.791.326,2.2,1.45,3.215A5.95,5.95,0,0,0,4.1,9.855l-1.87.053c-.105,1.817,3.811,2.9,3.811,2.9h0a6.4,6.4,0,0,1-3.907,1.42A7.434,7.434,0,0,1,0,13.912,10.174,10.174,0,0,0,6.945,16.4c6.992-.367,10.94-6.378,11.127-12.281l.009.012a4.916,4.916,0,0,0,1.028-.864,7.261,7.261,0,0,0,1.136-1.52S19.2,2.2,18.759,2.324Z" transform="translate(16.412) rotate(90)" fill="#fff"/>
      <path id="Path_13" data-name="Path 13" d="M238.9,619.874c0,.112,0,.011,0,0Z" transform="translate(-221.26 -617.695)" fill="#a7a7a7"/>
    </g>
  </g>
</svg>
