<svg xmlns="http://www.w3.org/2000/svg" width="23.889" height="23.889" viewBox="0 0 23.889 23.889">
  <g id="Group_18261" data-name="Group 18261" transform="translate(-73 -25.654)" opacity="0.88">
    <path id="ic_language_24px" d="M13.932,2A11.944,11.944,0,1,0,25.888,13.944,11.938,11.938,0,0,0,13.932,2ZM22.21,9.167H18.686a18.692,18.692,0,0,0-1.648-4.252A9.591,9.591,0,0,1,22.21,9.167Zm-8.265-4.73a16.826,16.826,0,0,1,2.281,4.73H11.663A16.826,16.826,0,0,1,13.944,4.437ZM4.7,16.333a9.343,9.343,0,0,1,0-4.778H8.737a19.726,19.726,0,0,0-.167,2.389,19.726,19.726,0,0,0,.167,2.389Zm.979,2.389H9.2a18.691,18.691,0,0,0,1.648,4.252,9.54,9.54,0,0,1-5.172-4.252ZM9.2,9.167H5.679a9.54,9.54,0,0,1,5.172-4.252A18.692,18.692,0,0,0,9.2,9.167Zm4.742,14.285a16.826,16.826,0,0,1-2.281-4.73h4.563A16.826,16.826,0,0,1,13.944,23.452Zm2.795-7.119h-5.59a17.573,17.573,0,0,1-.191-2.389,17.421,17.421,0,0,1,.191-2.389h5.59a17.421,17.421,0,0,1,.191,2.389A17.574,17.574,0,0,1,16.739,16.333Zm.3,6.641a18.692,18.692,0,0,0,1.648-4.252H22.21A9.591,9.591,0,0,1,17.038,22.974Zm2.114-6.641a19.727,19.727,0,0,0,.167-2.389,19.727,19.727,0,0,0-.167-2.389h4.037a9.343,9.343,0,0,1,0,4.778Z" transform="translate(71 23.654)" fill="#fff"/>
  </g>
</svg>
