<svg xmlns="http://www.w3.org/2000/svg" width="13.472" height="12.457" viewBox="0 0 13.472 12.457">
  <path id="Path_18668" data-name="Path 18668" d="M201.449,318.8c-.335-.165-1.962-.963-2.266-1.07s-.526-.165-.747.164-.861,1.07-1.051,1.284-.386.247-.722.083A8.96,8.96,0,0,1,194,317.629a9.842,9.842,0,0,1-1.842-2.272c-.19-.329-.019-.507.146-.671s.33-.386.5-.575c.045-.057.083-.108.12-.158a3.706,3.706,0,0,0,.209-.393.6.6,0,0,0-.025-.576c-.083-.164-.747-1.785-1.025-2.443s-.551-.545-.747-.545-.412-.031-.633-.031a1.226,1.226,0,0,0-.886.412,3.682,3.682,0,0,0-1.158,2.747,4.2,4.2,0,0,0,.171,1.121,7.469,7.469,0,0,0,1.184,2.278c.164.215,2.291,3.645,5.658,4.968s3.374.873,3.981.816a3.308,3.308,0,0,0,2.234-1.563,2.719,2.719,0,0,0,.2-1.564C202,319.046,201.778,318.964,201.449,318.8Z" transform="translate(-188.658 -309.964)" fill="#6ed7ff" fill-rule="evenodd"/>
</svg>
