<svg xmlns="http://www.w3.org/2000/svg" width="16.554" height="15.25" viewBox="0 0 16.554 15.25">
  <path id="Path_18672" data-name="Path 18672" d="M2397.216,946.34a3.858,3.858,0,0,1,.144-.58,5.044,5.044,0,0,1,1.439-2.131,7.577,7.577,0,0,1,2.119-1.35,7.858,7.858,0,0,1,1.521-.476,7.3,7.3,0,0,1,1.282-.146,2.589,2.589,0,0,1,.345,0c.167.01.333.022.5.036a6.366,6.366,0,0,1,.987.169,6.9,6.9,0,0,1,1.737.689,6.263,6.263,0,0,1,1.558,1.222,5.241,5.241,0,0,1,.933,1.4,4.363,4.363,0,0,1,.34,1.165h1.813c0-.129-.025-.254-.036-.382a4.278,4.278,0,0,0-.161-.83,5.693,5.693,0,0,0-.6-1.37,7.153,7.153,0,0,0-.955-1.239c-.1-.111-.219-.21-.33-.315q-.243-.228-.505-.429a8.883,8.883,0,0,0-.957-.638,8.71,8.71,0,0,0-1.3-.624l-.4-.156a5.094,5.094,0,0,0,2.183-3.971.511.511,0,0,1,.012-.177.124.124,0,0,1-.016-.083,3.568,3.568,0,0,0-.051-.723,4.836,4.836,0,0,0-.231-.926,5.072,5.072,0,0,0-1.021-1.714,4.873,4.873,0,0,0-.814-.728,5.257,5.257,0,0,0-1.491-.731,5.356,5.356,0,0,0-1.395-.214c-.109,0-.218.012-.326.012a3.118,3.118,0,0,0-.477.043,5.37,5.37,0,0,0-1.13.3,4.939,4.939,0,0,0-1.534.956,5.021,5.021,0,0,0-1.269,1.793,5.161,5.161,0,0,0-.394,1.68,4.559,4.559,0,0,0,.01.683,5.7,5.7,0,0,0,.156.916,5.09,5.09,0,0,0,1.293,2.269,5.259,5.259,0,0,0,.625.538l-.079.026a9.555,9.555,0,0,0-1.743.766,8.218,8.218,0,0,0-1.781,1.352,6.83,6.83,0,0,0-1.043,1.345,5.481,5.481,0,0,0-.754,2.222c-.011.116-.021.23-.026.346Zm3.394-8.669a3.828,3.828,0,0,1-.235-.823c-.021-.114-.021-.231-.038-.347,0-.015.01-.032.014-.047a1.87,1.87,0,0,1,0-.349,3.288,3.288,0,0,1,.387-1.41,3.391,3.391,0,0,1,.77-.981,3.35,3.35,0,0,1,.815-.537,3.311,3.311,0,0,1,1.041-.3,3.419,3.419,0,0,1,2.489.631,3.437,3.437,0,0,1,.833.856,3.287,3.287,0,0,1,.507,1.164,3.09,3.09,0,0,1,.088.6.983.983,0,0,1,0,.383,3.476,3.476,0,0,1-1.182,2.434,3.444,3.444,0,0,1-2.572.858,3.358,3.358,0,0,1-1.119-.288,3.515,3.515,0,0,1-1.174-.852A3.37,3.37,0,0,1,2400.61,937.672Z" transform="translate(-2395.381 -931.09)" fill="#fff"/>
</svg>
