<svg xmlns="http://www.w3.org/2000/svg" width="24.769" height="22.819" viewBox="0 0 24.769 22.819">
  <path id="Path_18667" data-name="Path 18667" d="M2398.126,953.909a5.646,5.646,0,0,1,.216-.867,7.55,7.55,0,0,1,2.153-3.188,11.342,11.342,0,0,1,3.171-2.02,11.766,11.766,0,0,1,2.276-.712,10.894,10.894,0,0,1,1.917-.219,3.9,3.9,0,0,1,.518,0c.25.015.5.032.747.055a9.524,9.524,0,0,1,1.477.252,10.314,10.314,0,0,1,2.6,1.032,9.377,9.377,0,0,1,2.331,1.828,7.836,7.836,0,0,1,1.4,2.1,6.513,6.513,0,0,1,.509,1.743h2.713c0-.193-.038-.381-.053-.571a6.4,6.4,0,0,0-.242-1.241,8.525,8.525,0,0,0-.9-2.049,10.765,10.765,0,0,0-1.429-1.854c-.157-.166-.328-.315-.5-.471a9.825,9.825,0,0,0-.755-.642,13.284,13.284,0,0,0-1.432-.955,13.063,13.063,0,0,0-1.952-.934c-.2-.077-.4-.157-.6-.234a7.619,7.619,0,0,0,3.266-5.942.787.787,0,0,1,.019-.264.185.185,0,0,1-.023-.124,5.355,5.355,0,0,0-.076-1.082,7.219,7.219,0,0,0-.346-1.386,7.575,7.575,0,0,0-1.528-2.564,7.275,7.275,0,0,0-1.218-1.09,7.845,7.845,0,0,0-2.232-1.093,8.007,8.007,0,0,0-2.086-.32c-.164-.005-.327.018-.488.018a4.672,4.672,0,0,0-.714.064,8.043,8.043,0,0,0-1.692.452,7.394,7.394,0,0,0-2.3,1.431,7.526,7.526,0,0,0-1.9,2.683,7.745,7.745,0,0,0-.59,2.514,6.74,6.74,0,0,0,.015,1.022,8.511,8.511,0,0,0,.233,1.371,7.609,7.609,0,0,0,1.935,3.4,7.874,7.874,0,0,0,.936.805c-.05.015-.084.027-.118.038a14.273,14.273,0,0,0-2.608,1.146,12.3,12.3,0,0,0-2.665,2.023,10.236,10.236,0,0,0-1.561,2.013,8.2,8.2,0,0,0-1.128,3.325c-.017.173-.032.345-.04.518Zm5.078-12.971a5.7,5.7,0,0,1-.352-1.232c-.031-.17-.031-.346-.056-.519,0-.022.014-.047.021-.071a2.822,2.822,0,0,1,0-.522,4.918,4.918,0,0,1,.579-2.11,5.06,5.06,0,0,1,1.152-1.468,5.158,5.158,0,0,1,2.778-1.254,5.115,5.115,0,0,1,3.723.944,5.143,5.143,0,0,1,1.247,1.281,4.913,4.913,0,0,1,.757,1.741,4.55,4.55,0,0,1,.132.893,1.463,1.463,0,0,1,0,.573,5.2,5.2,0,0,1-1.768,3.642,5.154,5.154,0,0,1-3.848,1.284,5.025,5.025,0,0,1-1.674-.431,5.261,5.261,0,0,1-1.757-1.275A5.021,5.021,0,0,1,2403.2,940.938Z" transform="translate(-2395.381 -931.09)" fill="#25b0e5"/>
</svg>
