<svg xmlns="http://www.w3.org/2000/svg" width="39" height="40" viewBox="0 0 39 40">
  <path id="Subtraction_4" data-name="Subtraction 4" d="M34,40H5a5.006,5.006,0,0,1-5-5V5A5.006,5.006,0,0,1,5,0H34a5.006,5.006,0,0,1,5,5V35A5.006,5.006,0,0,1,34,40ZM30.888,29.344,29.2,32.256l-.43.743h4.208l-.08-.156c-.06-.117-.112-.218-.168-.315-.375-.65-.752-1.3-1.142-1.972l-.011-.019Zm-14.543-2.5-2.12,3.672h4.243l-1.184-2.048Zm6.449-6.76h0l1.74,1.667.03.028L30.852,27.8l1.009-.957.153-.145-4.6-4.417-.145-.139-4.386-4.208-1.79,1.473-.055.045-4.6,3.787L12.323,19.3l-4.175-4-.894.87L7,16.413l2.314,2.221,7.033,6.752c2.163-1.782,4.284-3.527,6.446-5.306Zm7.133-.442h0c.54,0,.982,0,1.391.009h.023a.5.5,0,0,0,.37-.107.51.51,0,0,0,.108-.376q0-2.172,0-4.344c0-2.514,0-5.111-.016-7.665,0-.172-.214-.49-.332-.492-.926-.022-1.853-.024-2.637-.024H26.983v13h.94l1,0ZM14.616,6.63a.629.629,0,0,0-.452.1.452.452,0,0,0-.1.332c.009,2.516.012,5.075.014,7.549v.012q0,1.654,0,3.308a.348.348,0,0,0,.031.119c.009.024.019.051.029.082h4.743c0-.073.01-.143.016-.21.012-.145.022-.278.022-.41q0-1.53,0-3.06c0-2.341,0-4.761.013-7.142a.754.754,0,0,0-.142-.558.632.632,0,0,0-.472-.136h-.063c-.462.014-.96.021-1.567.021-.382,0-.77,0-1.144-.005Zm8.739,9.014c.539,0,.954,0,1.347.015h.066a.627.627,0,0,0,.472-.132.682.682,0,0,0,.134-.5c-.016-1.825-.014-3.68-.012-5.475q0-1.178,0-2.351c0-.029,0-.058,0-.088a.529.529,0,0,0-.081-.387.363.363,0,0,0-.272-.087H20.534V15.6l.291.018c.207.014.4.027.6.027h.342l.82,0H22.6ZM10.476,6.635c-.728,0-1.591,0-2.47.019a.542.542,0,0,0-.366.39c-.02,1.559-.019,3.09-.018,4.71q0,.549,0,1.1h4.815V6.637H10.476Z" transform="translate(39 40) rotate(180)" fill="#131b2d"/>
</svg>
