<svg xmlns="http://www.w3.org/2000/svg" width="64.939" height="70.645" viewBox="0 0 64.939 70.645">
  <g id="Group_18267" data-name="Group 18267" transform="translate(-81.623 -104.372)">
    <path id="Path_18285" data-name="Path 18285" d="M96.092,120.969a.92.92,0,1,0,1.84,0,5.134,5.134,0,0,0-4.208-5.04v-3.44a.92.92,0,1,0-1.84,0v3.44a5.124,5.124,0,0,0,0,10.085v6.523a3.292,3.292,0,0,1-2.373-3.146.92.92,0,0,0-1.84,0,5.142,5.142,0,0,0,4.213,5.045v3.44a.92.92,0,1,0,1.84,0v-3.44a5.125,5.125,0,0,0,0-10.085v-6.523A3.288,3.288,0,0,1,96.092,120.969Zm-6.582,0a3.287,3.287,0,0,1,2.373-3.142v6.288A3.288,3.288,0,0,1,89.511,120.969Zm6.582,8.421a3.294,3.294,0,0,1-2.369,3.146v-6.288A3.288,3.288,0,0,1,96.092,129.391Z" transform="translate(21.291 25.329)" fill="#4c1cd5"/>
    <path id="Path_18286" data-name="Path 18286" d="M126.876,124.361c-.19-.1-.371-.217-.551-.334a22.847,22.847,0,0,0,2.468-1.126c7.608.6,11.247,3.562,11.287,3.594a.905.905,0,0,0,.6.222.922.922,0,0,0,.6-1.623c-.181-.149-3.413-2.816-10.121-3.784a4.528,4.528,0,0,0,1.682-3c.244-2.9-3.255-4.828-3.4-4.909a.92.92,0,0,0-.877,1.618c.723.393,2.568,1.727,2.45,3.146-.054.61-.533,1.645-2.635,2.866a40.1,40.1,0,0,0-5.036.032,10.744,10.744,0,0,1-1.537-8.2l1.6-7.382a.9.9,0,0,0-.181-.773.922.922,0,0,0-.714-.344H109.952a.92.92,0,0,0,0,1.84h11.4L120,112.482a12.629,12.629,0,0,0,1.266,8.715c-8.412.411-12.173-1.772-13.276-2.6a12.638,12.638,0,0,0,.2-6.116l-1.6-7.386a.919.919,0,0,0-1.795.393l1.6,7.382a10.592,10.592,0,0,1-5.081,11.491c-11.776,6.518-19.686,20.31-19.686,29.1,0,11.889,14.565,21.558,32.47,21.558a44.937,44.937,0,0,0,18.014-3.6.92.92,0,1,0-.746-1.682,43.1,43.1,0,0,1-17.268,3.445c-16.888,0-30.63-8.842-30.63-19.718,0-8.1,7.694-21.372,18.737-27.484a12.117,12.117,0,0,0,1.7-1.153,21.7,21.7,0,0,0,9.231,1.889,35.709,35.709,0,0,0,11.1-1.93,11.856,11.856,0,0,0,1.754,1.193c11.043,6.111,18.737,19.388,18.737,27.484,0,5.275-3.214,10.234-9.059,13.977a.918.918,0,0,0,.5,1.691.908.908,0,0,0,.5-.145c6.387-4.086,9.9-9.6,9.9-15.523C146.563,144.671,138.652,130.879,126.876,124.361Zm-21.54-.913a12.3,12.3,0,0,0,1.989-3.065c1.849,1.216,6.315,3.209,15.121,2.581.095.122.2.244.3.362C116.118,125.351,110.024,125.392,105.337,123.448Z" transform="translate(0 0)" fill="#4c1cd5"/>
  </g>
</svg>
