<svg
  xmlns="http://www.w3.org/2000/svg"
  xmlns:xlink="http://www.w3.org/1999/xlink"
  width="329.912"
  height="106.398"
  viewBox="0 0 329.912 106.398"
  style="&#10;"
>
  <g
    id="Group_18293"
    data-name="Group 18293"
    transform="translate(-1503.833 -89)"
  >
    <g
      id="Group_18230"
      data-name="Group 18230"
      transform="translate(-2121.284 -504.801)"
    >
      <g
        id="Group_18229"
        data-name="Group 18229"
        transform="translate(3710.284 600.801)"
      >
        <g id="Group_18227" data-name="Group 18227">
          <g id="Group_18226" data-name="Group 18226">
            <path
              id="Path_18613"
              data-name="Path 18613"
              d="M3963.993,639.494a.588.588,0,0,0-.378-.012,1.118,1.118,0,0,0-.538.506c-.835,1.251-1.708,2.739-1.241,4.169a2.4,2.4,0,0,1,.245,1.008,1.267,1.267,0,0,1-.873.918,2.679,2.679,0,0,1-3.639-2.776,3.722,3.722,0,0,0,.084-1.226c-.449-1.9-1.989,1.954-2.245,2.409a8.927,8.927,0,0,1-3.2,3.532,4.517,4.517,0,0,1-3.394.55,2.953,2.953,0,0,1-2.19-2.484c-.1-1.385.975-2.689.748-4.058a.7.7,0,0,0-.256-.489.754.754,0,0,0-.482-.076,8.789,8.789,0,0,0-3.678,1.586c-5.75,3.519-12.5,6.442-19.25,7.183a30.32,30.32,0,0,1-16.093-2.228,5.309,5.309,0,0,1-2.065-1.437c-.413-.535-2.1-5.22-3.34-3.6-.38.5-.536,1.237-.891,1.79-.495.774-1.035,1.522-1.475,2.331a6.163,6.163,0,0,1-4.437,3.516,5.342,5.342,0,0,1-2.8-1.092,7.862,7.862,0,0,1-2.627-4.333c-1.154-4.414-.561-9.081-1.451-13.566a40.842,40.842,0,0,0-4.954-12.937,1.573,1.573,0,0,0-.622-.681c-.792-.368-1.517.657-1.678,1.516-1.062,5.688,4.583,10.727,4.479,16.512-.07,3.946-2.8,7.314-5.64,10.053-2.963,2.853-6.4,5.5-10.445,6.221-1.6.285-3.506.141-4.5-1.152a5.073,5.073,0,0,1-.542-3.862,30.105,30.105,0,0,1,3.143-9.546,20.5,20.5,0,0,0,2.222-4.863,4.8,4.8,0,0,0-1.375-4.885c-1.574-1.192-3.771-.8-5.743-.7s-4.42-.554-4.822-2.488a4.486,4.486,0,0,1,.795-3.013,28.55,28.55,0,0,1,3.887-5.316c.944-1.021,2.426-2.036,3.6-1.3.336.21.611.553,1,.616.614.1,1.076-.526,1.375-1.071.563-1.025,1.115-2.246.65-3.321a2.667,2.667,0,0,0-3.094-1.253,6.7,6.7,0,0,0-2.98,2,31.343,31.343,0,0,0-7.143,11.325c-.923,2.555-1.376,5.761.539,7.688,2.256,2.27,6.038,1.209,9.214,1.6a1.416,1.416,0,0,1,.952.395c.464.564-.063,1.383-.575,1.9-3.592,3.659-7.539,7.1-12.227,9.175s-10.237,2.65-14.926.576c2.284-3.669,5.642-6.609,7.689-10.414a18.192,18.192,0,0,0-.762-18.174c-1.158-1.776-2.883-3.461-5-3.5-2.457-.048-4.459,2.232-4.966,4.637s.112,4.886.726,7.266a13.842,13.842,0,0,1,7,1.452,3.225,3.225,0,0,1,1.889,1.919,3.338,3.338,0,0,1-.361,2,22.114,22.114,0,0,1-8.924,10.235,15.26,15.26,0,0,1,2.131-12.974c-.833-.385-1.683.486-2.149,1.275a22.906,22.906,0,0,0-3.169,11.8,5.649,5.649,0,0,1-.333,2.589,4.626,4.626,0,0,1-1.819,1.715c-6.084,3.8-13.3,5.249-20.052,7.666-.67.24-1.422.577-1.618,1.262a33.862,33.862,0,0,0,23.377-4.761,3.607,3.607,0,0,1,1.429-.649c1.016-.128,1.894.64,2.716,1.251,3.991,2.964,9.59,2.951,14.251,1.221s8.6-4.937,12.442-8.091c-.125,2.23-.93,4.359-1.366,6.549s-.45,4.636.841,6.459a6.041,6.041,0,0,0,4.532,2.4,10.584,10.584,0,0,0,5.5-1.445c5.677-2.989,9.683-8.321,13.493-13.483.9,2.745.718,5.766,1.684,8.49,2.276,6.415,10.666,4.513,12.5-1.2a1.556,1.556,0,0,1,.485-.87,1.015,1.015,0,0,1,1.195.191,5.3,5.3,0,0,1,.764,1.051c1.807,2.667,6.8,3.917,9.77,4.515a31.466,31.466,0,0,0,12.711-.169,40.668,40.668,0,0,0,9.647-3.437,50.58,50.58,0,0,0,4.477-2.532c1.2-.76,4.077-2.3,3.436.427a2.734,2.734,0,0,0,1.255,2.768,5.124,5.124,0,0,0,3.1.693,9.377,9.377,0,0,0,6.234-2.854,2.127,2.127,0,0,1,.88-.668c.765-.214,1.412.534,2.024,1.04a4.032,4.032,0,0,0,4.779.156,7.864,7.864,0,0,0,1.967-2.448c1.477-2.452,2.835-5.351,1.113-8.065A1.444,1.444,0,0,0,3963.993,639.494Zm-122.615-20.2h-1.4v-.944h1.4Z"
              transform="translate(-3720.713 -601.775)"
              fill="#fff"
            />
            <path
              id="Path_18614"
              data-name="Path 18614"
              d="M3723.6,656.126a23.2,23.2,0,0,0,6.963-1.977,33.055,33.055,0,0,0,7.038-4.647c2.523-2.088,10.361-11.222,4.325-13.431a4.359,4.359,0,0,0-1.732-.128c-1.589.081-3.432.532-4.623-.847-.215-.25,1.614-1.693,1.816-1.839a10.012,10.012,0,0,1,2.692-.945,15.812,15.812,0,0,0,3.03-1.773c3.277-2.131,7-3.4,10.52-5.049a18.167,18.167,0,0,0,5.205-3.158c1.044-1.026,3.192-3.957,1.417-5.171-1.125-.769-3.774-.545-5.135-.69l-5.953-.634a60.743,60.743,0,0,0-8.854-.507,8.688,8.688,0,0,0-4.157.975,6.825,6.825,0,0,0-2.955,5.2,23.866,23.866,0,0,0,.495,5.583,3.231,3.231,0,0,0,1.874,2.8c.091.06.194.142.183.251a.308.308,0,0,1-.082.157q-.96,1.184-1.927,2.362-.331.4-.666.8-.988,1.185-1.989,2.36l-.322.38a5.133,5.133,0,0,0-1.1,1.723,1.748,1.748,0,0,0,.456,1.882c.529,0,.931.447,1.36.755a2.982,2.982,0,0,0,1.565.555c1.11.063,2.163-.5,3.27-.6a8.18,8.18,0,0,1,4.439,1.34c.338.179-3.875,4.108-4.262,4.391-.627.46-1.272.895-1.937,1.3a23.833,23.833,0,0,1-6.441,2.862,24.46,24.46,0,0,1-7.84.388,5.639,5.639,0,0,1-2.448-.6,6.006,6.006,0,0,1-1.049-.866l-1.7-1.64c-.392-.378-.82-.879-.664-1.4-.134.446-.615-.865-.6-.828a12.48,12.48,0,0,1-.548-2.055,13.758,13.758,0,0,1-.411-4.17,15.484,15.484,0,0,1,.633-3.062,72.916,72.916,0,0,1,2.6-7.17,3.469,3.469,0,0,1,1.529-2.035l-.88-.764c-2.67,2.851-3.882,6.732-5.012,10.47-.822,2.714-1.652,5.512-1.383,8.335a20.619,20.619,0,0,0,1.542,5.481C3713.817,655.462,3718.738,656.685,3723.6,656.126Zm12.64-34.841c3.677-1.989,9.466-.431,13.428-.37a3.9,3.9,0,0,1,1.545.228c1.212.539.781,1.026-.036,1.37-.981.413-1.93.87-2.9,1.311-1.9.862-3.555,2.217-5.542,2.9-2.452.84-4.24-.053-6.195-1.572a3.26,3.26,0,0,1-.922-.974C3734.843,622.74,3735.218,621.837,3736.237,621.286Z"
              transform="translate(-3710.284 -602.327)"
              fill="#fff"
            />
            <path
              id="Path_18615"
              data-name="Path 18615"
              d="M3802.006,647.372a40.068,40.068,0,0,0,13.163-5.432,24.849,24.849,0,0,0,4.7-3.788,5.946,5.946,0,0,0,1.285-1.851,6.563,6.563,0,0,0,.344-1.605,14.872,14.872,0,0,0,.113-3.395,9.038,9.038,0,0,0-3.434-6.125,1.183,1.183,0,0,0-.681-.307c-.505,0-.8.561-.968,1.038-.459,1.291-.864,2.782-.192,3.977.682,1.214,2.365,1.883,2.457,3.274.071,1.056-.851,1.888-1.713,2.5a41.972,41.972,0,0,1-16.585,6.756,26.243,26.243,0,0,1-8.233.449,13.146,13.146,0,0,1-7.429-3.329,14.94,14.94,0,0,1-3.89-7.661c-.879-3.982-.288-8.752-2.18-12.43-.19-.369-.487-.773-.9-.751a.963.963,0,0,0-.694.511,6.074,6.074,0,0,0-.613,2.976,5.75,5.75,0,0,1-1.993,4,2.829,2.829,0,0,1-.855.685c-1.77.778-2.99-.756-4.133-1.807-.416-.382-.953-.793-1.488-.613a1.371,1.371,0,0,0-.748.909c-.687,1.929.039,4.079,1.057,5.856,1.15,2.008,2.981,3.943,3.2,6.347.217,2.425-1.717,4.353-3.424,5.8a53.771,53.771,0,0,1-31.178,12.56l.009,1.343a52.939,52.939,0,0,0,15.922-.791,32.752,32.752,0,0,0,14.29-6.839,20.185,20.185,0,0,0,5.091-6.322,13.237,13.237,0,0,0,1.31-7.935,6.211,6.211,0,0,1-.174-2.3,4.664,4.664,0,0,1,1.214-2.005q1.437-1.632,3.006-3.144c.187-.18.374,1.8.378,1.829.107,1.038.3,2.067.454,3.1a31.979,31.979,0,0,0,1.51,6.329,13.914,13.914,0,0,0,5.558,7.239c2.639,1.586,5.844,1.915,8.921,1.849A39.666,39.666,0,0,0,3802.006,647.372Z"
              transform="translate(-3713.094 -602.683)"
              fill="#fff"
            />
            <path
              id="Path_18616"
              data-name="Path 18616"
              d="M3721.578,609.662a2.448,2.448,0,0,0,1.955,1.419c1.216.244,1.462.341,1.859,1.549a12.164,12.164,0,0,0,1.255,1.967c.739,1.319.468,2.95.175,4.435a2.9,2.9,0,0,1-.382,1.111c-.127.183-.3.336-.421.521a2.733,2.733,0,0,0-.293.67c-2.112,6.339-.467,13.867.08,20.361a3.676,3.676,0,0,0,.877,2.521l-.339-19.6c-.018-1,.085-2.211.977-2.663,1.114-.564,2.634.534,3.647-.2.777-.559.627-1.738.395-2.667a2.9,2.9,0,0,0-.695-1.484,10.383,10.383,0,0,0-1.154-.7c-.666-.473-.522-1.319-.414-2.022a29.568,29.568,0,0,1,1.137-4.83c.171-.52.481-1.129,1.029-1.137.378-.005.8.288,1.1.059a.776.776,0,0,0,.188-.685c-.069-1.126-.9-3.127-2.142-1.73a5.223,5.223,0,0,0-1.505,2.549,9.49,9.49,0,0,1-.163,1.737c-.189.551-.893,1-1.352.636a1.477,1.477,0,0,1-.392-.842,4.873,4.873,0,0,0-1.327-2.275c-.233-.281-.389-.62-.631-.894-.7-.8-2.014-.934-2.551-1.851A4.415,4.415,0,0,0,3721.578,609.662Z"
              transform="translate(-3711.451 -601.307)"
              fill="#fff"
            />
            <path
              id="Path_18617"
              data-name="Path 18617"
              d="M3947.785,611.07a2.6,2.6,0,0,0,2.606,2.245,4.444,4.444,0,0,1,.977.045,2.039,2.039,0,0,1,1.144,1.016q1.385,2.323,2.75,4.661c.363.621,1.6-1.906,1.713-2.161.782-1.77.872-3.755,1.625-5.549.231-.55.6-1.153,1.2-1.212.461-.046,1.061.208,1.307-.183a.81.81,0,0,0,.091-.359,3.093,3.093,0,0,0-.253-1.786,1.568,1.568,0,0,0-2.534-.174c-.281.395-.348.934-.7,1.263a5.344,5.344,0,0,0-.495.4c-.293.34-.208.848-.19,1.3a7.027,7.027,0,0,1-.754,3.3c-.188.347-.636.621-.971.412a.99.99,0,0,1-.315-.419,19.507,19.507,0,0,0-3.56-5.174c-.525-.519-4.376-3.567-4.052-1.094A27.728,27.728,0,0,0,3947.785,611.07Z"
              transform="translate(-3735.225 -601.415)"
              fill="#fff"
            />
            <path
              id="Path_18618"
              data-name="Path 18618"
              d="M3775.8,607.754c.553.662,1.545.5,2.292.859,1.163.551,2.217.886,3.106-.35.468-.65.708-1.445,1.2-2.075a1.592,1.592,0,0,1,.585-.494c.8-.349,2.377.159,3.177.443a3.141,3.141,0,0,0,1.714.346,2.509,2.509,0,0,0,1.094-.734c.917-.888,1.736-1.881,1.326-3.226a.916.916,0,0,1-1.109-.625,6.427,6.427,0,0,1-3.152-.714c-.432-.224-.918-.506-1.372-.329a1.489,1.489,0,0,0-.577.5,26.666,26.666,0,0,0-2.1,3.027c-1.567.946-3.287-1.639-4.676.216a9.576,9.576,0,0,1-.922,1.3,5.1,5.1,0,0,0-.766.7A.925.925,0,0,0,3775.8,607.754Z"
              transform="translate(-3717.144 -600.801)"
              fill="#fff"
            />
            <path
              id="Path_18619"
              data-name="Path 18619"
              d="M3803.92,620.6c.159-.112.312-.215.457-.305q3.152-1.97,6.362-3.844,4-2.333,8.08-4.514c1.361-.727,2.733-1.432,4.1-2.141.864-.447,2.484-.894,2.921-1.828a1.052,1.052,0,0,0-1.323-1.3c-1.773.8-3.437,2.037-5.194,2.952q-3.2,1.666-6.349,3.413-3.735,2.072-7.408,4.258c-1.859,1.106-5.167,2.357-6.384,4.216-1.006,1.52.368,1.726,1.485,1.244A19.172,19.172,0,0,0,3803.92,620.6Z"
              transform="translate(-3719.6 -601.41)"
              fill="#fff"
            />
            <path
              id="Path_18620"
              data-name="Path 18620"
              d="M3735.02,664.365c-.926-.535-1.5-.384-2.559.615a2.19,2.19,0,0,1-1.779.769c-.743-.137-1.188-.9-1.849-1.268a2.451,2.451,0,0,0-2.271.08,5.825,5.825,0,0,0-1.751,1.569,2.61,2.61,0,0,0-.661,1.252c-.173,1.365,2.643,2.664,3.736,2.63,1.662-.052,2.494-2.715,4.153-1.693.57.352,1.086.787,1.671,1.114a2.767,2.767,0,0,0,1.925.388c1.312-.3,2.1-1.886,2.292-3.106a1.254,1.254,0,0,0-.047-.719C3737.613,665.427,3735.592,664.695,3735.02,664.365Z"
              transform="translate(-3711.741 -607.457)"
              fill="#fff"
            />
            <path
              id="Path_18621"
              data-name="Path 18621"
              d="M3911.8,619.731c.638.338,1.723.011,2.384-.106,3.593-.634,5.826-2.954,7.5-6.112a2.179,2.179,0,0,0,.351-1.441c-.532-2.435-4.68-1.907-6.419-1.533a2.173,2.173,0,0,0-1.515.911c-.45.544-2.071,2.316-1.336,3.041a1.356,1.356,0,0,0,1.1.193c1.125-.1,5.422.645,2.477,1.446-1.416.385-2.416,1.465-3.811,1.835-1.7.453-.88.385-.88,1.67A.937.937,0,0,0,3911.8,619.731Z"
              transform="translate(-3731.449 -601.792)"
              fill="#fff"
            />
            <path
              id="Path_18622"
              data-name="Path 18622"
              d="M3861.407,662.9a2.09,2.09,0,0,0-1.239-.592c-.674.032-1.308.706-1.721,1.174a9.8,9.8,0,0,0-.79,1.622,1.321,1.321,0,0,1-.783-.035,3.886,3.886,0,0,0-1.709-1.089c-.7-.218-.811-.667-1.625-.391-.775.262-1.484,1.309-1.917,1.961a2.163,2.163,0,0,0-.394,2.116,2.285,2.285,0,0,0,.934.826c1.6.932,2.72,1.812,3.742-.1a2.384,2.384,0,0,1,2.487-1.43c.656.175,1.131.757,1.768.995,1.6.6,3.761-1.4,3.884-2.951a1.533,1.533,0,0,0-.516-1.313c-.511-.411-1.179-.34-1.754-.582A2.066,2.066,0,0,1,3861.407,662.9Z"
              transform="translate(-3725.097 -607.272)"
              fill="#fff"
            />
            <path
              id="Path_18623"
              data-name="Path 18623"
              d="M3781.689,645.413c-.142-.306-.445-.338-.9.277a24.975,24.975,0,0,0-4.349,9.854,3.813,3.813,0,0,0,.679,3.551c.276.31,1.007,1.076,1.424,1.116.687.064,1.878-1.26,2.09-1.591.137-.215.727-2.03.438-1.915a3.95,3.95,0,0,1-2.016.356,1.3,1.3,0,0,1-.765-.326,1.6,1.6,0,0,1-.2-1.433,22.158,22.158,0,0,1,3.371-8.21A2.023,2.023,0,0,0,3781.689,645.413Z"
              transform="translate(-3717.229 -605.472)"
              fill="#fff"
            />
            <path
              id="Path_18624"
              data-name="Path 18624"
              d="M3753.635,639.373a1.862,1.862,0,0,0,.487.476c.943.669,4.63,2.329,5.453.9a2.684,2.684,0,0,0,.208-.658c.388-1.447,2.594-3.253-.328-3.751-1.1-.187-2.086-1.082-3.23-1.057-1.4.031-1.9,1.761-2.481,2.835a1.53,1.53,0,0,0-.257.856A.886.886,0,0,0,3753.635,639.373Z"
              transform="translate(-3714.829 -604.429)"
              fill="#fff"
            />
            <path
              id="Path_18625"
              data-name="Path 18625"
              d="M3799.645,658.674a5.549,5.549,0,0,1-1.544-.384,4.146,4.146,0,0,0-1.007-.475,1.9,1.9,0,0,0-1.6.739,5.876,5.876,0,0,0-1.381,2.438c-.483,1.724,3.169,2.462,4.259,2.434,1.3-.033,2.02-.971,2.746-1.926.542-.711.92-1.552.087-2.245a3.12,3.12,0,0,0-1.514-.574Z"
              transform="translate(-3719.098 -606.798)"
              fill="#fff"
            />
            <path
              id="Path_18626"
              data-name="Path 18626"
              d="M3911.928,637.845a3.176,3.176,0,0,0,1.618.418c.618-.041,2.336-1.052,2.336-1.788a4.914,4.914,0,0,0,.539-1.066,1.375,1.375,0,0,0-.781-1.737,7.6,7.6,0,0,0-2.3-1.081,2.571,2.571,0,0,0-2.375.567,3.8,3.8,0,0,0-.74,1.365,8.166,8.166,0,0,0-.446,1.458.789.789,0,0,0,.038.511.864.864,0,0,0,.361.3C3910.707,637.1,3911.3,637.527,3911.928,637.845Z"
              transform="translate(-3731.27 -604.138)"
              fill="#fff"
            />
            <path
              id="Path_18627"
              data-name="Path 18627"
              d="M3890.581,661.756a1.883,1.883,0,0,0-.583.132,7.159,7.159,0,0,0-1.5,1.1,21.132,21.132,0,0,1-4.76,2.828c-.4.192-3.786,2.512-2.921,3.212l.26.21c.588.477,2.178-.76,2.671-1.052,2.68-1.579,5.777-3.256,8.019-5.438C3892.629,661.91,3891.437,661.679,3890.581,661.756Z"
              transform="translate(-3728.21 -607.213)"
              fill="#fff"
            />
            <path
              id="Path_18628"
              data-name="Path 18628"
              d="M3883.348,638.04c1.56.794,3.863-1.4,2.473-2.419a9.8,9.8,0,0,0-1.252-.553,2.392,2.392,0,0,1-1.125-2.18,5,5,0,0,1,.839-2.414c.228-.376.723-.9.722-1.367s-.312-1.226-.912-.716a1.4,1.4,0,0,0-.34.558c-.876,2.144-2.177,4.628-1.73,7.005a3.1,3.1,0,0,0,1.1,1.943A1.48,1.48,0,0,0,3883.348,638.04Z"
              transform="translate(-3728.343 -603.686)"
              fill="#fff"
            />
            <path
              id="Path_18629"
              data-name="Path 18629"
              d="M3805.955,632.217c-.018.08-.033.145-.046.192a5.579,5.579,0,0,0-.293,2.757,2.368,2.368,0,0,0,4.186.672c.314-.5.252-.934.68-1.4a1.23,1.23,0,0,0-1.607-.563c-.347.176-.727.529-1.055.32a.743.743,0,0,1-.26-.533,8.061,8.061,0,0,1,.037-2.806c.064-.342.751-3.031-.367-2.714C3806.692,628.3,3806.168,631.278,3805.955,632.217Z"
              transform="translate(-3720.305 -603.675)"
              fill="#fff"
            />
            <path
              id="Path_18630"
              data-name="Path 18630"
              d="M3938.343,635.641a2.4,2.4,0,0,0,.681,1.59c1.35,1.144,3.019-.847,3.157-2.118a.247.247,0,0,0-.217-.338c-.494-.115-1.01-.123-1.494-.272a1.45,1.45,0,0,1-1.058-.988,1.935,1.935,0,0,1,.376-1.295,6.1,6.1,0,0,0,.741-1.611c.171-.725-1.116-1.924-1.105-1.3,0,.208.152.39.162.6a1.023,1.023,0,0,1-.21.544A10.273,10.273,0,0,0,3938.343,635.641Z"
              transform="translate(-3734.273 -603.782)"
              fill="#fff"
            />
          </g>
        </g>
        <g
          id="Group_18228"
          data-name="Group 18228"
          transform="translate(0.089 69.677)"
        >
          <path
            id="Path_18631"
            data-name="Path 18631"
            d="M3719.593,691.915a4.865,4.865,0,0,1-1.157,3.534,4.692,4.692,0,0,1-3.506,1.186,4.463,4.463,0,0,1-3.344-1.233,4.648,4.648,0,0,1-1.2-3.391,7.568,7.568,0,0,1,.258-1.786,9.176,9.176,0,0,1,.774-2.035l.975.363a10.988,10.988,0,0,0-.669,1.833,6.83,6.83,0,0,0-.23,1.739,4.125,4.125,0,0,0,.277,1.586,2.94,2.94,0,0,0,.764,1.1,3.072,3.072,0,0,0,1.127.631,4.531,4.531,0,0,0,1.366.2,4.938,4.938,0,0,0,1.643-.239,2.608,2.608,0,0,0,1.089-.707,2.748,2.748,0,0,0,.6-1.128,5.676,5.676,0,0,0,.181-1.5V686.91h1.052Zm-4.873-7.05a.717.717,0,1,1,.21.5A.684.684,0,0,1,3714.72,684.865Z"
            transform="translate(-3710.383 -679.248)"
            fill="#fff"
          />
          <path
            id="Path_18632"
            data-name="Path 18632"
            d="M3727.338,695.742a2.4,2.4,0,0,0,1.815-.574,2.736,2.736,0,0,0,.594-1.776h-1.93a5.431,5.431,0,0,1-1.892-.3,3.709,3.709,0,0,1-1.338-.821,3.256,3.256,0,0,1-.793-1.262,4.8,4.8,0,0,1-.258-1.6,5.332,5.332,0,0,1,.267-1.71,3.935,3.935,0,0,1,.775-1.365,3.607,3.607,0,0,1,1.212-.9,3.805,3.805,0,0,1,1.605-.325,3.217,3.217,0,0,1,2.541.993,4.015,4.015,0,0,1,.878,2.752v3.572h1.51a.669.669,0,0,1,.429.106.522.522,0,0,1,.124.41.515.515,0,0,1-.086.363.318.318,0,0,1-.219.077H3730.8a6.278,6.278,0,0,1-.209,1.346,2.822,2.822,0,0,1-.535,1.06,2.393,2.393,0,0,1-1,.689,4.569,4.569,0,0,1-1.634.249,9.576,9.576,0,0,1-1.232-.087,11.642,11.642,0,0,1-1.212-.219l.172-.994c.318.077.668.146,1.049.21A6.989,6.989,0,0,0,3727.338,695.742Zm-2.675-6.324a3.4,3.4,0,0,0,.258,1.385,2.515,2.515,0,0,0,.687.937,2.873,2.873,0,0,0,.994.525,4.075,4.075,0,0,0,1.195.172h1.949v-3.019a4.277,4.277,0,0,0-.594-2.454,2.1,2.1,0,0,0-1.853-.851,2.531,2.531,0,0,0-.783.144,2.563,2.563,0,0,0-.87.515,2.743,2.743,0,0,0-.707,1.042A4.19,4.19,0,0,0,3724.663,689.418Z"
            transform="translate(-3711.767 -679.349)"
            fill="#fff"
          />
          <path
            id="Path_18633"
            data-name="Path 18633"
            d="M3736.118,693.3a.678.678,0,0,1,.41.106.508.508,0,0,1,.143.429c-.013.281-.114.422-.3.422h-2.828a1.272,1.272,0,0,1-.65-.115.4.4,0,0,1-.171-.362q-.02-.478.573-.478Z"
            transform="translate(-3712.733 -680.21)"
            fill="#fff"
          />
          <path
            id="Path_18634"
            data-name="Path 18634"
            d="M3736.449,692.45a6.908,6.908,0,0,0,1.03-.067,1.559,1.559,0,0,0,.755-.315,1.408,1.408,0,0,0,.459-.716,4.452,4.452,0,0,0,.143-1.253v-4.851h1.031v5.368a1.68,1.68,0,0,0,.555,1.376,2.361,2.361,0,0,0,1.547.458.679.679,0,0,1,.411.106.428.428,0,0,1,.143.372c0,.318-.1.478-.306.478a4.48,4.48,0,0,1-1.682-.286,2.137,2.137,0,0,1-1.069-.9,2.2,2.2,0,0,1-.983.869,4.182,4.182,0,0,1-1.786.316,1.49,1.49,0,0,1-.632-.1.4.4,0,0,1-.209-.392c0-.192.044-.315.134-.373A.889.889,0,0,1,3736.449,692.45Zm1.107,3.21a.718.718,0,1,1,.21.5A.68.68,0,0,1,3737.556,695.66Zm2.236,0a.718.718,0,1,1,.21.5A.678.678,0,0,1,3739.792,695.66Z"
            transform="translate(-3713.063 -679.363)"
            fill="#fff"
          />
          <path
            id="Path_18635"
            data-name="Path 18635"
            d="M3745.447,693.3a.677.677,0,0,1,.41.106.506.506,0,0,1,.144.429c-.012.281-.114.422-.305.422h-2.827a1.272,1.272,0,0,1-.65-.115.4.4,0,0,1-.172-.362q-.019-.478.573-.478Z"
            transform="translate(-3713.715 -680.21)"
            fill="#fff"
          />
          <path
            id="Path_18636"
            data-name="Path 18636"
            d="M3745.777,692.041a6.92,6.92,0,0,0,1.032-.067,1.557,1.557,0,0,0,.754-.315,1.4,1.4,0,0,0,.459-.716,4.4,4.4,0,0,0,.144-1.253v-4.852h1.031v5.139a4.735,4.735,0,0,1-.152,1.233,2.16,2.16,0,0,1-1.482,1.566,4.66,4.66,0,0,1-1.537.22,1.482,1.482,0,0,1-.631-.1.4.4,0,0,1-.209-.392.485.485,0,0,1,.1-.353A.74.74,0,0,1,3745.777,692.041Zm2.236-9.972a.717.717,0,1,1,.21.5A.679.679,0,0,1,3748.013,682.069Z"
            transform="translate(-3714.045 -678.954)"
            fill="#fff"
          />
          <path
            id="Path_18637"
            data-name="Path 18637"
            d="M3756.332,695.742a2.4,2.4,0,0,0,1.815-.574,2.73,2.73,0,0,0,.593-1.776h-1.93a5.434,5.434,0,0,1-1.892-.3,3.7,3.7,0,0,1-1.337-.821,3.241,3.241,0,0,1-.793-1.262,4.764,4.764,0,0,1-.259-1.6,5.332,5.332,0,0,1,.268-1.71,3.938,3.938,0,0,1,.774-1.365,3.616,3.616,0,0,1,1.213-.9,3.8,3.8,0,0,1,1.605-.325,3.215,3.215,0,0,1,2.54.993,4.011,4.011,0,0,1,.879,2.752v3.572h1.51a.673.673,0,0,1,.43.106.769.769,0,0,1,.038.773.317.317,0,0,1-.22.077h-1.778a6.158,6.158,0,0,1-.209,1.346,2.8,2.8,0,0,1-.534,1.06,2.393,2.393,0,0,1-1,.689,4.568,4.568,0,0,1-1.633.249,9.593,9.593,0,0,1-1.233-.087,11.673,11.673,0,0,1-1.212-.219l.172-.994c.319.077.669.146,1.051.21A6.977,6.977,0,0,0,3756.332,695.742Zm-2.674-6.324a3.4,3.4,0,0,0,.259,1.385,2.5,2.5,0,0,0,.687.937,2.863,2.863,0,0,0,.994.525,4.065,4.065,0,0,0,1.194.172h1.949v-3.019a4.271,4.271,0,0,0-.593-2.454,2.1,2.1,0,0,0-1.853-.851,2.521,2.521,0,0,0-.782.144,2.564,2.564,0,0,0-.87.515,2.741,2.741,0,0,0-.707,1.042A4.2,4.2,0,0,0,3753.658,689.418Z"
            transform="translate(-3714.817 -679.349)"
            fill="#fff"
          />
          <path
            id="Path_18638"
            data-name="Path 18638"
            d="M3765.112,693.3a.682.682,0,0,1,.411.106.509.509,0,0,1,.143.429q-.019.422-.3.422h-2.828a1.267,1.267,0,0,1-.649-.115.4.4,0,0,1-.172-.362q-.019-.478.573-.478Z"
            transform="translate(-3715.783 -680.21)"
            fill="#fff"
          />
          <path
            id="Path_18639"
            data-name="Path 18639"
            d="M3765.441,692.041a6.935,6.935,0,0,0,1.032-.067,1.561,1.561,0,0,0,.754-.315,1.4,1.4,0,0,0,.459-.716,4.416,4.416,0,0,0,.143-1.253v-4.852h1.031v5.139a4.7,4.7,0,0,1-.153,1.233,2.289,2.289,0,0,1-.506.955,2.324,2.324,0,0,1-.974.611,4.666,4.666,0,0,1-1.537.22,1.483,1.483,0,0,1-.631-.1.4.4,0,0,1-.209-.392.486.486,0,0,1,.1-.353A.738.738,0,0,1,3765.441,692.041Zm2.236-9.972a.707.707,0,1,1,1.2.5.706.706,0,0,1-1.2-.5Z"
            transform="translate(-3716.114 -678.954)"
            fill="#fff"
          />
          <path
            id="Path_18640"
            data-name="Path 18640"
            d="M3776.466,692.236a.869.869,0,0,1-.057.344.24.24,0,0,1-.248.134,6.507,6.507,0,0,1-1.442-.143,2.5,2.5,0,0,1-1.032-.478,2.06,2.06,0,0,1-.622-.9,4.076,4.076,0,0,1-.209-1.4v-11.12h1.051v10.891a4.321,4.321,0,0,0,.1.983,1.6,1.6,0,0,0,.315.678,1.3,1.3,0,0,0,.611.4,3.064,3.064,0,0,0,.983.134.861.861,0,0,1,.449.076C3776.432,691.885,3776.466,692.019,3776.466,692.236Z"
            transform="translate(-3716.956 -678.671)"
            fill="#fff"
          />
          <path
            id="Path_18641"
            data-name="Path 18641"
            d="M3779.033,693.3a.677.677,0,0,1,.41.106.506.506,0,0,1,.143.429q-.018.422-.3.422h-2.828a1.27,1.27,0,0,1-.65-.115.4.4,0,0,1-.172-.362q-.018-.478.573-.478Z"
            transform="translate(-3717.248 -680.21)"
            fill="#fff"
          />
          <path
            id="Path_18642"
            data-name="Path 18642"
            d="M3788.364,688.87a8,8,0,0,1-.143,1.51,3.78,3.78,0,0,1-.515,1.328,2.772,2.772,0,0,1-1.013.936,3.4,3.4,0,0,1-1.653.353h-5.425a1.283,1.283,0,0,1-.621-.115.439.439,0,0,1-.2-.42.338.338,0,0,1,.172-.335.893.893,0,0,1,.4-.086h2.827a2.7,2.7,0,0,1-.583-.678,4.2,4.2,0,0,1-.383-.8,5.06,5.06,0,0,1-.276-1.595,5.774,5.774,0,0,1,.248-1.739,3.7,3.7,0,0,1,.736-1.339,3.369,3.369,0,0,1,1.176-.859,3.863,3.863,0,0,1,1.585-.306Q3788.365,684.724,3788.364,688.87Zm-6.3-.039a3.536,3.536,0,0,0,.755,2.388,2.476,2.476,0,0,0,1.939.821,3.131,3.131,0,0,0,1.2-.2,1.755,1.755,0,0,0,.764-.6,2.491,2.491,0,0,0,.4-.983,7.1,7.1,0,0,0,.115-1.366,5.669,5.669,0,0,0-.133-1.271,2.8,2.8,0,0,0-.43-1,2.038,2.038,0,0,0-.782-.66,2.692,2.692,0,0,0-1.2-.24,2.78,2.78,0,0,0-.994.183,2.329,2.329,0,0,0-.85.563,2.64,2.64,0,0,0-.583.966A4.148,4.148,0,0,0,3782.059,688.832Zm.88-6.763a.718.718,0,1,1,.21.5A.673.673,0,0,1,3782.938,682.069Zm2.234,0a.718.718,0,1,1,.21.5A.681.681,0,0,1,3785.173,682.069Z"
            transform="translate(-3717.58 -678.954)"
            fill="#fff"
          />
          <path
            id="Path_18643"
            data-name="Path 18643"
            d="M3806.49,691.915a4.871,4.871,0,0,1-1.156,3.534,4.7,4.7,0,0,1-3.506,1.186,4.463,4.463,0,0,1-3.344-1.233,4.646,4.646,0,0,1-1.2-3.391,7.6,7.6,0,0,1,.258-1.786,9.214,9.214,0,0,1,.775-2.035l.974.363a11.026,11.026,0,0,0-.668,1.833,6.821,6.821,0,0,0-.231,1.739,4.106,4.106,0,0,0,.278,1.586,2.935,2.935,0,0,0,.764,1.1,3.066,3.066,0,0,0,1.127.631,4.526,4.526,0,0,0,1.365.2,4.944,4.944,0,0,0,1.644-.239,2.611,2.611,0,0,0,1.089-.707,2.759,2.759,0,0,0,.6-1.128,5.707,5.707,0,0,0,.181-1.5V686.91h1.051Zm-4.872-7.05a.716.716,0,1,1,.21.5A.685.685,0,0,1,3801.618,684.865Z"
            transform="translate(-3719.525 -679.248)"
            fill="#fff"
          />
          <path
            id="Path_18644"
            data-name="Path 18644"
            d="M3814.235,695.742a2.4,2.4,0,0,0,1.816-.574,2.734,2.734,0,0,0,.592-1.776h-1.93a5.437,5.437,0,0,1-1.892-.3,3.717,3.717,0,0,1-1.337-.821,3.258,3.258,0,0,1-.793-1.262,4.789,4.789,0,0,1-.258-1.6,5.332,5.332,0,0,1,.267-1.71,3.947,3.947,0,0,1,.775-1.365,3.606,3.606,0,0,1,1.213-.9,3.8,3.8,0,0,1,1.605-.325,3.213,3.213,0,0,1,2.54.993,4.012,4.012,0,0,1,.88,2.752v3.572h1.508a.673.673,0,0,1,.431.106.522.522,0,0,1,.125.41.513.513,0,0,1-.086.363.318.318,0,0,1-.22.077h-1.777a6.293,6.293,0,0,1-.209,1.346,2.822,2.822,0,0,1-.535,1.06,2.4,2.4,0,0,1-1,.689,4.576,4.576,0,0,1-1.634.249,9.582,9.582,0,0,1-1.232-.087,11.681,11.681,0,0,1-1.213-.219l.173-.994c.318.077.668.146,1.05.21A6.988,6.988,0,0,0,3814.235,695.742Zm-2.673-6.324a3.41,3.41,0,0,0,.257,1.385,2.5,2.5,0,0,0,.688.937,2.871,2.871,0,0,0,.994.525,4.064,4.064,0,0,0,1.194.172h1.948v-3.019a4.278,4.278,0,0,0-.592-2.454,2.1,2.1,0,0,0-1.853-.851,2.53,2.53,0,0,0-.783.144,2.563,2.563,0,0,0-.87.515,2.736,2.736,0,0,0-.707,1.042A4.2,4.2,0,0,0,3811.561,689.418Z"
            transform="translate(-3720.909 -679.349)"
            fill="#fff"
          />
          <path
            id="Path_18645"
            data-name="Path 18645"
            d="M3823.015,693.3a.679.679,0,0,1,.411.106.506.506,0,0,1,.143.429q-.018.422-.3.422h-2.829a1.271,1.271,0,0,1-.65-.115.4.4,0,0,1-.172-.362q-.018-.478.573-.478Z"
            transform="translate(-3721.875 -680.21)"
            fill="#fff"
          />
          <path
            id="Path_18646"
            data-name="Path 18646"
            d="M3831.277,693.392a7.112,7.112,0,0,1-1.739-.182,3.281,3.281,0,0,1-1.2-.564,7.215,7.215,0,0,1-1.606.564,8.132,8.132,0,0,1-1.757.182H3823.6a1.423,1.423,0,0,1-.612-.1.383.383,0,0,1-.211-.373.405.405,0,0,1,.163-.372.731.731,0,0,1,.41-.106h1.854a7.093,7.093,0,0,0,1.241-.115,4.749,4.749,0,0,0,1.242-.4q-.267-.5-.621-1.07a12.615,12.615,0,0,0-.8-1.146q-.449-.573-.965-1.127a10.18,10.18,0,0,0-1.089-1.013c.013-.075.029-.165.048-.268s.044-.223.076-.362.064-.271.095-.392a2.492,2.492,0,0,1,.087-.276,6.21,6.21,0,0,1,.717-.4,7.358,7.358,0,0,1,.927-.373,8.651,8.651,0,0,1,1.05-.268,6.346,6.346,0,0,1,1.166-.1,4.645,4.645,0,0,1,1.6.249,3.085,3.085,0,0,1,1.088.64,2.593,2.593,0,0,1,.612.87,2.456,2.456,0,0,1,.2.955,4.134,4.134,0,0,1-.745,2.254,8.27,8.27,0,0,1-1.949,2.007,3.731,3.731,0,0,0,.975.267,7.132,7.132,0,0,0,1.012.076h1.967a.677.677,0,0,1,.421.106.474.474,0,0,1,.134.392q-.021.458-.306.458Zm-3.075-7.28a5.3,5.3,0,0,0-1.74.317,6.754,6.754,0,0,0-1.279.6,13.344,13.344,0,0,1,1.873,2.178q.763,1.129,1.432,2.275a7.1,7.1,0,0,0,1.691-1.691,3.067,3.067,0,0,0,.621-1.71,2.02,2.02,0,0,0-.133-.716,1.671,1.671,0,0,0-.43-.632,2.206,2.206,0,0,0-.812-.449A3.911,3.911,0,0,0,3828.2,686.112Z"
            transform="translate(-3722.208 -679.349)"
            fill="#fff"
          />
          <path
            id="Path_18647"
            data-name="Path 18647"
            d="M3837.128,693.3a.684.684,0,0,1,.411.106.51.51,0,0,1,.143.429q-.019.422-.306.422h-2.827a1.267,1.267,0,0,1-.65-.115.4.4,0,0,1-.173-.362c-.011-.319.179-.478.574-.478Z"
            transform="translate(-3723.359 -680.21)"
            fill="#fff"
          />
          <path
            id="Path_18648"
            data-name="Path 18648"
            d="M3840.9,692.437a8.325,8.325,0,0,0,1.441-.1,2.2,2.2,0,0,0,.984-.421,1.876,1.876,0,0,0,.6-.917,5.218,5.218,0,0,0,.2-1.615,4.321,4.321,0,0,0-.24-1.518,2.491,2.491,0,0,0-.687-1.031,2.652,2.652,0,0,0-1-.555,4.218,4.218,0,0,0-1.185-.163,9.38,9.38,0,0,0-1.2.077,7.327,7.327,0,0,0-1.26.287l-.249-.88a7.2,7.2,0,0,1,1.519-.4,9.244,9.244,0,0,1,1.119-.077,4.5,4.5,0,0,1,3.181,1.041,4.186,4.186,0,0,1,1.117,3.2,6.852,6.852,0,0,1-.21,1.824,2.876,2.876,0,0,1-.687,1.252,2.825,2.825,0,0,1-1.223.727,6.333,6.333,0,0,1-1.834.229h-3.573a1.672,1.672,0,0,1-.621-.087.344.344,0,0,1-.2-.353.559.559,0,0,1,.115-.391.623.623,0,0,1,.458-.124Zm-.688,3.171a.718.718,0,1,1,.21.5A.677.677,0,0,1,3840.213,695.608Z"
            transform="translate(-3723.693 -679.349)"
            fill="#fff"
          />
          <path
            id="Path_18649"
            data-name="Path 18649"
            d="M3850.471,678.671v14.043h-1.051V678.671Z"
            transform="translate(-3725.011 -678.671)"
            fill="#fff"
          />
          <path
            id="Path_18650"
            data-name="Path 18650"
            d="M3853.074,696.75c-.139,0-.309-.011-.505-.03a4.825,4.825,0,0,1-.564-.086l.152-.974a4.561,4.561,0,0,0,.458.057c.165.013.319.02.458.02a1.6,1.6,0,0,0,1.357-.507,2.907,2.907,0,0,0,.382-1.709v-8.272h1.05v7.2h1.816a.677.677,0,0,1,.41.106.5.5,0,0,1,.144.429q-.02.422-.305.422h-2.064a7.786,7.786,0,0,1-.152,1.451,2.746,2.746,0,0,1-.439,1.032,1.918,1.918,0,0,1-.841.641A3.614,3.614,0,0,1,3853.074,696.75Z"
            transform="translate(-3725.283 -679.363)"
            fill="#fff"
          />
          <path
            id="Path_18651"
            data-name="Path 18651"
            d="M3861.106,693.3a.679.679,0,0,1,.41.106.508.508,0,0,1,.143.429q-.019.422-.3.422h-2.827a1.271,1.271,0,0,1-.65-.115.4.4,0,0,1-.172-.362q-.019-.478.573-.478Z"
            transform="translate(-3725.883 -680.21)"
            fill="#fff"
          />
          <path
            id="Path_18652"
            data-name="Path 18652"
            d="M3864.037,692.093a2.051,2.051,0,0,1-.716.993,2.492,2.492,0,0,1-1.385.306h-.248a1.273,1.273,0,0,1-.651-.115.4.4,0,0,1-.171-.362.444.444,0,0,1,.134-.382.771.771,0,0,1,.44-.1h.42a1.77,1.77,0,0,0,.715-.123.972.972,0,0,0,.45-.439,3.716,3.716,0,0,0,.306-.9q.133-.581.248-1.518a7.522,7.522,0,0,1,.41-1.71,4.988,4.988,0,0,1,.765-1.375,3.413,3.413,0,0,1,1.126-.916,3.276,3.276,0,0,1,1.5-.336,3.6,3.6,0,0,1,1.672.353,3.092,3.092,0,0,1,1.1.936,3.813,3.813,0,0,1,.6,1.31,6.1,6.1,0,0,1,.181,1.47,6.439,6.439,0,0,1-.22,1.739,3.87,3.87,0,0,1-.668,1.356,3.019,3.019,0,0,1-1.1.88,3.505,3.505,0,0,1-1.509.305,5.11,5.11,0,0,1-3.4-1.375Zm3.286-5.981a2.261,2.261,0,0,0-.888.191,2.331,2.331,0,0,0-.879.736,5.073,5.073,0,0,0-.755,1.509,11.8,11.8,0,0,0-.478,2.532,4.8,4.8,0,0,0,1.557,1.05,4.31,4.31,0,0,0,1.615.326,2.293,2.293,0,0,0,1.107-.249,2.035,2.035,0,0,0,.746-.687,3.014,3.014,0,0,0,.411-1.023,5.852,5.852,0,0,0,.125-1.232,4.6,4.6,0,0,0-.163-1.252,2.957,2.957,0,0,0-.478-1,2.208,2.208,0,0,0-.792-.659A2.483,2.483,0,0,0,3867.323,686.112Z"
            transform="translate(-3726.215 -679.349)"
            fill="#fff"
          />
          <path
            id="Path_18653"
            data-name="Path 18653"
            d="M3884.544,695.742a3.543,3.543,0,0,0,1.166-.163,1.638,1.638,0,0,0,.735-.5,1.974,1.974,0,0,0,.392-.841,5.437,5.437,0,0,0,.115-1.194,6.128,6.128,0,0,1-2.1.345,5.094,5.094,0,0,1-1.815-.3A3.3,3.3,0,0,1,3880.99,691a4.881,4.881,0,0,1-.249-1.586,5.332,5.332,0,0,1,.268-1.71,3.926,3.926,0,0,1,.774-1.365,3.612,3.612,0,0,1,1.212-.9,3.806,3.806,0,0,1,1.606-.325,3.171,3.171,0,0,1,2.559,1.013,4.086,4.086,0,0,1,.86,2.733v3.744a9.071,9.071,0,0,1-.1,1.624,3.485,3.485,0,0,1-.478,1.337,2.308,2.308,0,0,1-1.032.861,4.4,4.4,0,0,1-1.785.306,9.578,9.578,0,0,1-1.233-.087,11.654,11.654,0,0,1-1.212-.219l.172-.994c.292.064.64.131,1.041.2A6.853,6.853,0,0,0,3884.544,695.742Zm-2.675-6.324a3.542,3.542,0,0,0,.239,1.375,2.381,2.381,0,0,0,.658.927,2.618,2.618,0,0,0,1,.516,4.669,4.669,0,0,0,1.251.163,5.294,5.294,0,0,0,1.051-.1,7.231,7.231,0,0,0,.88-.229v-2.656a4.273,4.273,0,0,0-.593-2.454,2.1,2.1,0,0,0-1.853-.851,2.44,2.44,0,0,0-.84.163,2.649,2.649,0,0,0-.85.535,2.8,2.8,0,0,0-.678,1.022A4.176,4.176,0,0,0,3881.869,689.418Z"
            transform="translate(-3728.306 -679.349)"
            fill="#fff"
          />
          <path
            id="Path_18654"
            data-name="Path 18654"
            d="M3906.093,691.915a4.87,4.87,0,0,1-1.156,3.534,4.694,4.694,0,0,1-3.506,1.186,4.462,4.462,0,0,1-3.344-1.233,4.645,4.645,0,0,1-1.2-3.391,7.57,7.57,0,0,1,.259-1.786,9.164,9.164,0,0,1,.774-2.035l.974.363a11.03,11.03,0,0,0-.668,1.833,6.832,6.832,0,0,0-.231,1.739,4.1,4.1,0,0,0,.279,1.586,2.929,2.929,0,0,0,.764,1.1,3.065,3.065,0,0,0,1.126.631,4.526,4.526,0,0,0,1.365.2,4.943,4.943,0,0,0,1.643-.239,2.606,2.606,0,0,0,1.089-.707,2.751,2.751,0,0,0,.6-1.128,5.706,5.706,0,0,0,.182-1.5V686.91h1.05Zm-4.872-7.05a.717.717,0,1,1,.21.5A.684.684,0,0,1,3901.221,684.865Z"
            transform="translate(-3730.004 -679.248)"
            fill="#fff"
          />
          <path
            id="Path_18655"
            data-name="Path 18655"
            d="M3913.838,695.742a2.4,2.4,0,0,0,1.816-.574,2.738,2.738,0,0,0,.592-1.776h-1.93a5.436,5.436,0,0,1-1.891-.3,3.717,3.717,0,0,1-1.337-.821,3.259,3.259,0,0,1-.793-1.262,4.8,4.8,0,0,1-.259-1.6,5.332,5.332,0,0,1,.268-1.71,3.943,3.943,0,0,1,.775-1.365,3.6,3.6,0,0,1,1.212-.9,3.807,3.807,0,0,1,1.606-.325,3.213,3.213,0,0,1,2.54.993,4.011,4.011,0,0,1,.88,2.752v3.572h1.508a.674.674,0,0,1,.431.106.523.523,0,0,1,.124.41.513.513,0,0,1-.086.363.318.318,0,0,1-.22.077H3917.3a6.278,6.278,0,0,1-.209,1.346,2.826,2.826,0,0,1-.535,1.06,2.4,2.4,0,0,1-1,.689,4.572,4.572,0,0,1-1.634.249,9.589,9.589,0,0,1-1.233-.087,11.717,11.717,0,0,1-1.213-.219l.173-.994c.317.077.668.146,1.049.21A6.985,6.985,0,0,0,3913.838,695.742Zm-2.673-6.324a3.41,3.41,0,0,0,.257,1.385,2.5,2.5,0,0,0,.688.937,2.867,2.867,0,0,0,.994.525,4.065,4.065,0,0,0,1.194.172h1.948v-3.019a4.28,4.28,0,0,0-.592-2.454,2.1,2.1,0,0,0-1.853-.851,2.53,2.53,0,0,0-.783.144,2.563,2.563,0,0,0-.87.515,2.736,2.736,0,0,0-.707,1.042A4.2,4.2,0,0,0,3911.165,689.418Z"
            transform="translate(-3731.388 -679.349)"
            fill="#fff"
          />
          <path
            id="Path_18656"
            data-name="Path 18656"
            d="M3922.619,693.3a.676.676,0,0,1,.409.106.506.506,0,0,1,.143.429q-.019.422-.3.422h-2.829a1.272,1.272,0,0,1-.65-.115.4.4,0,0,1-.172-.362q-.019-.478.573-.478Z"
            transform="translate(-3732.354 -680.21)"
            fill="#fff"
          />
          <path
            id="Path_18657"
            data-name="Path 18657"
            d="M3922.949,692.45a6.924,6.924,0,0,0,1.031-.067,1.557,1.557,0,0,0,.754-.315,1.4,1.4,0,0,0,.46-.716,4.448,4.448,0,0,0,.142-1.253v-4.851h1.032v5.368a1.68,1.68,0,0,0,.555,1.376,2.361,2.361,0,0,0,1.547.458.683.683,0,0,1,.411.106.43.43,0,0,1,.143.372c0,.318-.1.478-.306.478a4.478,4.478,0,0,1-1.681-.286,2.138,2.138,0,0,1-1.069-.9,2.2,2.2,0,0,1-.984.869,4.175,4.175,0,0,1-1.785.316,1.49,1.49,0,0,1-.632-.1.4.4,0,0,1-.209-.392c0-.192.045-.315.133-.373A.9.9,0,0,1,3922.949,692.45Zm2.215,3.152a.718.718,0,1,1,.21.5A.684.684,0,0,1,3925.165,695.6Z"
            transform="translate(-3732.685 -679.363)"
            fill="#fff"
          />
          <path
            id="Path_18658"
            data-name="Path 18658"
            d="M3931.948,693.3a.682.682,0,0,1,.411.106.51.51,0,0,1,.143.429q-.019.422-.305.422h-2.828a1.262,1.262,0,0,1-.649-.115.4.4,0,0,1-.173-.362c-.012-.319.179-.478.573-.478Z"
            transform="translate(-3733.335 -680.21)"
            fill="#fff"
          />
          <path
            id="Path_18659"
            data-name="Path 18659"
            d="M3937.61,692.45a3.287,3.287,0,0,0,.84-.1,1.347,1.347,0,0,0,.621-.353,1.578,1.578,0,0,0,.381-.716,4.64,4.64,0,0,0,.124-1.186v-3.074h1.031v3.591a1.753,1.753,0,0,0,.535,1.319,1.9,1.9,0,0,0,1.376.515,3.3,3.3,0,0,0,.841-.1,1.316,1.316,0,0,0,.61-.344,1.612,1.612,0,0,0,.382-.716,4.437,4.437,0,0,0,.134-1.195v-4.851h1.031v5.139a3.12,3.12,0,0,1-.744,2.235,2.816,2.816,0,0,1-2.142.784,3.4,3.4,0,0,1-1.47-.3,2.126,2.126,0,0,1-.975-.906,2.671,2.671,0,0,1-2.465,1.2,3.492,3.492,0,0,1-1.452-.286,2.181,2.181,0,0,1-.992-.9,2.222,2.222,0,0,1-1,.879,4.2,4.2,0,0,1-1.748.306,1.484,1.484,0,0,1-.631-.1.4.4,0,0,1-.209-.392.486.486,0,0,1,.1-.353.74.74,0,0,1,.487-.106,6.929,6.929,0,0,0,1.032-.067,1.556,1.556,0,0,0,.754-.315,1.4,1.4,0,0,0,.459-.716,4.424,4.424,0,0,0,.143-1.253v-3.074h1.031v3.591a1.754,1.754,0,0,0,.534,1.319A1.9,1.9,0,0,0,3937.61,692.45Z"
            transform="translate(-3733.666 -679.363)"
            fill="#fff"
          />
          <path
            id="Path_18660"
            data-name="Path 18660"
            d="M3954.278,692.236a.874.874,0,0,1-.057.344.241.241,0,0,1-.249.134,6.5,6.5,0,0,1-1.442-.143,2.5,2.5,0,0,1-1.032-.478,2.06,2.06,0,0,1-.622-.9,4.07,4.07,0,0,1-.209-1.4v-11.12h1.051v10.891a4.354,4.354,0,0,0,.1.983,1.63,1.63,0,0,0,.315.678,1.307,1.307,0,0,0,.612.4,3.066,3.066,0,0,0,.983.134.864.864,0,0,1,.449.076C3954.243,691.885,3954.278,692.019,3954.278,692.236Z"
            transform="translate(-3735.663 -678.671)"
            fill="#fff"
          />
          <path
            id="Path_18661"
            data-name="Path 18661"
            d="M3956.844,693.3a.678.678,0,0,1,.41.106.5.5,0,0,1,.144.429c-.013.281-.115.422-.305.422h-2.828a1.267,1.267,0,0,1-.65-.115.4.4,0,0,1-.172-.362q-.019-.478.573-.478Z"
            transform="translate(-3735.955 -680.21)"
            fill="#fff"
          />
          <path
            id="Path_18662"
            data-name="Path 18662"
            d="M3964.359,692.054a2.59,2.59,0,0,1-1.27,1.022,5.847,5.847,0,0,1-2.093.316h-3.572a1.675,1.675,0,0,1-.621-.087.344.344,0,0,1-.2-.353.559.559,0,0,1,.115-.391.624.624,0,0,1,.458-.124h3.44a8.328,8.328,0,0,0,1.441-.1,2.2,2.2,0,0,0,.984-.421,1.88,1.88,0,0,0,.6-.917,5.234,5.234,0,0,0,.2-1.615,4.236,4.236,0,0,0-.249-1.547,2.557,2.557,0,0,0-.687-1.013,2.64,2.64,0,0,0-1-.544,4.27,4.27,0,0,0-1.176-.163,9.4,9.4,0,0,0-1.2.077,7.33,7.33,0,0,0-1.259.287l-.249-.88a7.647,7.647,0,0,1,1.47-.391,8.4,8.4,0,0,1,1.167-.087,4.461,4.461,0,0,1,3.181,1.041,4.286,4.286,0,0,1,1.116,3.2,6.809,6.809,0,0,1-.171,1.643,1.647,1.647,0,0,0,.315.611,2.235,2.235,0,0,0,.5.449,2.379,2.379,0,0,0,.574.276,1.769,1.769,0,0,0,.545.1.716.716,0,0,1,.439.1.519.519,0,0,1,.115.4.568.568,0,0,1-.087.353.274.274,0,0,1-.219.1,3.473,3.473,0,0,1-.659-.068,3.081,3.081,0,0,1-.716-.229,2.939,2.939,0,0,1-.668-.41A2.678,2.678,0,0,1,3964.359,692.054Z"
            transform="translate(-3736.288 -679.349)"
            fill="#fff"
          />
          <path
            id="Path_18663"
            data-name="Path 18663"
            d="M3970.657,693.3a.683.683,0,0,1,.411.106.509.509,0,0,1,.143.429q-.019.422-.305.422h-2.827a1.265,1.265,0,0,1-.65-.115.4.4,0,0,1-.173-.362q-.018-.478.574-.478Z"
            transform="translate(-3737.408 -680.21)"
            fill="#fff"
          />
          <path
            id="Path_18664"
            data-name="Path 18664"
            d="M3973.589,692.093a2.06,2.06,0,0,1-.716.993,2.5,2.5,0,0,1-1.386.306h-.248a1.264,1.264,0,0,1-.649-.115.4.4,0,0,1-.172-.362.446.446,0,0,1,.133-.382.772.772,0,0,1,.439-.1h.421a1.781,1.781,0,0,0,.716-.123.969.969,0,0,0,.448-.439,3.611,3.611,0,0,0,.306-.9,15.234,15.234,0,0,0,.248-1.518,7.6,7.6,0,0,1,.412-1.71,4.913,4.913,0,0,1,.765-1.375,3.4,3.4,0,0,1,1.126-.916,3.269,3.269,0,0,1,1.5-.336,3.6,3.6,0,0,1,1.672.353,3.071,3.071,0,0,1,1.1.936,3.777,3.777,0,0,1,.6,1.31,6.033,6.033,0,0,1,.182,1.47,6.459,6.459,0,0,1-.219,1.739,3.9,3.9,0,0,1-.669,1.356,3,3,0,0,1-1.1.88,3.5,3.5,0,0,1-1.508.305,5.108,5.108,0,0,1-3.4-1.375Zm3.286-5.981a2.253,2.253,0,0,0-.888.191,2.341,2.341,0,0,0-.88.736,5.085,5.085,0,0,0-.754,1.509,11.709,11.709,0,0,0-.478,2.532,4.8,4.8,0,0,0,1.557,1.05,4.312,4.312,0,0,0,1.615.326,2.294,2.294,0,0,0,1.107-.249,2.031,2.031,0,0,0,.746-.687,2.993,2.993,0,0,0,.41-1.023,5.884,5.884,0,0,0,.125-1.232,4.663,4.663,0,0,0-.163-1.252,2.967,2.967,0,0,0-.478-1,2.215,2.215,0,0,0-.792-.659A2.489,2.489,0,0,0,3976.875,686.112Z"
            transform="translate(-3737.741 -679.349)"
            fill="#fff"
          />
        </g>
      </g>
    </g>
  </g>
</svg>