<svg id="Group_9" data-name="Group 9" xmlns="http://www.w3.org/2000/svg" width="27.428" height="26.18" viewBox="0 0 27.428 26.18">
  <g id="Group_6" data-name="Group 6" transform="translate(0)">
    <path id="Path_5" data-name="Path 5" d="M18.969,26.179H8.459A8.469,8.469,0,0,1,0,17.72V8.459A8.469,8.469,0,0,1,8.459,0H18.969a8.468,8.468,0,0,1,8.459,8.459V17.72A8.468,8.468,0,0,1,18.969,26.179ZM8.459,1.88A6.586,6.586,0,0,0,1.88,8.459V17.72A6.586,6.586,0,0,0,8.459,24.3H18.969a6.587,6.587,0,0,0,6.579-6.579V8.459A6.587,6.587,0,0,0,18.969,1.88Z" fill="#fff"/>
  </g>
  <g id="Group_7" data-name="Group 7" transform="translate(6.184 5.56)">
    <path id="Path_6" data-name="Path 6" d="M7.53,15.06a7.53,7.53,0,1,1,7.53-7.53A7.538,7.538,0,0,1,7.53,15.06Zm0-13.18a5.65,5.65,0,1,0,5.65,5.65A5.656,5.656,0,0,0,7.53,1.88Z" fill="#fff"/>
  </g>
  <g id="Group_8" data-name="Group 8" transform="translate(19.566 4.229)">
    <path id="Path_7" data-name="Path 7" d="M3.125,1.562A1.562,1.562,0,1,1,1.563,0,1.562,1.562,0,0,1,3.125,1.562Z" fill="#fff"/>
  </g>
</svg>
