<svg id="Group_18294" data-name="Group 18294" xmlns="http://www.w3.org/2000/svg" width="73.016" height="67.859" viewBox="0 0 73.016 67.859">
  <path id="Path_8512" data-name="Path 8512" d="M-442.732,911.008c.9-.952,1.773-1.932,2.707-2.849a44.917,44.917,0,0,1,6.992-5.495c6.29-4.1,9.346-9.962,8.991-17.456a19.072,19.072,0,0,0-16.284-17.622,19.045,19.045,0,0,0-21.467,15.149,18.9,18.9,0,0,0,8.335,19.689,53.345,53.345,0,0,1,10.326,8.255C-443.054,910.76-442.957,910.823-442.732,911.008Zm-2.983-24.333a2.637,2.637,0,0,1,2.6-2.663,2.654,2.654,0,0,1,2.7,2.644,2.645,2.645,0,0,1-2.679,2.66A2.627,2.627,0,0,1-445.715,886.674Zm-6.722,2.64a2.646,2.646,0,0,1-2.677-2.662,2.656,2.656,0,0,1,2.633-2.641,2.641,2.641,0,0,1,2.671,2.666A2.635,2.635,0,0,1-452.437,889.315Zm18.736,0a2.622,2.622,0,0,1-2.624-2.635,2.63,2.63,0,0,1,2.663-2.669,2.669,2.669,0,0,1,2.64,2.639A2.658,2.658,0,0,1-433.7,889.315Z" transform="translate(479.577 -852.762)" fill="#25b0e5"/>
  <path id="Path_8513" data-name="Path 8513" d="M-547.086,812.4c2.81-10.982,13.39-21.832,27.966-21.173a26.469,26.469,0,0,1,18.1,8.239,29.632,29.632,0,0,1,7.449,12.914c-1.562.452-1.938,1.515-1.929,2.942.038,6.359-.027,12.719.054,19.076a5.516,5.516,0,0,1-.94,3.2,28.325,28.325,0,0,1-18.061,13,1.078,1.078,0,0,1-1.232-.4,5.806,5.806,0,0,0-8.029,0,2.889,2.889,0,0,0-.113,3.905c2.287,2.742,7.667,2.116,8.846-.92.085-.218.472-.393.748-.452a29.6,29.6,0,0,0,10.694-4.641,31.377,31.377,0,0,0,9.428-10.228,1.1,1.1,0,0,1,1.126-.661,12.283,12.283,0,0,0,2.68-.117,5.322,5.322,0,0,0,4.34-5.317c0-.5.064-.809.632-1.012a2.136,2.136,0,0,0,1.466-2.133q.022-3.8,0-7.6a2.242,2.242,0,0,0-1.645-2.227.559.559,0,0,1-.449-.635,5.446,5.446,0,0,0-3.843-5.538,1.229,1.229,0,0,1-.533-.774,33,33,0,0,0-7.421-13.643,29.263,29.263,0,0,0-18.657-9.967c-12.284-1.413-21.92,3.351-29.13,13.231a30.574,30.574,0,0,0-4.809,10.333,1.251,1.251,0,0,1-.893.982,5.291,5.291,0,0,0-3.508,5.048c0,.528-.046.857-.661,1.064a2.072,2.072,0,0,0-1.441,2.073q-.031,3.836,0,7.672a2.2,2.2,0,0,0,1.538,2.16.706.706,0,0,1,.566.775,5.393,5.393,0,0,0,5.71,5.648c.484,0,.968,0,1.452,0a2.2,2.2,0,0,0,2.349-2.328c.013-3.271,0-6.543.005-9.815s-.035-6.544.017-9.815C-545.192,813.849-545.622,812.834-547.086,812.4Z" transform="translate(556.864 -787.991)" fill="#25b0e5"/>
  <path id="Path_8514" data-name="Path 8514" d="M-373.2,960.186a2.627,2.627,0,0,0,2.62,2.64,2.645,2.645,0,0,0,2.679-2.659,2.654,2.654,0,0,0-2.7-2.644A2.637,2.637,0,0,0-373.2,960.186Z" transform="translate(407.057 -926.274)" fill="#fff"/>
  <path id="Path_8515" data-name="Path 8515" d="M-319.545,962.826a2.635,2.635,0,0,0,2.626-2.638,2.641,2.641,0,0,0-2.67-2.666,2.656,2.656,0,0,0-2.633,2.642A2.646,2.646,0,0,0-319.545,962.826Z" transform="translate(346.685 -926.274)" fill="#fff"/>
  <path id="Path_8516" data-name="Path 8516" d="M-421.539,962.827a2.658,2.658,0,0,0,2.68-2.665,2.669,2.669,0,0,0-2.64-2.639,2.63,2.63,0,0,0-2.663,2.669A2.622,2.622,0,0,0-421.539,962.827Z" transform="translate(467.416 -926.274)" fill="#fff"/>
</svg>
