<svg xmlns="http://www.w3.org/2000/svg" width="73.589" height="50.66" viewBox="0 0 73.589 50.66">
  <g id="Group_18270" data-name="Group 18270" transform="translate(-5957 15053)">
    <path id="Path_18562" data-name="Path 18562" d="M833.485,581.579a11.4,11.4,0,1,0-17.118,0,10.624,10.624,0,0,0-1.231.448,11.4,11.4,0,0,0-10.246-6.431h0a11.414,11.414,0,0,0-10.462,6.881,10.682,10.682,0,0,0-2.15-.892,11.4,11.4,0,1,0-17.114,0,10.665,10.665,0,0,0-7.633,10.209v7.262a1.341,1.341,0,0,0,1.341,1.341h20.755a10.576,10.576,0,0,0-.928,4.328v7.262a1.341,1.341,0,0,0,1.341,1.341h29.7a1.341,1.341,0,0,0,1.341-1.341V604.72a10.578,10.578,0,0,0-.928-4.328h19.624a1.341,1.341,0,0,0,1.341-1.341v-7.262A10.665,10.665,0,0,0,833.485,581.579Zm-8.558-16.233a8.722,8.722,0,1,1-8.72,8.721A8.732,8.732,0,0,1,824.927,565.345Zm-20.036,12.932a8.722,8.722,0,1,1-8.722,8.72A8.731,8.731,0,0,1,804.891,578.277Zm-21.168-12.932A8.722,8.722,0,1,1,775,574.066,8.732,8.732,0,0,1,783.722,565.345Zm-13.51,32.364v-5.921a7.973,7.973,0,0,1,7.653-7.953,11.294,11.294,0,0,0,11.7.009,7.834,7.834,0,0,1,4.085,1.322,11.178,11.178,0,0,0,2.683,9.344,10.662,10.662,0,0,0-4.98,3.2ZM818.4,610.641H791.38V604.72a7.973,7.973,0,0,1,7.653-7.954,11.295,11.295,0,0,0,11.713,0,7.973,7.973,0,0,1,7.652,7.954Zm20.038-12.932H818.429a10.657,10.657,0,0,0-4.98-3.2,11.31,11.31,0,0,0,2.578-9.941,7.94,7.94,0,0,1,3.052-.728,11.294,11.294,0,0,0,11.7-.005,7.973,7.973,0,0,1,7.654,7.953Z" transform="translate(5189.47 -15615.663)" fill="#fff"/>
  </g>
</svg>
