<svg xmlns="http://www.w3.org/2000/svg" width="25.485" height="21.662" viewBox="0 0 25.485 21.662">
  <g id="Group_18276" data-name="Group 18276" transform="translate(0 -37)">
    <path id="Path_18605" data-name="Path 18605" d="M21.663,41.248H15.716v-.425A3.827,3.827,0,0,0,11.893,37H3.823A3.827,3.827,0,0,0,0,40.823v5.1a3.827,3.827,0,0,0,3.823,3.823h.425v3.4a.425.425,0,0,0,.725.3l3.7-3.7h1.1v.425a3.827,3.827,0,0,0,3.823,3.823h2.373l4.548,4.548a.425.425,0,0,0,.725-.3V53.99h.425a3.827,3.827,0,0,0,3.823-3.823v-5.1A3.827,3.827,0,0,0,21.663,41.248ZM8.5,48.893a.425.425,0,0,0-.3.124l-3.1,3.1v-2.8a.425.425,0,0,0-.425-.425h-.85A2.977,2.977,0,0,1,.85,45.92v-5.1A2.977,2.977,0,0,1,3.823,37.85h8.07a2.977,2.977,0,0,1,2.973,2.973v.425H13.592A3.827,3.827,0,0,0,9.769,45.07v3.823Zm16.141,1.274a2.977,2.977,0,0,1-2.973,2.973h-.85a.425.425,0,0,0-.425.425v3.647l-3.947-3.947a.425.425,0,0,0-.3-.124H13.592a2.977,2.977,0,0,1-2.973-2.973v-5.1A2.977,2.977,0,0,1,13.592,42.1h8.07a2.977,2.977,0,0,1,2.973,2.973Z" fill="#1c335b"/>
    <path id="Path_18606" data-name="Path 18606" d="M242.194,181h-9.769a.425.425,0,1,0,0,.85h9.769a.425.425,0,1,0,0-.85Z" transform="translate(-219.682 -136.354)" fill="#1c335b"/>
    <path id="Path_18607" data-name="Path 18607" d="M242.194,229h-9.769a.425.425,0,1,0,0,.85h9.769a.425.425,0,1,0,0-.85Z" transform="translate(-219.682 -181.806)" fill="#1c335b"/>
    <path id="Path_18608" data-name="Path 18608" d="M242.194,277h-9.769a.425.425,0,1,0,0,.849h9.769a.425.425,0,1,0,0-.849Z" transform="translate(-219.682 -227.257)" fill="#1c335b"/>
    <path id="Path_18609" data-name="Path 18609" d="M40.425,101.85h8.92a.425.425,0,0,0,0-.85h-8.92a.425.425,0,0,0,0,.85Z" transform="translate(-37.876 -60.602)" fill="#1c335b"/>
    <path id="Path_18610" data-name="Path 18610" d="M46.8,149H40.425a.425.425,0,0,0,0,.85H46.8a.425.425,0,0,0,0-.85Z" transform="translate(-37.876 -106.053)" fill="#1c335b"/>
    <path id="Path_18611" data-name="Path 18611" d="M46.371,197H40.425a.425.425,0,0,0,0,.85h5.947a.425.425,0,0,0,0-.85Z" transform="translate(-37.876 -151.505)" fill="#1c335b"/>
  </g>
</svg>
