<svg xmlns="http://www.w3.org/2000/svg" width="66.005" height="65.845" viewBox="0 0 66.005 65.845">
  <g id="Group_18264" data-name="Group 18264" transform="translate(-44.491 -32.943)">
    <g id="Group_18130" data-name="Group 18130" transform="translate(-59.168 0.831)">
      <path id="Path_18271" data-name="Path 18271" d="M157.837,75.8l-19.69-19.69,4.329-4.329a4.124,4.124,0,0,0,5.579-6.065l-12.4-12.4A4.124,4.124,0,0,0,129.59,38.9L116.142,52.347a.859.859,0,1,0,1.216,1.212l13.435-13.435,10.453,10.453L125.324,66.5,113.9,55.075a4.124,4.124,0,0,0-7.041,2.918,4.078,4.078,0,0,0,1.208,2.914l12.4,12.4a4.115,4.115,0,0,0,6.052-5.567l10.415-10.419,19.69,19.69a3.439,3.439,0,0,1-4.861,4.866L134.232,64.346a.86.86,0,0,0-1.216,1.216L150.547,83.09a5.155,5.155,0,1,0,7.29-7.29Zm-26.8-41.264a2.406,2.406,0,0,1,3.4,0l12.4,12.4a2.406,2.406,0,0,1,0,3.4,2.467,2.467,0,0,1-3.4,0l-12.4-12.4a2.4,2.4,0,0,1,0-3.4Zm-5.955,37.556a2.412,2.412,0,0,1-3.4,0l-12.4-12.4a2.406,2.406,0,1,1,3.4-3.4l12.4,12.4A2.412,2.412,0,0,1,125.084,72.092Z" transform="translate(10.315 0)" fill="#0265ec"/>
      <path id="Path_18272" data-name="Path 18272" d="M144.67,49.336h-5.191a5.576,5.576,0,0,0-5.5-4.713H117.973a5.576,5.576,0,0,0-5.5,4.713h-5.191a3.628,3.628,0,0,0-3.624,3.624V54a3.628,3.628,0,0,0,3.624,3.624H144.67A3.628,3.628,0,0,0,148.293,54V52.96A3.628,3.628,0,0,0,144.67,49.336Zm1.9,4.667a1.908,1.908,0,0,1-1.9,1.9H107.283a1.905,1.905,0,0,1-1.9-1.9V52.96a1.905,1.905,0,0,1,1.9-1.9h5.976a.859.859,0,0,0,.857-.862,3.859,3.859,0,0,1,3.856-3.852H133.98a3.862,3.862,0,0,1,3.759,2.994h-20.07a.859.859,0,1,0,0,1.719h27a1.908,1.908,0,0,1,1.9,1.9Z" transform="translate(0 40.33)" fill="#0265ec"/>
    </g>
  </g>
</svg>
