<svg xmlns="http://www.w3.org/2000/svg" xmlns:xlink="http://www.w3.org/1999/xlink" width="13.924" height="17.301" viewBox="0 0 13.924 17.301">
  <defs>
    <clipPath id="clip-path">
      <rect id="Rectangle_15100" data-name="Rectangle 15100" width="13.924" height="17.301" fill="#fff"/>
    </clipPath>
  </defs>
  <g id="Group_18281" data-name="Group 18281" clip-path="url(#clip-path)">
    <path id="Path_18673" data-name="Path 18673" d="M12.522,2.351c.213,0,.4,0,.581,0a.821.821,0,0,1,.819.816c0,.121,0,.243,0,.364q0,6.423,0,12.846a.836.836,0,0,1-.612.893,1.041,1.041,0,0,1-.274.029q-5.782,0-11.564,0A1.418,1.418,0,0,1,0,15.83Q0,12.522,0,9.214,0,5.467,0,1.721A1.672,1.672,0,0,1,1.4.023,1.556,1.556,0,0,1,1.693,0H11.63a.839.839,0,0,1,.891.881c.006.477,0,.955,0,1.47m-11.49.957v.181q0,6.123,0,12.246c0,.4.139.539.541.539H12.643c.075,0,.151-.006.224-.01V3.38h-.274q-5.332,0-10.664,0c-.289,0-.578-.043-.9-.069M11.483,1.026H1.834a1.829,1.829,0,0,0-.192,0,.659.659,0,0,0-.584.489.564.564,0,0,0,.219.663,1.077,1.077,0,0,0,.556.161q4.709.014,9.419.007h.231Z" transform="translate(0 0)" fill="#fff"/>
    <path id="Path_18674" data-name="Path 18674" d="M67.413,123.692q-1.788,0-3.576,0a.512.512,0,0,1-.227-.983.616.616,0,0,1,.228-.041q3.6,0,7.195,0a.513.513,0,1,1,0,1.025q-1.809,0-3.619,0" transform="translate(-60.469 -117.184)" fill="#fff"/>
    <path id="Path_18675" data-name="Path 18675" d="M65.86,182.076c.621,0,1.241,0,1.862,0a.515.515,0,1,1,0,1.025q-1.883,0-3.766,0a.514.514,0,1,1,0-1.025c.635,0,1.27,0,1.9,0" transform="translate(-60.565 -173.938)" fill="#fff"/>
  </g>
</svg>
