<svg xmlns="http://www.w3.org/2000/svg" xmlns:xlink="http://www.w3.org/1999/xlink" width="17.598" height="17.537" viewBox="0 0 17.598 17.537">
  <defs>
    <clipPath id="clip-path">
      <rect id="Rectangle_15101" data-name="Rectangle 15101" width="17.598" height="17.537" fill="#fff"/>
    </clipPath>
  </defs>
  <g id="Group_18282" data-name="Group 18282" clip-path="url(#clip-path)">
    <path id="Path_18676" data-name="Path 18676" d="M5.54,13.676c-.276-.057-.534-.1-.788-.165A6.1,6.1,0,0,1,.134,8.453,9.137,9.137,0,0,1,.3,4.52,6.064,6.064,0,0,1,5.334.086,9.755,9.755,0,0,1,7.043.012c1.631,0,3.265-.038,4.894.03A5.686,5.686,0,0,1,16,2,6.041,6.041,0,0,1,17.52,5.247a6.109,6.109,0,0,1,.068.939,10.711,10.711,0,0,1-.162,2.757,6.11,6.11,0,0,1-4.68,4.6,6.864,6.864,0,0,1-1.894.153.353.353,0,0,0-.3.127Q9,15.5,7.445,17.171a1.087,1.087,0,0,1-1.214.289,1.076,1.076,0,0,1-.69-1.036c0-.847,0-1.695,0-2.542v-.206m1.083,2.715.063.04a.82.82,0,0,1,.082-.128c1-1.078,2.017-2.14,2.992-3.239a1.2,1.2,0,0,1,1.07-.46,5.333,5.333,0,0,0,2.018-.208,4.917,4.917,0,0,0,3.6-4.259,11.247,11.247,0,0,0,.037-1.96,6.422,6.422,0,0,0-.2-1.421,4.949,4.949,0,0,0-4.743-3.649C9.775,1.092,8,1.1,6.23,1.106a4.385,4.385,0,0,0-.841.076A4.96,4.96,0,0,0,1.352,4.809a8.35,8.35,0,0,0-.115,3.627,5.023,5.023,0,0,0,4.632,4.154l.754.036Z" transform="translate(0 0)" fill="#fff"/>
    <path id="Path_18677" data-name="Path 18677" d="M119.078,55.56l-.982-1.166c.187-.164.362-.343.56-.489a3.922,3.922,0,0,1,3.884-.518,2.008,2.008,0,0,1,1.291,2.252,1.894,1.894,0,0,1-1.165,1.62c-.139.065-.275.139-.41.211a1.317,1.317,0,0,0-.871,1.109h-1.051a1.91,1.91,0,0,1,.739-1.984c.265-.178.56-.311.837-.47a.7.7,0,0,0,.4-.632.684.684,0,0,0-.53-.749,2.394,2.394,0,0,0-2.282.439c-.14.111-.267.239-.421.377" transform="translate(-112.018 -50.362)" fill="#fff"/>
    <path id="Path_18678" data-name="Path 18678" d="M157.249,181.911a.814.814,0,1,1-.809-.831.822.822,0,0,1,.809.831" transform="translate(-147.612 -171.76)" fill="#fff"/>
  </g>
</svg>
