<svg xmlns="http://www.w3.org/2000/svg" width="88.724" height="57.833" viewBox="0 0 88.724 57.833">
  <g id="Group_5055" data-name="Group 5055" opacity="0.108">
    <path id="Path_8162" data-name="Path 8162" d="M917.336,183.772v-4.914c4.617-2.525,9.087-4.5,12.983-7.289,2.062-1.474,3.124-4.347,4.847-6.9-1.6-.606-2.589-1.005-3.593-1.358a19.065,19.065,0,0,1-12.623-21.965c1.99-9.229,10.854-15.927,19.989-15.1a19.309,19.309,0,0,1,17.768,18.57c.82,19.775-17.871,39.247-37.63,39.19A14.282,14.282,0,0,1,917.336,183.772Z" transform="translate(-917.336 -126.173)" fill="#787878"/>
    <path id="Path_8163" data-name="Path 8163" d="M977.063,183.772v-6.229c8.3-.988,14.4-4.874,17.448-13.19-1.312-.418-2.355-.723-3.379-1.081a19.015,19.015,0,0,1-12.441-22.044c1.732-8.839,10.6-15.623,19.64-15.018a19.053,19.053,0,0,1,17.864,17.483C1017.945,164.392,997.928,185.122,977.063,183.772Z" transform="translate(-927.578 -126.173)" fill="#787878"/>
  </g>
</svg>
