<svg xmlns="http://www.w3.org/2000/svg" width="74.763" height="53.696" viewBox="0 0 74.763 53.696">
  <g id="Group_18268" data-name="Group 18268" transform="translate(-6228.302 15057)">
    <path id="Path_18563" data-name="Path 18563" d="M153.258,344.369H106.48a1.449,1.449,0,0,0-1.448,1.448V374.48a1.448,1.448,0,0,0,1.448,1.448h46.778a1.448,1.448,0,0,0,1.448-1.448V345.817A1.449,1.449,0,0,0,153.258,344.369ZM121.02,373.032v-2.253A5,5,0,0,1,125.7,365.8a8.36,8.36,0,0,0,8.337,0,5,5,0,0,1,4.682,4.975v2.253Zm8.85-9.012a5.527,5.527,0,1,1,5.529-5.528A5.536,5.536,0,0,1,129.869,364.02Zm21.941,9.012H141.616v-2.253a7.913,7.913,0,0,0-4.952-7.327,8.375,8.375,0,0,0,1.631-4.957h0v0h0a8.425,8.425,0,0,0-16.851,0h0v0h0a8.368,8.368,0,0,0,1.631,4.956,7.913,7.913,0,0,0-4.952,7.327v2.253H107.929V347.266H151.81Z" transform="translate(6135.814 -15395.575)" fill="#fff"/>
    <path id="Path_18564" data-name="Path 18564" d="M149.184,373.587h-.028v-38.8a1.448,1.448,0,0,0-1.448-1.448H89.344a1.448,1.448,0,0,0-1.448,1.448v38.8h-.027a6.723,6.723,0,1,0,0,13.446h61.316a6.723,6.723,0,1,0,0-13.446ZM90.792,336.234H146.26v37.353H90.792Zm58.392,47.9H87.868a3.827,3.827,0,1,1,0-7.653h61.316a3.827,3.827,0,1,1,0,7.653Z" transform="translate(6147.158 -15390.337)" fill="#fff"/>
    <path id="Path_18565" data-name="Path 18565" d="M151.3,420.027h-5.87a1.448,1.448,0,1,0,0,2.9h5.87a1.448,1.448,0,1,0,0-2.9Z" transform="translate(6117.319 -15431.502)" fill="#fff"/>
  </g>
</svg>
