<svg xmlns="http://www.w3.org/2000/svg" xmlns:xlink="http://www.w3.org/1999/xlink" width="64.225" height="57.971" viewBox="0 0 64.225 57.971">
  <defs>
    <filter id="Ellipse_3547" x="6.253" y="0" width="57.971" height="57.971" filterUnits="userSpaceOnUse">
      <feOffset dy="3" input="SourceAlpha"/>
      <feGaussianBlur stdDeviation="3" result="blur"/>
      <feFlood flood-opacity="0.161"/>
      <feComposite operator="in" in2="blur"/>
      <feComposite in="SourceGraphic"/>
    </filter>
  </defs>
  <g id="Group_18262" data-name="Group 18262" transform="translate(0 6)">
    <g transform="matrix(1, 0, 0, 1, 0, -6)" filter="url(#Ellipse_3547)">
      <g id="Ellipse_3547-2" data-name="Ellipse 3547" transform="translate(15.25 6)" fill="none" stroke="#fff" stroke-width="1">
        <ellipse cx="19.986" cy="19.986" rx="19.986" ry="19.986" stroke="none"/>
        <ellipse cx="19.986" cy="19.986" rx="19.486" ry="19.486" fill="none"/>
      </g>
    </g>
    <g id="Group_7132" data-name="Group 7132" transform="translate(0 14.527)">
      <g id="Group_7122" data-name="Group 7122" transform="translate(0 0)">
        <path id="Path_9591" data-name="Path 9591" d="M6.055,6.05l-3.8,3.9A1.252,1.252,0,1,1,.46,8.208l2.989-3.07L.379,2.149A1.252,1.252,0,0,1,2.125.355l3.9,3.8a1.249,1.249,0,0,1,.376.942A1.247,1.247,0,0,1,6.055,6.05Z" transform="translate(37.798 0)" fill="#fff"/>
        <line id="Line_19563" data-name="Line 19563" x1="43.411" transform="translate(0 5.26)" fill="none" stroke="#fff" stroke-width="1"/>
      </g>
    </g>
  </g>
</svg>
