<svg xmlns="http://www.w3.org/2000/svg" width="25.469" height="33.429" viewBox="0 0 25.469 33.429">
  <path id="ic_https_24px" d="M7.184,12.143H8.775V8.959a7.959,7.959,0,1,1,15.918,0v3.184h1.592a3.193,3.193,0,0,1,3.184,3.184V31.245a3.193,3.193,0,0,1-3.184,3.184H7.184A3.193,3.193,0,0,1,4,31.245V15.326A3.193,3.193,0,0,1,7.184,12.143Zm9.551,14.326a3.184,3.184,0,1,0-3.184-3.184A3.193,3.193,0,0,0,16.735,26.469ZM11.8,12.143h9.869V8.959a4.935,4.935,0,0,0-9.869,0Z" transform="translate(-4 -1)" fill="#5ad1ff"/>
</svg>
