<svg xmlns="http://www.w3.org/2000/svg" width="26.419" height="26.42" viewBox="0 0 26.419 26.42">
  <path id="Path_18669" data-name="Path 18669" d="M122.547,119.292h6.6v1.651h-6.6Zm0,14.036h3.3v-1.651h-3.3Zm0-8.256h7.431V123.42h-7.431Zm0,4.128h4.128v-1.651h-4.128Zm7.431,9.082v1.651H119.245a2.479,2.479,0,0,1-2.477-2.477V119.292a2.479,2.479,0,0,1,2.477-2.477v-.826a1.651,1.651,0,0,1,1.651-1.651H131.77a1.653,1.653,0,0,1,1.168.483l5.637,5.638a1.652,1.652,0,0,1,.484,1.167v2.619h-1.651v-1.651H133.28a2.479,2.479,0,0,1-2.477-2.477v-4.128H120.9V135.8h6.6v1.651h-6.6a1.651,1.651,0,0,1-1.651-1.651V118.466a.826.826,0,0,0-.826.826v18.164a.826.826,0,0,0,.826.826Zm2.477-21.608v3.444a.826.826,0,0,0,.826.826h3.444Zm-.826,15a2.479,2.479,0,0,1,2.477-2.477.826.826,0,0,0,0-1.651,4.133,4.133,0,0,0-4.128,4.128.826.826,0,0,0,1.651,0Zm11.317,7.673a.826.826,0,1,1-1.167,1.167l-3.629-3.629a6.629,6.629,0,1,1,1.167-1.167Zm-3.886-7.673a4.954,4.954,0,1,0-4.954,4.954A4.959,4.959,0,0,0,139.06,131.676Z" transform="translate(-116.768 -114.338)" fill="#1c335b"/>
</svg>
